# MagicaVoxel @ Ephtracy

# group
o 

# material
mtllib TrapsAndBuildings4_r1-0.mtl
usemtl palette

# normals
vn -1 0 0
vn 1 0 0
vn 0 0 1
vn 0 0 -1
vn 0 -1 0
vn 0 1 0

# texcoords
vt 0.900391 0.5
vt 0.904297 0.5
vt 0.978516 0.5
vt 0.986328 0.5

# verts
v -0.3 0 -0.1
v -0.3 0 -0.3
v -0.3 0.1 -0.1
v -0.3 0.1 -0.2
v -0.3 0.2 -0.2
v -0.3 0.2 -0.3
v -0.2 0 0.2
v -0.2 0 -0.1
v -0.2 0.1 -0.1
v -0.2 0.1 -0.2
v -0.2 0.2 0.3
v -0.2 0.2 0.2
v -0.2 0.2 -0.1
v -0.2 0.2 -0.2
v -0.2 0.3 0.1
v -0.2 0.3 0
v -0.2 0.4 0.1
v -0.2 0.4 0
v -0.2 0.5 0.3
v -0.2 0.5 0.2
v -0.2 0.5 -0.1
v -0.2 0.5 -0.2
v -0.2 0.6 0.2
v -0.2 0.6 -0.1
v -0.1 0 0.3
v -0.1 0 0.2
v -0.1 0 -0.3
v -0.1 0 -0.4
v -0.1 0.2 0.3
v -0.1 0.2 0.2
v -0.1 0.2 -0.2
v -0.1 0.2 -0.3
v -0.1 0.3 -0.2
v -0.1 0.3 -0.4
v -0.1 0.5 -0.1
v -0.1 0.5 -0.2
v -0.1 0.6 -0.1
v -0.1 0.6 -0.2
v 0 0.3 -0.2
v 0 0.3 -0.3
v 0 0.3 -0.4
v 0 0.4 -0.2
v 0 0.4 -0.3
v 0 0.4 -0.4
v 0 0.6 0.1
v 0 0.6 -0.1
v 0 0.7 0.1
v 0 0.7 -0.1
v 0.1 0.4 -0.2
v 0.1 0.4 -0.3
v 0.1 0.5 -0.2
v 0.1 0.5 -0.3
v -0.1 0.4 0.3
v -0.1 0.4 0.2
v -0.1 0.5 0.3
v -0.1 0.5 0.2
v 0 0.3 0.3
v 0 0.3 0.2
v 0 0.4 0.3
v 0 0.4 0.2
v 0.1 0.2 0.3
v 0.1 0.2 0.2
v 0.1 0.3 0.3
v 0.1 0.3 0.2
v 0.1 0.4 0.2
v 0.1 0.4 0.1
v 0.1 0.5 -0.1
v 0.1 0.5 -0.2
v 0.1 0.6 0.2
v 0.1 0.6 0.1
v 0.1 0.6 -0.1
v 0.1 0.6 -0.2
v 0.2 0.2 0.2
v 0.2 0.2 0.1
v 0.2 0.2 0
v 0.2 0.3 0
v 0.2 0.3 -0.1
v 0.2 0.4 0.2
v 0.2 0.4 0.1
v 0.2 0.4 -0.1
v 0.2 0.5 -0.1
v 0.2 0.7 0.1
v 0.2 0.7 -0.1
v 0.3 0 0.3
v 0.3 0 -0.4
v 0.3 0.2 0.3
v 0.3 0.2 0
v 0.3 0.3 0
v 0.3 0.3 -0.1
v 0.3 0.3 -0.3
v 0.3 0.3 -0.4
v 0.3 0.4 -0.1
v 0.3 0.4 -0.3
v 0.3 0.4 -0.4
v 0.3 0.5 -0.1
v 0.3 0.5 -0.3
v -0.2 0.2 0.3
v -0.2 0.5 0.3
v -0.1 0 0.3
v -0.1 0.2 0.3
v -0.1 0.3 0.3
v -0.1 0.4 0.3
v -0.1 0.5 0.3
v 0 0.2 0.3
v 0 0.3 0.3
v 0 0.4 0.3
v 0.1 0 0.3
v 0.1 0.2 0.3
v 0.1 0.3 0.3
v 0.2 0 0.3
v 0.2 0.2 0.3
v 0.3 0 0.3
v 0.3 0.2 0.3
v -0.2 0 0.2
v -0.2 0.2 0.2
v -0.2 0.5 0.2
v -0.2 0.6 0.2
v -0.1 0 0.2
v -0.1 0.2 0.2
v -0.1 0.4 0.2
v -0.1 0.5 0.2
v -0.1 0.6 0.2
v 0 0.3 0.2
v 0 0.4 0.2
v 0 0.6 0.2
v 0.1 0.2 0.2
v 0.1 0.3 0.2
v 0.1 0.4 0.2
v 0.1 0.6 0.2
v 0.2 0.2 0.2
v 0.2 0.4 0.2
v 0 0.6 0.1
v 0 0.7 0.1
v 0.1 0.4 0.1
v 0.1 0.6 0.1
v 0.1 0.7 0.1
v 0.2 0.4 0.1
v 0.2 0.7 0.1
v 0.2 0.2 0
v 0.2 0.3 0
v 0.3 0.2 0
v 0.3 0.3 0
v -0.3 0 -0.1
v -0.3 0.1 -0.1
v -0.2 0 -0.1
v -0.2 0.1 -0.1
v 0.2 0.3 -0.1
v 0.2 0.4 -0.1
v 0.2 0.5 -0.1
v 0.3 0.3 -0.1
v 0.3 0.4 -0.1
v 0.3 0.5 -0.1
v -0.3 0.1 -0.2
v -0.3 0.2 -0.2
v -0.2 0.1 -0.2
v -0.2 0.2 -0.2
v -0.2 0.5 -0.1
v -0.2 0.6 -0.1
v -0.1 0.5 -0.1
v -0.1 0.6 -0.1
v 0 0.6 -0.1
v 0 0.7 -0.1
v 0.1 0.5 -0.1
v 0.1 0.6 -0.1
v 0.1 0.7 -0.1
v 0.2 0.5 -0.1
v 0.2 0.7 -0.1
v -0.2 0.2 -0.2
v -0.2 0.5 -0.2
v -0.1 0.2 -0.2
v -0.1 0.3 -0.2
v -0.1 0.5 -0.2
v -0.1 0.6 -0.2
v 0 0.3 -0.2
v 0 0.4 -0.2
v 0 0.5 -0.2
v 0.1 0.4 -0.2
v 0.1 0.5 -0.2
v 0.1 0.6 -0.2
v -0.3 0 -0.3
v -0.3 0.2 -0.3
v -0.1 0 -0.3
v -0.1 0.2 -0.3
v 0.1 0.4 -0.3
v 0.1 0.5 -0.3
v 0.2 0.4 -0.3
v 0.2 0.5 -0.3
v 0.3 0.4 -0.3
v 0.3 0.5 -0.3
v -0.1 0 -0.4
v -0.1 0.3 -0.4
v 0 0.3 -0.4
v 0 0.4 -0.4
v 0.1 0.3 -0.4
v 0.1 0.4 -0.4
v 0.3 0 -0.4
v 0.3 0.3 -0.4
v 0.3 0.4 -0.4
v -0.1 0 0.3
v 0.1 0 0.3
v 0.2 0 0.3
v 0.3 0 0.3
v -0.2 0 0.2
v -0.1 0 0.2
v 0.1 0 0.2
v 0.2 0 0.2
v -0.3 0 -0.1
v -0.2 0 -0.1
v -0.3 0 -0.3
v -0.1 0 -0.3
v -0.1 0 -0.4
v 0.3 0 -0.4
v -0.2 0.2 0.3
v -0.1 0.2 0.3
v -0.2 0.2 0.2
v -0.1 0.2 0.2
v -0.3 0.1 -0.1
v -0.2 0.1 -0.1
v -0.3 0.1 -0.2
v -0.2 0.1 -0.2
v 0.1 0.2 0.3
v 0.2 0.2 0.3
v 0.3 0.2 0.3
v 0.1 0.2 0.2
v 0.2 0.2 0.2
v 0.2 0.2 0.1
v 0.2 0.2 0
v 0.3 0.2 0
v -0.3 0.2 -0.2
v -0.2 0.2 -0.2
v -0.1 0.2 -0.2
v -0.3 0.2 -0.3
v -0.1 0.2 -0.3
v 0 0.3 0.3
v 0.1 0.3 0.3
v 0 0.3 0.2
v 0.1 0.3 0.2
v 0.2 0.3 0
v 0.3 0.3 0
v 0.2 0.3 -0.1
v 0.3 0.3 -0.1
v -0.1 0.3 -0.2
v 0 0.3 -0.2
v 0 0.3 -0.3
v -0.1 0.3 -0.4
v 0 0.3 -0.4
v -0.1 0.4 0.3
v 0 0.4 0.3
v -0.1 0.4 0.2
v 0 0.4 0.2
v 0.1 0.4 0.2
v 0.2 0.4 0.2
v 0.1 0.4 0.1
v 0.2 0.4 0.1
v 0 0.4 -0.2
v 0.1 0.4 -0.2
v 0 0.4 -0.3
v 0.1 0.4 -0.3
v 0.2 0.4 -0.3
v 0.3 0.4 -0.3
v 0 0.4 -0.4
v 0.1 0.4 -0.4
v 0.3 0.4 -0.4
v -0.2 0.5 0.3
v -0.1 0.5 0.3
v -0.2 0.5 0.2
v -0.1 0.5 0.2
v -0.2 0.5 -0.1
v -0.1 0.5 -0.1
v 0.1 0.5 -0.1
v 0.2 0.5 -0.1
v 0.3 0.5 -0.1
v -0.2 0.5 -0.2
v -0.1 0.5 -0.2
v 0.1 0.5 -0.2
v 0.2 0.5 -0.2
v 0.1 0.5 -0.3
v 0.2 0.5 -0.3
v 0.3 0.5 -0.3
v -0.2 0.6 0.2
v -0.1 0.6 0.2
v 0 0.6 0.2
v 0.1 0.6 0.2
v -0.1 0.6 0.1
v 0 0.6 0.1
v 0.1 0.6 0.1
v -0.2 0.6 -0.1
v -0.1 0.6 -0.1
v 0 0.6 -0.1
v 0.1 0.6 -0.1
v -0.1 0.6 -0.2
v 0.1 0.6 -0.2
v 0 0.7 0.1
v 0.1 0.7 0.1
v 0.2 0.7 0.1
v 0 0.7 -0.1
v 0.1 0.7 -0.1
v 0.2 0.7 -0.1

# faces
f 3/3/1 2/3/1 1/3/1
f 4/3/1 2/3/1 3/3/1
f 5/3/1 2/3/1 4/3/1
f 6/3/1 2/3/1 5/3/1
f 9/3/1 8/3/1 7/3/1
f 12/3/1 9/3/1 7/3/1
f 12/3/1 10/3/1 9/3/1
f 13/3/1 10/3/1 12/3/1
f 14/3/1 10/3/1 13/3/1
f 15/4/1 13/4/1 12/4/1
f 16/4/1 13/4/1 15/4/1
f 17/4/1 15/4/1 12/4/1
f 17/3/1 16/3/1 15/3/1
f 18/4/1 13/4/1 16/4/1
f 18/3/1 16/3/1 17/3/1
f 19/3/1 12/3/1 11/3/1
f 20/4/1 17/4/1 12/4/1
f 20/3/1 12/3/1 19/3/1
f 20/4/1 18/4/1 17/4/1
f 21/4/1 13/4/1 18/4/1
f 21/4/1 18/4/1 20/4/1
f 21/3/1 14/3/1 13/3/1
f 22/3/1 14/3/1 21/3/1
f 23/3/1 21/3/1 20/3/1
f 24/3/1 21/3/1 23/3/1
f 29/3/1 26/3/1 25/3/1
f 30/3/1 26/3/1 29/3/1
f 32/3/1 28/3/1 27/3/1
f 33/3/1 32/3/1 31/3/1
f 34/3/1 28/3/1 32/3/1
f 34/3/1 32/3/1 33/3/1
f 37/2/1 36/2/1 35/2/1
f 38/2/1 36/2/1 37/2/1
f 42/2/1 40/2/1 39/2/1
f 43/3/1 41/3/1 40/3/1
f 43/2/1 40/2/1 42/2/1
f 44/3/1 41/3/1 43/3/1
f 47/2/1 46/2/1 45/2/1
f 48/2/1 46/2/1 47/2/1
f 51/2/1 50/2/1 49/2/1
f 52/2/1 50/2/1 51/2/1
f 53/3/2 54/3/2 55/3/2
f 55/3/2 54/3/2 56/3/2
f 57/1/2 58/1/2 59/1/2
f 59/1/2 58/1/2 60/1/2
f 61/1/2 62/1/2 63/1/2
f 63/1/2 62/1/2 64/1/2
f 65/2/2 66/2/2 69/2/2
f 69/2/2 66/2/2 70/2/2
f 67/2/2 68/2/2 71/2/2
f 71/2/2 68/2/2 72/2/2
f 74/3/2 75/3/2 76/3/2
f 73/2/2 74/2/2 78/2/2
f 76/3/2 77/3/2 79/3/2
f 78/2/2 74/2/2 79/2/2
f 74/3/2 76/3/2 79/3/2
f 79/3/2 77/3/2 80/3/2
f 79/3/2 80/3/2 81/3/2
f 79/3/2 81/3/2 82/3/2
f 82/3/2 81/3/2 83/3/2
f 84/3/2 85/3/2 86/3/2
f 86/3/2 85/3/2 87/3/2
f 87/3/2 85/3/2 88/3/2
f 88/3/2 85/3/2 89/3/2
f 89/3/2 85/3/2 90/3/2
f 90/3/2 85/3/2 91/3/2
f 89/3/2 90/3/2 92/3/2
f 90/1/2 91/1/2 93/1/2
f 92/3/2 90/3/2 93/3/2
f 93/1/2 91/1/2 94/1/2
f 92/1/2 93/1/2 95/1/2
f 95/1/2 93/1/2 96/1/2
f 100/3/3 98/3/3 97/3/3
f 101/3/3 98/3/3 100/3/3
f 102/3/3 98/3/3 101/3/3
f 103/3/3 98/3/3 102/3/3
f 104/3/3 100/3/3 99/3/3
f 104/3/3 101/3/3 100/3/3
f 105/1/3 102/1/3 101/1/3
f 105/3/3 101/3/3 104/3/3
f 106/1/3 102/1/3 105/1/3
f 107/3/3 104/3/3 99/3/3
f 108/1/3 105/1/3 104/1/3
f 108/3/3 104/3/3 107/3/3
f 109/1/3 105/1/3 108/1/3
f 110/2/3 108/2/3 107/2/3
f 111/2/3 108/2/3 110/2/3
f 112/3/3 111/3/3 110/3/3
f 113/3/3 111/3/3 112/3/3
f 118/3/3 115/3/3 114/3/3
f 119/3/3 115/3/3 118/3/3
f 121/3/3 117/3/3 116/3/3
f 122/3/3 117/3/3 121/3/3
f 124/1/3 121/1/3 120/1/3
f 124/1/3 122/1/3 121/1/3
f 125/1/3 122/1/3 124/1/3
f 127/2/3 124/2/3 123/2/3
f 127/2/3 125/2/3 124/2/3
f 128/2/3 125/2/3 127/2/3
f 129/2/3 125/2/3 128/2/3
f 130/2/3 127/2/3 126/2/3
f 130/2/3 128/2/3 127/2/3
f 131/2/3 128/2/3 130/2/3
f 135/2/3 133/2/3 132/2/3
f 136/2/3 133/2/3 135/2/3
f 137/3/3 135/3/3 134/3/3
f 137/3/3 136/3/3 135/3/3
f 138/3/3 136/3/3 137/3/3
f 141/3/3 140/3/3 139/3/3
f 142/3/3 140/3/3 141/3/3
f 145/3/3 144/3/3 143/3/3
f 146/3/3 144/3/3 145/3/3
f 150/3/3 148/3/3 147/3/3
f 151/1/3 149/1/3 148/1/3
f 151/3/3 148/3/3 150/3/3
f 152/1/3 149/1/3 151/1/3
f 155/3/3 154/3/3 153/3/3
f 156/3/3 154/3/3 155/3/3
f 157/3/4 158/3/4 159/3/4
f 159/3/4 158/3/4 160/3/4
f 161/2/4 162/2/4 164/2/4
f 164/2/4 162/2/4 165/2/4
f 163/3/4 164/3/4 166/3/4
f 164/3/4 165/3/4 166/3/4
f 166/3/4 165/3/4 167/3/4
f 168/3/4 169/3/4 170/3/4
f 170/3/4 169/3/4 171/3/4
f 171/3/4 169/3/4 172/3/4
f 171/3/4 172/3/4 174/3/4
f 174/3/4 172/3/4 175/3/4
f 172/2/4 173/2/4 176/2/4
f 175/3/4 172/3/4 176/3/4
f 175/2/4 176/2/4 177/2/4
f 176/2/4 173/2/4 178/2/4
f 177/2/4 176/2/4 178/2/4
f 178/2/4 173/2/4 179/2/4
f 180/3/4 181/3/4 182/3/4
f 182/3/4 181/3/4 183/3/4
f 184/2/4 185/2/4 186/2/4
f 186/2/4 185/2/4 187/2/4
f 186/1/4 187/1/4 188/1/4
f 188/1/4 187/1/4 189/1/4
f 190/3/4 191/3/4 192/3/4
f 190/3/4 192/3/4 194/3/4
f 192/3/4 193/3/4 194/3/4
f 194/3/4 193/3/4 195/3/4
f 190/3/4 194/3/4 196/3/4
f 194/1/4 195/1/4 197/1/4
f 196/3/4 194/3/4 197/3/4
f 197/1/4 195/1/4 198/1/4
f 204/3/5 200/3/5 199/3/5
f 205/2/5 201/2/5 200/2/5
f 205/3/5 200/3/5 204/3/5
f 206/3/5 202/3/5 201/3/5
f 206/2/5 201/2/5 205/2/5
f 208/3/5 205/3/5 204/3/5
f 208/3/5 204/3/5 203/3/5
f 208/3/5 206/3/5 205/3/5
f 209/3/5 208/3/5 207/3/5
f 210/3/5 206/3/5 208/3/5
f 210/3/5 208/3/5 209/3/5
f 211/3/5 206/3/5 210/3/5
f 212/3/5 202/3/5 206/3/5
f 212/3/5 206/3/5 211/3/5
f 215/3/5 214/3/5 213/3/5
f 216/3/5 214/3/5 215/3/5
f 217/3/6 218/3/6 219/3/6
f 219/3/6 218/3/6 220/3/6
f 221/2/6 222/2/6 224/2/6
f 222/3/6 223/3/6 225/3/6
f 224/2/6 222/2/6 225/2/6
f 225/3/6 223/3/6 226/3/6
f 226/3/6 223/3/6 227/3/6
f 227/3/6 223/3/6 228/3/6
f 229/3/6 230/3/6 232/3/6
f 230/3/6 231/3/6 232/3/6
f 232/3/6 231/3/6 233/3/6
f 234/1/6 235/1/6 236/1/6
f 236/1/6 235/1/6 237/1/6
f 238/3/6 239/3/6 240/3/6
f 240/3/6 239/3/6 241/3/6
f 242/3/6 243/3/6 244/3/6
f 242/3/6 244/3/6 245/3/6
f 245/3/6 244/3/6 246/3/6
f 247/1/6 248/1/6 249/1/6
f 249/1/6 248/1/6 250/1/6
f 251/2/6 252/2/6 253/2/6
f 253/2/6 252/2/6 254/2/6
f 255/2/6 256/2/6 257/2/6
f 257/2/6 256/2/6 258/2/6
f 257/3/6 258/3/6 261/3/6
f 258/1/6 259/1/6 262/1/6
f 261/3/6 258/3/6 262/3/6
f 259/1/6 260/1/6 262/1/6
f 262/1/6 260/1/6 263/1/6
f 264/3/6 265/3/6 266/3/6
f 266/3/6 265/3/6 267/3/6
f 268/3/6 269/3/6 273/3/6
f 273/3/6 269/3/6 274/3/6
f 271/1/6 272/1/6 275/1/6
f 270/1/6 271/1/6 275/1/6
f 275/1/6 272/1/6 276/1/6
f 275/2/6 276/2/6 277/2/6
f 276/1/6 272/1/6 278/1/6
f 277/2/6 276/2/6 278/2/6
f 278/1/6 272/1/6 279/1/6
f 280/3/6 281/3/6 284/3/6
f 281/1/6 282/1/6 284/1/6
f 282/2/6 283/2/6 285/2/6
f 284/1/6 282/1/6 285/1/6
f 285/2/6 283/2/6 286/2/6
f 280/3/6 284/3/6 287/3/6
f 284/3/6 285/3/6 287/3/6
f 287/3/6 285/3/6 288/3/6
f 288/3/6 285/3/6 289/3/6
f 289/2/6 290/2/6 291/2/6
f 288/2/6 289/2/6 291/2/6
f 291/2/6 290/2/6 292/2/6
f 293/2/6 294/2/6 296/2/6
f 294/3/6 295/3/6 297/3/6
f 296/2/6 294/2/6 297/2/6
f 297/3/6 295/3/6 298/3/6
