# MagicaVoxel @ Ephtracy

# group
o 

# material
mtllib TrapsAndBuildings4_b2-0.mtl
usemtl palette

# normals
vn -1 0 0
vn 1 0 0
vn 0 0 1
vn 0 0 -1
vn 0 -1 0
vn 0 1 0

# texcoords
vt 0.537109 0.5
vt 0.962891 0.5
vt 0.982422 0.5

# verts
v -0.6 0 0.5
v -0.6 0 -0.6
v -0.6 0.1 0.5
v -0.6 0.1 0.3
v -0.6 0.1 -0.4
v -0.6 0.1 -0.6
v -0.6 0.2 0.3
v -0.6 0.2 -0.4
v -0.5 0.1 0.4
v -0.5 0.1 0.3
v -0.5 0.1 -0.4
v -0.5 0.1 -0.5
v -0.5 0.2 0.4
v -0.5 0.2 0.3
v -0.5 0.2 0.2
v -0.5 0.2 -0.3
v -0.5 0.2 -0.4
v -0.5 0.2 -0.5
v -0.5 0.3 0.2
v -0.5 0.3 -0.3
v -0.4 0.1 0.5
v -0.4 0.1 0.4
v -0.4 0.1 -0.5
v -0.4 0.1 -0.6
v -0.4 0.2 0.5
v -0.4 0.2 0.4
v -0.4 0.2 0.3
v -0.4 0.2 0.2
v -0.4 0.2 -0.3
v -0.4 0.2 -0.4
v -0.4 0.2 -0.5
v -0.4 0.2 -0.6
v -0.4 0.3 0.3
v -0.4 0.3 0.2
v -0.4 0.3 -0.3
v -0.4 0.3 -0.4
v -0.3 0.2 0.4
v -0.3 0.2 0.3
v -0.3 0.2 -0.4
v -0.3 0.2 -0.5
v -0.3 0.3 0.4
v -0.3 0.3 0.3
v -0.3 0.3 -0.4
v -0.3 0.3 -0.5
v 0.2 0.2 0.4
v 0.2 0.2 0.3
v 0.2 0.2 -0.4
v 0.2 0.2 -0.5
v 0.2 0.3 0.4
v 0.2 0.3 0.3
v 0.2 0.3 -0.4
v 0.2 0.3 -0.5
v 0.3 0.1 0.5
v 0.3 0.1 0.4
v 0.3 0.1 -0.5
v 0.3 0.1 -0.6
v 0.3 0.2 0.5
v 0.3 0.2 0.4
v 0.3 0.2 0.3
v 0.3 0.2 0.2
v 0.3 0.2 -0.3
v 0.3 0.2 -0.4
v 0.3 0.2 -0.5
v 0.3 0.2 -0.6
v 0.3 0.3 0.3
v 0.3 0.3 0.2
v 0.3 0.3 -0.3
v 0.3 0.3 -0.4
v 0.4 0.1 0.4
v 0.4 0.1 0.3
v 0.4 0.1 -0.4
v 0.4 0.1 -0.5
v 0.4 0.2 0.4
v 0.4 0.2 0.3
v 0.4 0.2 0.2
v 0.4 0.2 -0.3
v 0.4 0.2 -0.4
v 0.4 0.2 -0.5
v 0.4 0.3 0.2
v 0.4 0.3 -0.3
v 0.5 0 0.5
v 0.5 0 -0.6
v 0.5 0.1 0.5
v 0.5 0.1 0.3
v 0.5 0.1 -0.4
v 0.5 0.1 -0.6
v 0.5 0.2 0.3
v 0.5 0.2 -0.4
v -0.6 0 0.5
v -0.6 0.1 0.5
v -0.4 0.1 0.5
v -0.4 0.2 0.5
v 0.3 0.1 0.5
v 0.3 0.2 0.5
v 0.5 0 0.5
v 0.5 0.1 0.5
v -0.5 0.1 0.4
v -0.5 0.2 0.4
v -0.4 0.1 0.4
v -0.4 0.2 0.4
v -0.3 0.2 0.4
v -0.3 0.3 0.4
v 0.2 0.2 0.4
v 0.2 0.3 0.4
v 0.3 0.1 0.4
v 0.3 0.2 0.4
v 0.4 0.1 0.4
v 0.4 0.2 0.4
v -0.6 0.1 0.3
v -0.6 0.2 0.3
v -0.5 0.1 0.3
v -0.5 0.2 0.3
v -0.4 0.2 0.3
v -0.4 0.3 0.3
v -0.3 0.2 0.3
v -0.3 0.3 0.3
v 0.2 0.2 0.3
v 0.2 0.3 0.3
v 0.3 0.2 0.3
v 0.3 0.3 0.3
v 0.4 0.1 0.3
v 0.4 0.2 0.3
v 0.5 0.1 0.3
v 0.5 0.2 0.3
v -0.5 0.2 0.2
v -0.5 0.3 0.2
v -0.4 0.2 0.2
v -0.4 0.3 0.2
v 0.3 0.2 0.2
v 0.3 0.3 0.2
v 0.4 0.2 0.2
v 0.4 0.3 0.2
v -0.5 0.2 -0.3
v -0.5 0.3 -0.3
v -0.4 0.2 -0.3
v -0.4 0.3 -0.3
v 0.3 0.2 -0.3
v 0.3 0.3 -0.3
v 0.4 0.2 -0.3
v 0.4 0.3 -0.3
v -0.6 0.1 -0.4
v -0.6 0.2 -0.4
v -0.5 0.1 -0.4
v -0.5 0.2 -0.4
v -0.4 0.2 -0.4
v -0.4 0.3 -0.4
v -0.3 0.2 -0.4
v -0.3 0.3 -0.4
v 0.2 0.2 -0.4
v 0.2 0.3 -0.4
v 0.3 0.2 -0.4
v 0.3 0.3 -0.4
v 0.4 0.1 -0.4
v 0.4 0.2 -0.4
v 0.5 0.1 -0.4
v 0.5 0.2 -0.4
v -0.5 0.1 -0.5
v -0.5 0.2 -0.5
v -0.4 0.1 -0.5
v -0.4 0.2 -0.5
v -0.3 0.2 -0.5
v -0.3 0.3 -0.5
v 0.2 0.2 -0.5
v 0.2 0.3 -0.5
v 0.3 0.1 -0.5
v 0.3 0.2 -0.5
v 0.4 0.1 -0.5
v 0.4 0.2 -0.5
v -0.6 0 -0.6
v -0.6 0.1 -0.6
v -0.4 0.1 -0.6
v -0.4 0.2 -0.6
v 0.3 0.1 -0.6
v 0.3 0.2 -0.6
v 0.5 0 -0.6
v 0.5 0.1 -0.6
v -0.6 0 0.5
v 0.5 0 0.5
v -0.6 0 -0.6
v 0.5 0 -0.6
v -0.6 0.1 0.5
v -0.4 0.1 0.5
v 0.3 0.1 0.5
v 0.5 0.1 0.5
v -0.5 0.1 0.4
v -0.4 0.1 0.4
v 0.3 0.1 0.4
v 0.4 0.1 0.4
v -0.6 0.1 0.3
v -0.5 0.1 0.3
v 0.4 0.1 0.3
v 0.5 0.1 0.3
v -0.6 0.1 -0.4
v -0.5 0.1 -0.4
v 0.4 0.1 -0.4
v 0.5 0.1 -0.4
v -0.5 0.1 -0.5
v -0.4 0.1 -0.5
v 0.3 0.1 -0.5
v 0.4 0.1 -0.5
v -0.6 0.1 -0.6
v -0.4 0.1 -0.6
v 0.3 0.1 -0.6
v 0.5 0.1 -0.6
v -0.4 0.2 0.5
v 0.3 0.2 0.5
v -0.5 0.2 0.4
v -0.4 0.2 0.4
v -0.3 0.2 0.4
v 0.2 0.2 0.4
v 0.3 0.2 0.4
v 0.4 0.2 0.4
v -0.6 0.2 0.3
v -0.5 0.2 0.3
v -0.4 0.2 0.3
v -0.3 0.2 0.3
v 0.2 0.2 0.3
v 0.3 0.2 0.3
v 0.4 0.2 0.3
v 0.5 0.2 0.3
v -0.5 0.2 0.2
v -0.4 0.2 0.2
v 0.3 0.2 0.2
v 0.4 0.2 0.2
v -0.5 0.2 -0.3
v -0.4 0.2 -0.3
v 0.3 0.2 -0.3
v 0.4 0.2 -0.3
v -0.6 0.2 -0.4
v -0.5 0.2 -0.4
v -0.4 0.2 -0.4
v -0.3 0.2 -0.4
v 0.2 0.2 -0.4
v 0.3 0.2 -0.4
v 0.4 0.2 -0.4
v 0.5 0.2 -0.4
v -0.5 0.2 -0.5
v -0.4 0.2 -0.5
v -0.3 0.2 -0.5
v 0.2 0.2 -0.5
v 0.3 0.2 -0.5
v 0.4 0.2 -0.5
v -0.4 0.2 -0.6
v 0.3 0.2 -0.6
v -0.3 0.3 0.4
v 0.2 0.3 0.4
v -0.4 0.3 0.3
v -0.3 0.3 0.3
v 0.2 0.3 0.3
v 0.3 0.3 0.3
v -0.5 0.3 0.2
v -0.4 0.3 0.2
v 0.3 0.3 0.2
v 0.4 0.3 0.2
v -0.2 0.3 0.1
v -0.1 0.3 0.1
v -5.96046e-08 0.3 0.1
v 0.1 0.3 0.1
v -0.2 0.3 0
v -0.1 0.3 0
v -5.96046e-08 0.3 0
v 0.1 0.3 0
v -0.2 0.3 -0.1
v -0.1 0.3 -0.1
v -5.96046e-08 0.3 -0.1
v 0.1 0.3 -0.1
v -0.2 0.3 -0.2
v -0.1 0.3 -0.2
v -5.96046e-08 0.3 -0.2
v 0.1 0.3 -0.2
v -0.5 0.3 -0.3
v -0.4 0.3 -0.3
v 0.3 0.3 -0.3
v 0.4 0.3 -0.3
v -0.4 0.3 -0.4
v -0.3 0.3 -0.4
v 0.2 0.3 -0.4
v 0.3 0.3 -0.4
v -0.3 0.3 -0.5
v 0.2 0.3 -0.5

# faces
f 3/1/1 2/1/1 1/1/1
f 4/1/1 2/1/1 3/1/1
f 5/1/1 2/1/1 4/1/1
f 6/1/1 2/1/1 5/1/1
f 7/1/1 5/1/1 4/1/1
f 8/1/1 5/1/1 7/1/1
f 13/1/1 10/1/1 9/1/1
f 14/1/1 10/1/1 13/1/1
f 17/1/1 12/1/1 11/1/1
f 18/1/1 12/1/1 17/1/1
f 19/3/1 16/3/1 15/3/1
f 20/3/1 16/3/1 19/3/1
f 25/1/1 22/1/1 21/1/1
f 26/1/1 22/1/1 25/1/1
f 31/1/1 24/1/1 23/1/1
f 32/1/1 24/1/1 31/1/1
f 33/3/1 28/3/1 27/3/1
f 34/3/1 28/3/1 33/3/1
f 35/3/1 30/3/1 29/3/1
f 36/3/1 30/3/1 35/3/1
f 41/3/1 38/3/1 37/3/1
f 42/3/1 38/3/1 41/3/1
f 43/3/1 40/3/1 39/3/1
f 44/3/1 40/3/1 43/3/1
f 45/3/2 46/3/2 49/3/2
f 49/3/2 46/3/2 50/3/2
f 47/3/2 48/3/2 51/3/2
f 51/3/2 48/3/2 52/3/2
f 53/1/2 54/1/2 57/1/2
f 57/1/2 54/1/2 58/1/2
f 55/1/2 56/1/2 63/1/2
f 63/1/2 56/1/2 64/1/2
f 59/3/2 60/3/2 65/3/2
f 65/3/2 60/3/2 66/3/2
f 61/3/2 62/3/2 67/3/2
f 67/3/2 62/3/2 68/3/2
f 69/1/2 70/1/2 73/1/2
f 73/1/2 70/1/2 74/1/2
f 71/1/2 72/1/2 77/1/2
f 77/1/2 72/1/2 78/1/2
f 75/3/2 76/3/2 79/3/2
f 79/3/2 76/3/2 80/3/2
f 81/1/2 82/1/2 83/1/2
f 83/1/2 82/1/2 84/1/2
f 84/1/2 82/1/2 85/1/2
f 85/1/2 82/1/2 86/1/2
f 84/1/2 85/1/2 87/1/2
f 87/1/2 85/1/2 88/1/2
f 91/1/3 90/1/3 89/1/3
f 93/1/3 91/1/3 89/1/3
f 93/1/3 92/1/3 91/1/3
f 94/1/3 92/1/3 93/1/3
f 95/1/3 93/1/3 89/1/3
f 96/1/3 93/1/3 95/1/3
f 99/1/3 98/1/3 97/1/3
f 100/1/3 98/1/3 99/1/3
f 103/3/3 102/3/3 101/3/3
f 104/3/3 102/3/3 103/3/3
f 107/1/3 106/1/3 105/1/3
f 108/1/3 106/1/3 107/1/3
f 111/1/3 110/1/3 109/1/3
f 112/1/3 110/1/3 111/1/3
f 115/3/3 114/3/3 113/3/3
f 116/3/3 114/3/3 115/3/3
f 119/3/3 118/3/3 117/3/3
f 120/3/3 118/3/3 119/3/3
f 123/1/3 122/1/3 121/1/3
f 124/1/3 122/1/3 123/1/3
f 127/3/3 126/3/3 125/3/3
f 128/3/3 126/3/3 127/3/3
f 131/3/3 130/3/3 129/3/3
f 132/3/3 130/3/3 131/3/3
f 133/3/4 134/3/4 135/3/4
f 135/3/4 134/3/4 136/3/4
f 137/3/4 138/3/4 139/3/4
f 139/3/4 138/3/4 140/3/4
f 141/1/4 142/1/4 143/1/4
f 143/1/4 142/1/4 144/1/4
f 145/3/4 146/3/4 147/3/4
f 147/3/4 146/3/4 148/3/4
f 149/3/4 150/3/4 151/3/4
f 151/3/4 150/3/4 152/3/4
f 153/1/4 154/1/4 155/1/4
f 155/1/4 154/1/4 156/1/4
f 157/1/4 158/1/4 159/1/4
f 159/1/4 158/1/4 160/1/4
f 161/3/4 162/3/4 163/3/4
f 163/3/4 162/3/4 164/3/4
f 165/1/4 166/1/4 167/1/4
f 167/1/4 166/1/4 168/1/4
f 169/1/4 170/1/4 171/1/4
f 169/1/4 171/1/4 173/1/4
f 171/1/4 172/1/4 173/1/4
f 173/1/4 172/1/4 174/1/4
f 169/1/4 173/1/4 175/1/4
f 175/1/4 173/1/4 176/1/4
f 179/1/5 178/1/5 177/1/5
f 180/1/5 178/1/5 179/1/5
f 181/1/6 182/1/6 185/1/6
f 185/1/6 182/1/6 186/1/6
f 183/1/6 184/1/6 187/1/6
f 187/1/6 184/1/6 188/1/6
f 181/1/6 185/1/6 189/1/6
f 189/1/6 185/1/6 190/1/6
f 188/1/6 184/1/6 191/1/6
f 191/1/6 184/1/6 192/1/6
f 193/1/6 194/1/6 197/1/6
f 195/1/6 196/1/6 200/1/6
f 197/1/6 198/1/6 201/1/6
f 193/1/6 197/1/6 201/1/6
f 201/1/6 198/1/6 202/1/6
f 199/1/6 200/1/6 203/1/6
f 200/1/6 196/1/6 204/1/6
f 203/1/6 200/1/6 204/1/6
f 205/1/6 206/1/6 208/1/6
f 208/1/6 206/1/6 209/1/6
f 209/1/6 206/1/6 210/1/6
f 210/1/6 206/1/6 211/1/6
f 207/1/6 208/1/6 214/1/6
f 208/1/6 209/1/6 214/1/6
f 214/1/6 209/1/6 215/1/6
f 215/1/6 209/1/6 216/1/6
f 210/1/6 211/1/6 217/1/6
f 211/1/6 212/1/6 217/1/6
f 217/1/6 212/1/6 218/1/6
f 218/1/6 212/1/6 219/1/6
f 214/1/6 215/1/6 221/1/6
f 213/1/6 214/1/6 221/1/6
f 221/1/6 215/1/6 222/1/6
f 219/1/6 220/1/6 223/1/6
f 218/1/6 219/1/6 223/1/6
f 223/1/6 220/1/6 224/1/6
f 213/1/6 221/1/6 225/1/6
f 224/1/6 220/1/6 228/1/6
f 225/1/6 226/1/6 229/1/6
f 213/1/6 225/1/6 229/1/6
f 229/1/6 226/1/6 230/1/6
f 230/1/6 226/1/6 231/1/6
f 227/1/6 228/1/6 234/1/6
f 228/1/6 220/1/6 235/1/6
f 234/1/6 228/1/6 235/1/6
f 235/1/6 220/1/6 236/1/6
f 231/1/6 232/1/6 237/1/6
f 230/1/6 231/1/6 237/1/6
f 237/1/6 232/1/6 238/1/6
f 238/1/6 232/1/6 239/1/6
f 233/1/6 234/1/6 240/1/6
f 234/1/6 235/1/6 240/1/6
f 240/1/6 235/1/6 241/1/6
f 241/1/6 235/1/6 242/1/6
f 238/1/6 239/1/6 243/1/6
f 240/1/6 241/1/6 243/1/6
f 239/1/6 240/1/6 243/1/6
f 243/1/6 241/1/6 244/1/6
f 245/3/6 246/3/6 248/3/6
f 248/3/6 246/3/6 249/3/6
f 247/3/6 248/3/6 252/3/6
f 249/3/6 250/3/6 252/3/6
f 248/3/6 249/3/6 252/3/6
f 252/3/6 250/3/6 253/3/6
f 251/3/6 252/3/6 255/3/6
f 253/3/6 254/3/6 255/3/6
f 252/3/6 253/3/6 255/3/6
f 255/3/6 254/3/6 256/3/6
f 256/3/6 254/3/6 257/3/6
f 257/3/6 254/3/6 258/3/6
f 251/3/6 255/3/6 259/3/6
f 255/2/6 256/2/6 259/2/6
f 256/3/6 257/3/6 260/3/6
f 259/2/6 256/2/6 260/2/6
f 257/2/6 258/2/6 261/2/6
f 260/3/6 257/3/6 261/3/6
f 258/3/6 254/3/6 262/3/6
f 261/2/6 258/2/6 262/2/6
f 259/3/6 260/3/6 263/3/6
f 251/3/6 259/3/6 263/3/6
f 260/2/6 261/2/6 264/2/6
f 263/3/6 260/3/6 264/3/6
f 261/3/6 262/3/6 265/3/6
f 264/2/6 261/2/6 265/2/6
f 262/3/6 254/3/6 266/3/6
f 265/3/6 262/3/6 266/3/6
f 251/3/6 263/3/6 267/3/6
f 263/2/6 264/2/6 267/2/6
f 264/3/6 265/3/6 268/3/6
f 267/2/6 264/2/6 268/2/6
f 265/2/6 266/2/6 269/2/6
f 268/3/6 265/3/6 269/3/6
f 266/3/6 254/3/6 270/3/6
f 269/2/6 266/2/6 270/2/6
f 268/3/6 269/3/6 271/3/6
f 251/3/6 267/3/6 271/3/6
f 269/3/6 270/3/6 271/3/6
f 267/3/6 268/3/6 271/3/6
f 271/3/6 270/3/6 272/3/6
f 270/3/6 254/3/6 273/3/6
f 272/3/6 270/3/6 273/3/6
f 273/3/6 254/3/6 274/3/6
f 272/3/6 273/3/6 275/3/6
f 275/3/6 273/3/6 276/3/6
f 276/3/6 273/3/6 277/3/6
f 277/3/6 273/3/6 278/3/6
f 276/3/6 277/3/6 279/3/6
f 279/3/6 277/3/6 280/3/6
