# MagicaVoxel @ Ephtracy

# group
o 

# material
mtllib TrapsAndBuildings4_b1-0.mtl
usemtl palette

# normals
vn -1 0 0
vn 1 0 0
vn 0 0 1
vn 0 0 -1
vn 0 -1 0
vn 0 1 0

# texcoords
vt 0.537109 0.5
vt 0.962891 0.5
vt 0.982422 0.5

# verts
v -0.6 0 0.5
v -0.6 0 -0.6
v -0.6 0.1 0.5
v -0.6 0.1 0.3
v -0.6 0.1 -0.4
v -0.6 0.1 -0.6
v -0.6 0.2 0.3
v -0.6 0.2 -0.4
v -0.5 0.1 0.4
v -0.5 0.1 0.3
v -0.5 0.1 -0.4
v -0.5 0.1 -0.5
v -0.5 0.2 0.4
v -0.5 0.2 0.3
v -0.5 0.2 0.2
v -0.5 0.2 -0.3
v -0.5 0.2 -0.4
v -0.5 0.2 -0.5
v -0.5 0.3 0.2
v -0.5 0.3 -0.3
v -0.4 0.1 0.5
v -0.4 0.1 0.4
v -0.4 0.1 -0.5
v -0.4 0.1 -0.6
v -0.4 0.2 0.5
v -0.4 0.2 0.4
v -0.4 0.2 0.3
v -0.4 0.2 0.2
v -0.4 0.2 -0.3
v -0.4 0.2 -0.4
v -0.4 0.2 -0.5
v -0.4 0.2 -0.6
v -0.4 0.3 0.3
v -0.4 0.3 0.2
v -0.4 0.3 -0.3
v -0.4 0.3 -0.4
v -0.3 0.2 0.4
v -0.3 0.2 0.3
v -0.3 0.2 -0.4
v -0.3 0.2 -0.5
v -0.3 0.3 0.4
v -0.3 0.3 0.3
v -0.3 0.3 -0.4
v -0.3 0.3 -0.5
v 0.2 0.2 0.4
v 0.2 0.2 0.3
v 0.2 0.2 -0.4
v 0.2 0.2 -0.5
v 0.2 0.3 0.4
v 0.2 0.3 0.3
v 0.2 0.3 -0.4
v 0.2 0.3 -0.5
v 0.3 0.1 -0.5
v 0.3 0.1 -0.6
v 0.3 0.2 0.3
v 0.3 0.2 0.2
v 0.3 0.2 -0.3
v 0.3 0.2 -0.4
v 0.3 0.2 -0.5
v 0.3 0.2 -0.6
v 0.3 0.3 0.3
v 0.3 0.3 0.2
v 0.3 0.3 -0.3
v 0.3 0.3 -0.4
v 0.4 0.1 0.5
v 0.4 0.1 0.3
v 0.4 0.1 -0.4
v 0.4 0.1 -0.5
v 0.4 0.2 0.5
v 0.4 0.2 0.3
v 0.4 0.2 0.2
v 0.4 0.2 -0.3
v 0.4 0.2 -0.4
v 0.4 0.2 -0.5
v 0.4 0.3 0.2
v 0.4 0.3 -0.3
v 0.5 0 0.5
v 0.5 0 -0.6
v 0.5 0.1 0.5
v 0.5 0.1 0.3
v 0.5 0.1 -0.4
v 0.5 0.1 -0.6
v 0.5 0.2 0.3
v 0.5 0.2 -0.4
v -0.6 0 0.5
v -0.6 0.1 0.5
v -0.4 0.1 0.5
v -0.4 0.2 0.5
v 0.4 0.1 0.5
v 0.4 0.2 0.5
v 0.5 0 0.5
v 0.5 0.1 0.5
v -0.5 0.1 0.4
v -0.5 0.2 0.4
v -0.4 0.1 0.4
v -0.4 0.2 0.4
v -0.3 0.2 0.4
v -0.3 0.3 0.4
v 0.2 0.2 0.4
v 0.2 0.3 0.4
v -0.6 0.1 0.3
v -0.6 0.2 0.3
v -0.5 0.1 0.3
v -0.5 0.2 0.3
v -0.4 0.2 0.3
v -0.4 0.3 0.3
v -0.3 0.2 0.3
v -0.3 0.3 0.3
v 0.2 0.2 0.3
v 0.2 0.3 0.3
v 0.3 0.2 0.3
v 0.3 0.3 0.3
v 0.4 0.1 0.3
v 0.4 0.2 0.3
v 0.5 0.1 0.3
v 0.5 0.2 0.3
v -0.5 0.2 0.2
v -0.5 0.3 0.2
v -0.4 0.2 0.2
v -0.4 0.3 0.2
v 0.3 0.2 0.2
v 0.3 0.3 0.2
v 0.4 0.2 0.2
v 0.4 0.3 0.2
v -0.5 0.2 -0.3
v -0.5 0.3 -0.3
v -0.4 0.2 -0.3
v -0.4 0.3 -0.3
v 0.3 0.2 -0.3
v 0.3 0.3 -0.3
v 0.4 0.2 -0.3
v 0.4 0.3 -0.3
v -0.6 0.1 -0.4
v -0.6 0.2 -0.4
v -0.5 0.1 -0.4
v -0.5 0.2 -0.4
v -0.4 0.2 -0.4
v -0.4 0.3 -0.4
v -0.3 0.2 -0.4
v -0.3 0.3 -0.4
v 0.2 0.2 -0.4
v 0.2 0.3 -0.4
v 0.3 0.2 -0.4
v 0.3 0.3 -0.4
v 0.4 0.1 -0.4
v 0.4 0.2 -0.4
v 0.5 0.1 -0.4
v 0.5 0.2 -0.4
v -0.5 0.1 -0.5
v -0.5 0.2 -0.5
v -0.4 0.1 -0.5
v -0.4 0.2 -0.5
v -0.3 0.2 -0.5
v -0.3 0.3 -0.5
v 0.2 0.2 -0.5
v 0.2 0.3 -0.5
v 0.3 0.1 -0.5
v 0.3 0.2 -0.5
v 0.4 0.1 -0.5
v 0.4 0.2 -0.5
v -0.6 0 -0.6
v -0.6 0.1 -0.6
v -0.4 0.1 -0.6
v -0.4 0.2 -0.6
v 0.3 0.1 -0.6
v 0.3 0.2 -0.6
v 0.5 0 -0.6
v 0.5 0.1 -0.6
v -0.6 0 0.5
v 0.5 0 0.5
v -0.6 0 -0.6
v 0.5 0 -0.6
v -0.6 0.1 0.5
v -0.4 0.1 0.5
v 0.4 0.1 0.5
v 0.5 0.1 0.5
v -0.5 0.1 0.4
v -0.4 0.1 0.4
v -0.6 0.1 0.3
v -0.5 0.1 0.3
v 0.4 0.1 0.3
v 0.5 0.1 0.3
v -0.6 0.1 -0.4
v -0.5 0.1 -0.4
v 0.4 0.1 -0.4
v 0.5 0.1 -0.4
v -0.5 0.1 -0.5
v -0.4 0.1 -0.5
v 0.3 0.1 -0.5
v 0.4 0.1 -0.5
v -0.6 0.1 -0.6
v -0.4 0.1 -0.6
v 0.3 0.1 -0.6
v 0.5 0.1 -0.6
v -0.4 0.2 0.5
v 0.4 0.2 0.5
v -0.5 0.2 0.4
v -0.4 0.2 0.4
v -0.3 0.2 0.4
v 0.2 0.2 0.4
v -0.6 0.2 0.3
v -0.5 0.2 0.3
v -0.4 0.2 0.3
v -0.3 0.2 0.3
v 0.2 0.2 0.3
v 0.3 0.2 0.3
v 0.4 0.2 0.3
v 0.5 0.2 0.3
v -0.5 0.2 0.2
v -0.4 0.2 0.2
v 0.3 0.2 0.2
v 0.4 0.2 0.2
v -0.5 0.2 -0.3
v -0.4 0.2 -0.3
v 0.3 0.2 -0.3
v 0.4 0.2 -0.3
v -0.6 0.2 -0.4
v -0.5 0.2 -0.4
v -0.4 0.2 -0.4
v -0.3 0.2 -0.4
v 0.2 0.2 -0.4
v 0.3 0.2 -0.4
v 0.4 0.2 -0.4
v 0.5 0.2 -0.4
v -0.5 0.2 -0.5
v -0.4 0.2 -0.5
v -0.3 0.2 -0.5
v 0.2 0.2 -0.5
v 0.3 0.2 -0.5
v 0.4 0.2 -0.5
v -0.4 0.2 -0.6
v 0.3 0.2 -0.6
v -0.3 0.3 0.4
v 0.2 0.3 0.4
v -0.4 0.3 0.3
v -0.3 0.3 0.3
v 0.2 0.3 0.3
v 0.3 0.3 0.3
v -0.5 0.3 0.2
v -0.4 0.3 0.2
v 0.3 0.3 0.2
v 0.4 0.3 0.2
v -0.2 0.3 0.1
v 0.1 0.3 0.1
v -0.1 0.3 0
v -5.96046e-08 0.3 0
v -0.1 0.3 -0.1
v -5.96046e-08 0.3 -0.1
v -0.2 0.3 -0.2
v 0.1 0.3 -0.2
v -0.5 0.3 -0.3
v -0.4 0.3 -0.3
v 0.3 0.3 -0.3
v 0.4 0.3 -0.3
v -0.4 0.3 -0.4
v -0.3 0.3 -0.4
v 0.2 0.3 -0.4
v 0.3 0.3 -0.4
v -0.3 0.3 -0.5
v 0.2 0.3 -0.5

# faces
f 3/1/1 2/1/1 1/1/1
f 4/1/1 2/1/1 3/1/1
f 5/1/1 2/1/1 4/1/1
f 6/1/1 2/1/1 5/1/1
f 7/1/1 5/1/1 4/1/1
f 8/1/1 5/1/1 7/1/1
f 13/1/1 10/1/1 9/1/1
f 14/1/1 10/1/1 13/1/1
f 17/1/1 12/1/1 11/1/1
f 18/1/1 12/1/1 17/1/1
f 19/3/1 16/3/1 15/3/1
f 20/3/1 16/3/1 19/3/1
f 25/1/1 22/1/1 21/1/1
f 26/1/1 22/1/1 25/1/1
f 31/1/1 24/1/1 23/1/1
f 32/1/1 24/1/1 31/1/1
f 33/3/1 28/3/1 27/3/1
f 34/3/1 28/3/1 33/3/1
f 35/3/1 30/3/1 29/3/1
f 36/3/1 30/3/1 35/3/1
f 41/3/1 38/3/1 37/3/1
f 42/3/1 38/3/1 41/3/1
f 43/3/1 40/3/1 39/3/1
f 44/3/1 40/3/1 43/3/1
f 45/3/2 46/3/2 49/3/2
f 49/3/2 46/3/2 50/3/2
f 47/3/2 48/3/2 51/3/2
f 51/3/2 48/3/2 52/3/2
f 53/1/2 54/1/2 59/1/2
f 59/1/2 54/1/2 60/1/2
f 55/3/2 56/3/2 61/3/2
f 61/3/2 56/3/2 62/3/2
f 57/3/2 58/3/2 63/3/2
f 63/3/2 58/3/2 64/3/2
f 65/1/2 66/1/2 69/1/2
f 69/1/2 66/1/2 70/1/2
f 67/1/2 68/1/2 73/1/2
f 73/1/2 68/1/2 74/1/2
f 71/3/2 72/3/2 75/3/2
f 75/3/2 72/3/2 76/3/2
f 77/1/2 78/1/2 79/1/2
f 79/1/2 78/1/2 80/1/2
f 80/1/2 78/1/2 81/1/2
f 81/1/2 78/1/2 82/1/2
f 80/1/2 81/1/2 83/1/2
f 83/1/2 81/1/2 84/1/2
f 87/1/3 86/1/3 85/1/3
f 89/1/3 87/1/3 85/1/3
f 89/1/3 88/1/3 87/1/3
f 90/1/3 88/1/3 89/1/3
f 91/1/3 89/1/3 85/1/3
f 92/1/3 89/1/3 91/1/3
f 95/1/3 94/1/3 93/1/3
f 96/1/3 94/1/3 95/1/3
f 99/3/3 98/3/3 97/3/3
f 100/3/3 98/3/3 99/3/3
f 103/1/3 102/1/3 101/1/3
f 104/1/3 102/1/3 103/1/3
f 107/3/3 106/3/3 105/3/3
f 108/3/3 106/3/3 107/3/3
f 111/3/3 110/3/3 109/3/3
f 112/3/3 110/3/3 111/3/3
f 115/1/3 114/1/3 113/1/3
f 116/1/3 114/1/3 115/1/3
f 119/3/3 118/3/3 117/3/3
f 120/3/3 118/3/3 119/3/3
f 123/3/3 122/3/3 121/3/3
f 124/3/3 122/3/3 123/3/3
f 125/3/4 126/3/4 127/3/4
f 127/3/4 126/3/4 128/3/4
f 129/3/4 130/3/4 131/3/4
f 131/3/4 130/3/4 132/3/4
f 133/1/4 134/1/4 135/1/4
f 135/1/4 134/1/4 136/1/4
f 137/3/4 138/3/4 139/3/4
f 139/3/4 138/3/4 140/3/4
f 141/3/4 142/3/4 143/3/4
f 143/3/4 142/3/4 144/3/4
f 145/1/4 146/1/4 147/1/4
f 147/1/4 146/1/4 148/1/4
f 149/1/4 150/1/4 151/1/4
f 151/1/4 150/1/4 152/1/4
f 153/3/4 154/3/4 155/3/4
f 155/3/4 154/3/4 156/3/4
f 157/1/4 158/1/4 159/1/4
f 159/1/4 158/1/4 160/1/4
f 161/1/4 162/1/4 163/1/4
f 161/1/4 163/1/4 165/1/4
f 163/1/4 164/1/4 165/1/4
f 165/1/4 164/1/4 166/1/4
f 161/1/4 165/1/4 167/1/4
f 167/1/4 165/1/4 168/1/4
f 171/1/5 170/1/5 169/1/5
f 172/1/5 170/1/5 171/1/5
f 173/1/6 174/1/6 177/1/6
f 177/1/6 174/1/6 178/1/6
f 173/1/6 177/1/6 179/1/6
f 179/1/6 177/1/6 180/1/6
f 175/1/6 176/1/6 181/1/6
f 181/1/6 176/1/6 182/1/6
f 183/1/6 184/1/6 187/1/6
f 185/1/6 186/1/6 190/1/6
f 187/1/6 188/1/6 191/1/6
f 183/1/6 187/1/6 191/1/6
f 191/1/6 188/1/6 192/1/6
f 189/1/6 190/1/6 193/1/6
f 190/1/6 186/1/6 194/1/6
f 193/1/6 190/1/6 194/1/6
f 195/1/6 196/1/6 198/1/6
f 198/1/6 196/1/6 199/1/6
f 199/1/6 196/1/6 200/1/6
f 197/1/6 198/1/6 202/1/6
f 198/1/6 199/1/6 202/1/6
f 202/1/6 199/1/6 203/1/6
f 203/1/6 199/1/6 204/1/6
f 200/1/6 196/1/6 205/1/6
f 205/1/6 196/1/6 206/1/6
f 206/1/6 196/1/6 207/1/6
f 201/1/6 202/1/6 209/1/6
f 202/1/6 203/1/6 209/1/6
f 209/1/6 203/1/6 210/1/6
f 207/1/6 208/1/6 211/1/6
f 206/1/6 207/1/6 211/1/6
f 211/1/6 208/1/6 212/1/6
f 201/1/6 209/1/6 213/1/6
f 212/1/6 208/1/6 216/1/6
f 213/1/6 214/1/6 217/1/6
f 201/1/6 213/1/6 217/1/6
f 217/1/6 214/1/6 218/1/6
f 218/1/6 214/1/6 219/1/6
f 215/1/6 216/1/6 222/1/6
f 216/1/6 208/1/6 223/1/6
f 222/1/6 216/1/6 223/1/6
f 223/1/6 208/1/6 224/1/6
f 219/1/6 220/1/6 225/1/6
f 218/1/6 219/1/6 225/1/6
f 225/1/6 220/1/6 226/1/6
f 226/1/6 220/1/6 227/1/6
f 221/1/6 222/1/6 228/1/6
f 222/1/6 223/1/6 228/1/6
f 228/1/6 223/1/6 229/1/6
f 229/1/6 223/1/6 230/1/6
f 226/1/6 227/1/6 231/1/6
f 228/1/6 229/1/6 231/1/6
f 227/1/6 228/1/6 231/1/6
f 231/1/6 229/1/6 232/1/6
f 233/3/6 234/3/6 236/3/6
f 236/3/6 234/3/6 237/3/6
f 235/3/6 236/3/6 240/3/6
f 237/3/6 238/3/6 240/3/6
f 236/3/6 237/3/6 240/3/6
f 240/3/6 238/3/6 241/3/6
f 239/3/6 240/3/6 243/3/6
f 241/3/6 242/3/6 243/3/6
f 240/3/6 241/3/6 243/3/6
f 243/3/6 242/3/6 244/3/6
f 243/2/6 244/2/6 245/2/6
f 245/2/6 244/2/6 246/2/6
f 243/2/6 245/2/6 247/2/6
f 245/3/6 246/3/6 247/3/6
f 246/2/6 244/2/6 248/2/6
f 247/3/6 246/3/6 248/3/6
f 239/3/6 243/3/6 249/3/6
f 243/2/6 247/2/6 249/2/6
f 247/2/6 248/2/6 249/2/6
f 248/2/6 244/2/6 250/2/6
f 249/2/6 248/2/6 250/2/6
f 244/3/6 242/3/6 250/3/6
f 239/3/6 249/3/6 251/3/6
f 249/3/6 250/3/6 251/3/6
f 251/3/6 250/3/6 252/3/6
f 250/3/6 242/3/6 253/3/6
f 252/3/6 250/3/6 253/3/6
f 253/3/6 242/3/6 254/3/6
f 252/3/6 253/3/6 255/3/6
f 255/3/6 253/3/6 256/3/6
f 256/3/6 253/3/6 257/3/6
f 257/3/6 253/3/6 258/3/6
f 256/3/6 257/3/6 259/3/6
f 259/3/6 257/3/6 260/3/6
