# MagicaVoxel @ Ephtracy

# group
o 

# material
mtllib TrapsAndBuildingsPlus-0.mtl
usemtl palette

# normals
vn -1 0 0
vn 1 0 0
vn 0 0 1
vn 0 0 -1
vn 0 -1 0
vn 0 1 0

# texcoords
vt 0.900391 0.5
vt 0.904297 0.5
vt 0.978516 0.5
vt 0.986328 0.5

# verts
v -0.3 0 -0.1
v -0.3 0 -0.3
v -0.3 0.1 -0.1
v -0.3 0.1 -0.2
v -0.3 0.2 -0.2
v -0.3 0.2 -0.3
v -0.2 0 0.2
v -0.2 0 -0.1
v -0.2 0.1 -0.1
v -0.2 0.1 -0.2
v -0.2 0.2 0.3
v -0.2 0.2 0.2
v -0.2 0.2 0.1
v -0.2 0.2 0
v -0.2 0.2 -0.2
v -0.2 0.3 0.2
v -0.2 0.3 0.1
v -0.2 0.3 0
v -0.2 0.3 -0.1
v -0.2 0.4 0.2
v -0.2 0.4 0.1
v -0.2 0.4 0
v -0.2 0.4 -0.1
v -0.2 0.5 0.3
v -0.2 0.5 0.2
v -0.2 0.5 0.1
v -0.2 0.5 0
v -0.2 0.5 -0.1
v -0.2 0.5 -0.2
v -0.2 0.6 0.2
v -0.2 0.6 -0.1
v -0.1 0 0.3
v -0.1 0 0.2
v -0.1 0 -0.3
v -0.1 0 -0.4
v -0.1 0.2 0.3
v -0.1 0.2 0.2
v -0.1 0.2 -0.2
v -0.1 0.2 -0.3
v -0.1 0.3 -0.2
v -0.1 0.3 -0.4
v -0.1 0.5 -0.1
v -0.1 0.5 -0.2
v -0.1 0.6 -0.1
v -0.1 0.6 -0.2
v 0 0.3 -0.2
v 0 0.3 -0.3
v 0 0.3 -0.4
v 0 0.4 -0.2
v 0 0.4 -0.3
v 0 0.4 -0.4
v 0 0.6 0.1
v 0 0.6 -0.1
v 0 0.7 0.1
v 0 0.7 -0.1
v 0.1 0.4 -0.2
v 0.1 0.4 -0.3
v 0.1 0.5 -0.2
v 0.1 0.5 -0.3
v -0.1 0.4 0.3
v -0.1 0.4 0.2
v -0.1 0.5 0.3
v -0.1 0.5 0.2
v 0 0.3 0.3
v 0 0.3 0.2
v 0 0.4 0.3
v 0 0.4 0.2
v 0.1 0.2 0.3
v 0.1 0.2 0.2
v 0.1 0.3 0.3
v 0.1 0.3 0.2
v 0.1 0.4 0.2
v 0.1 0.4 0.1
v 0.1 0.5 -0.1
v 0.1 0.5 -0.2
v 0.1 0.6 0.2
v 0.1 0.6 0.1
v 0.1 0.6 -0.1
v 0.1 0.6 -0.2
v 0.2 0.2 0.2
v 0.2 0.2 0.1
v 0.2 0.2 0
v 0.2 0.3 0
v 0.2 0.3 -0.1
v 0.2 0.4 0.2
v 0.2 0.4 0.1
v 0.2 0.4 -0.1
v 0.2 0.5 -0.1
v 0.2 0.7 0.1
v 0.2 0.7 -0.1
v 0.3 0 0.3
v 0.3 0 -0.4
v 0.3 0.2 0.3
v 0.3 0.2 0
v 0.3 0.3 0
v 0.3 0.3 -0.1
v 0.3 0.3 -0.3
v 0.3 0.3 -0.4
v 0.3 0.4 -0.1
v 0.3 0.4 -0.3
v 0.3 0.4 -0.4
v 0.3 0.5 -0.1
v 0.3 0.5 -0.3
v -0.2 0.2 0.3
v -0.2 0.5 0.3
v -0.1 0 0.3
v -0.1 0.2 0.3
v -0.1 0.3 0.3
v -0.1 0.4 0.3
v -0.1 0.5 0.3
v 0 0.2 0.3
v 0 0.3 0.3
v 0 0.4 0.3
v 0.1 0 0.3
v 0.1 0.2 0.3
v 0.1 0.3 0.3
v 0.2 0 0.3
v 0.2 0.2 0.3
v 0.3 0 0.3
v 0.3 0.2 0.3
v -0.2 0 0.2
v -0.2 0.2 0.2
v -0.2 0.5 0.2
v -0.2 0.6 0.2
v -0.1 0 0.2
v -0.1 0.2 0.2
v -0.1 0.4 0.2
v -0.1 0.5 0.2
v -0.1 0.6 0.2
v 0 0.3 0.2
v 0 0.4 0.2
v 0 0.6 0.2
v 0.1 0.2 0.2
v 0.1 0.3 0.2
v 0.1 0.4 0.2
v 0.1 0.6 0.2
v 0.2 0.2 0.2
v 0.2 0.4 0.2
v 0 0.6 0.1
v 0 0.7 0.1
v 0.1 0.4 0.1
v 0.1 0.6 0.1
v 0.1 0.7 0.1
v 0.2 0.4 0.1
v 0.2 0.7 0.1
v 0.2 0.2 0
v 0.2 0.3 0
v 0.3 0.2 0
v 0.3 0.3 0
v -0.3 0 -0.1
v -0.3 0.1 -0.1
v -0.2 0 -0.1
v -0.2 0.1 -0.1
v 0.2 0.3 -0.1
v 0.2 0.4 -0.1
v 0.2 0.5 -0.1
v 0.3 0.3 -0.1
v 0.3 0.4 -0.1
v 0.3 0.5 -0.1
v -0.3 0.1 -0.2
v -0.3 0.2 -0.2
v -0.2 0.1 -0.2
v -0.2 0.2 -0.2
v -0.2 0.5 -0.1
v -0.2 0.6 -0.1
v -0.1 0.5 -0.1
v -0.1 0.6 -0.1
v 0 0.6 -0.1
v 0 0.7 -0.1
v 0.1 0.5 -0.1
v 0.1 0.6 -0.1
v 0.1 0.7 -0.1
v 0.2 0.5 -0.1
v 0.2 0.7 -0.1
v -0.2 0.2 -0.2
v -0.2 0.5 -0.2
v -0.1 0.2 -0.2
v -0.1 0.3 -0.2
v -0.1 0.5 -0.2
v -0.1 0.6 -0.2
v 0 0.3 -0.2
v 0 0.4 -0.2
v 0 0.5 -0.2
v 0.1 0.4 -0.2
v 0.1 0.5 -0.2
v 0.1 0.6 -0.2
v -0.3 0 -0.3
v -0.3 0.2 -0.3
v -0.1 0 -0.3
v -0.1 0.2 -0.3
v 0.1 0.4 -0.3
v 0.1 0.5 -0.3
v 0.2 0.4 -0.3
v 0.2 0.5 -0.3
v 0.3 0.4 -0.3
v 0.3 0.5 -0.3
v -0.1 0 -0.4
v -0.1 0.3 -0.4
v 0 0.3 -0.4
v 0 0.4 -0.4
v 0.1 0.3 -0.4
v 0.1 0.4 -0.4
v 0.3 0 -0.4
v 0.3 0.3 -0.4
v 0.3 0.4 -0.4
v -0.1 0 0.3
v 0.1 0 0.3
v 0.2 0 0.3
v 0.3 0 0.3
v -0.2 0 0.2
v -0.1 0 0.2
v 0.1 0 0.2
v 0.2 0 0.2
v -0.3 0 -0.1
v -0.2 0 -0.1
v -0.3 0 -0.3
v -0.1 0 -0.3
v -0.1 0 -0.4
v 0.3 0 -0.4
v -0.2 0.2 0.3
v -0.1 0.2 0.3
v -0.2 0.2 0.2
v -0.1 0.2 0.2
v -0.3 0.1 -0.1
v -0.2 0.1 -0.1
v -0.3 0.1 -0.2
v -0.2 0.1 -0.2
v 0.1 0.2 0.3
v 0.2 0.2 0.3
v 0.3 0.2 0.3
v 0.1 0.2 0.2
v 0.2 0.2 0.2
v 0.2 0.2 0.1
v 0.2 0.2 0
v 0.3 0.2 0
v -0.3 0.2 -0.2
v -0.2 0.2 -0.2
v -0.1 0.2 -0.2
v -0.3 0.2 -0.3
v -0.1 0.2 -0.3
v 0 0.3 0.3
v 0.1 0.3 0.3
v 0 0.3 0.2
v 0.1 0.3 0.2
v 0.2 0.3 0
v 0.3 0.3 0
v 0.2 0.3 -0.1
v 0.3 0.3 -0.1
v -0.1 0.3 -0.2
v 0 0.3 -0.2
v 0 0.3 -0.3
v -0.1 0.3 -0.4
v 0 0.3 -0.4
v -0.1 0.4 0.3
v 0 0.4 0.3
v -0.1 0.4 0.2
v 0 0.4 0.2
v 0.1 0.4 0.2
v 0.2 0.4 0.2
v 0.1 0.4 0.1
v 0.2 0.4 0.1
v 0 0.4 -0.2
v 0.1 0.4 -0.2
v 0 0.4 -0.3
v 0.1 0.4 -0.3
v 0.2 0.4 -0.3
v 0.3 0.4 -0.3
v 0 0.4 -0.4
v 0.1 0.4 -0.4
v 0.3 0.4 -0.4
v -0.2 0.5 0.3
v -0.1 0.5 0.3
v -0.2 0.5 0.2
v -0.1 0.5 0.2
v -0.2 0.5 -0.1
v -0.1 0.5 -0.1
v 0.1 0.5 -0.1
v 0.2 0.5 -0.1
v 0.3 0.5 -0.1
v -0.2 0.5 -0.2
v -0.1 0.5 -0.2
v 0.1 0.5 -0.2
v 0.2 0.5 -0.2
v 0.1 0.5 -0.3
v 0.2 0.5 -0.3
v 0.3 0.5 -0.3
v -0.2 0.6 0.2
v -0.1 0.6 0.2
v 0 0.6 0.2
v 0.1 0.6 0.2
v -0.1 0.6 0.1
v 0 0.6 0.1
v 0.1 0.6 0.1
v -0.2 0.6 -0.1
v -0.1 0.6 -0.1
v 0 0.6 -0.1
v 0.1 0.6 -0.1
v -0.1 0.6 -0.2
v 0.1 0.6 -0.2
v 0 0.7 0.1
v 0.1 0.7 0.1
v 0.2 0.7 0.1
v 0 0.7 -0.1
v 0.1 0.7 -0.1
v 0.2 0.7 -0.1

# faces
f 3/3/1 2/3/1 1/3/1
f 4/3/1 2/3/1 3/3/1
f 5/3/1 2/3/1 4/3/1
f 6/3/1 2/3/1 5/3/1
f 9/3/1 8/3/1 7/3/1
f 12/3/1 9/3/1 7/3/1
f 12/3/1 10/3/1 9/3/1
f 13/3/1 10/3/1 12/3/1
f 14/3/1 10/3/1 13/3/1
f 15/3/1 10/3/1 14/3/1
f 16/3/1 12/3/1 11/3/1
f 16/3/1 13/3/1 12/3/1
f 17/4/1 14/4/1 13/4/1
f 17/3/1 13/3/1 16/3/1
f 18/3/1 15/3/1 14/3/1
f 18/4/1 14/4/1 17/4/1
f 19/3/1 15/3/1 18/3/1
f 20/4/1 17/4/1 16/4/1
f 20/3/1 16/3/1 11/3/1
f 20/4/1 19/4/1 18/4/1
f 20/4/1 18/4/1 17/4/1
f 21/4/1 19/4/1 20/4/1
f 22/4/1 19/4/1 21/4/1
f 23/3/1 15/3/1 19/3/1
f 23/4/1 19/4/1 22/4/1
f 24/3/1 20/3/1 11/3/1
f 24/3/1 21/3/1 20/3/1
f 25/3/1 21/3/1 24/3/1
f 26/4/1 22/4/1 21/4/1
f 26/3/1 21/3/1 25/3/1
f 27/3/1 23/3/1 22/3/1
f 27/4/1 22/4/1 26/4/1
f 28/3/1 15/3/1 23/3/1
f 28/3/1 23/3/1 27/3/1
f 29/3/1 15/3/1 28/3/1
f 30/3/1 27/3/1 26/3/1
f 30/3/1 28/3/1 27/3/1
f 30/3/1 26/3/1 25/3/1
f 31/3/1 28/3/1 30/3/1
f 36/3/1 33/3/1 32/3/1
f 37/3/1 33/3/1 36/3/1
f 39/3/1 35/3/1 34/3/1
f 40/3/1 39/3/1 38/3/1
f 41/3/1 35/3/1 39/3/1
f 41/3/1 39/3/1 40/3/1
f 44/2/1 43/2/1 42/2/1
f 45/2/1 43/2/1 44/2/1
f 49/2/1 47/2/1 46/2/1
f 50/3/1 48/3/1 47/3/1
f 50/2/1 47/2/1 49/2/1
f 51/3/1 48/3/1 50/3/1
f 54/2/1 53/2/1 52/2/1
f 55/2/1 53/2/1 54/2/1
f 58/2/1 57/2/1 56/2/1
f 59/2/1 57/2/1 58/2/1
f 60/3/2 61/3/2 62/3/2
f 62/3/2 61/3/2 63/3/2
f 64/1/2 65/1/2 66/1/2
f 66/1/2 65/1/2 67/1/2
f 68/1/2 69/1/2 70/1/2
f 70/1/2 69/1/2 71/1/2
f 72/2/2 73/2/2 76/2/2
f 76/2/2 73/2/2 77/2/2
f 74/2/2 75/2/2 78/2/2
f 78/2/2 75/2/2 79/2/2
f 81/3/2 82/3/2 83/3/2
f 80/2/2 81/2/2 85/2/2
f 83/3/2 84/3/2 86/3/2
f 85/2/2 81/2/2 86/2/2
f 81/3/2 83/3/2 86/3/2
f 86/3/2 84/3/2 87/3/2
f 86/3/2 87/3/2 88/3/2
f 86/3/2 88/3/2 89/3/2
f 89/3/2 88/3/2 90/3/2
f 91/3/2 92/3/2 93/3/2
f 93/3/2 92/3/2 94/3/2
f 94/3/2 92/3/2 95/3/2
f 95/3/2 92/3/2 96/3/2
f 96/3/2 92/3/2 97/3/2
f 97/3/2 92/3/2 98/3/2
f 96/3/2 97/3/2 99/3/2
f 97/1/2 98/1/2 100/1/2
f 99/3/2 97/3/2 100/3/2
f 100/1/2 98/1/2 101/1/2
f 99/1/2 100/1/2 102/1/2
f 102/1/2 100/1/2 103/1/2
f 107/3/3 105/3/3 104/3/3
f 108/3/3 105/3/3 107/3/3
f 109/3/3 105/3/3 108/3/3
f 110/3/3 105/3/3 109/3/3
f 111/3/3 107/3/3 106/3/3
f 111/3/3 108/3/3 107/3/3
f 112/1/3 109/1/3 108/1/3
f 112/3/3 108/3/3 111/3/3
f 113/1/3 109/1/3 112/1/3
f 114/3/3 111/3/3 106/3/3
f 115/1/3 112/1/3 111/1/3
f 115/3/3 111/3/3 114/3/3
f 116/1/3 112/1/3 115/1/3
f 117/2/3 115/2/3 114/2/3
f 118/2/3 115/2/3 117/2/3
f 119/3/3 118/3/3 117/3/3
f 120/3/3 118/3/3 119/3/3
f 125/3/3 122/3/3 121/3/3
f 126/3/3 122/3/3 125/3/3
f 128/3/3 124/3/3 123/3/3
f 129/3/3 124/3/3 128/3/3
f 131/1/3 128/1/3 127/1/3
f 131/1/3 129/1/3 128/1/3
f 132/1/3 129/1/3 131/1/3
f 134/2/3 131/2/3 130/2/3
f 134/2/3 132/2/3 131/2/3
f 135/2/3 132/2/3 134/2/3
f 136/2/3 132/2/3 135/2/3
f 137/2/3 134/2/3 133/2/3
f 137/2/3 135/2/3 134/2/3
f 138/2/3 135/2/3 137/2/3
f 142/2/3 140/2/3 139/2/3
f 143/2/3 140/2/3 142/2/3
f 144/3/3 142/3/3 141/3/3
f 144/3/3 143/3/3 142/3/3
f 145/3/3 143/3/3 144/3/3
f 148/3/3 147/3/3 146/3/3
f 149/3/3 147/3/3 148/3/3
f 152/3/3 151/3/3 150/3/3
f 153/3/3 151/3/3 152/3/3
f 157/3/3 155/3/3 154/3/3
f 158/1/3 156/1/3 155/1/3
f 158/3/3 155/3/3 157/3/3
f 159/1/3 156/1/3 158/1/3
f 162/3/3 161/3/3 160/3/3
f 163/3/3 161/3/3 162/3/3
f 164/3/4 165/3/4 166/3/4
f 166/3/4 165/3/4 167/3/4
f 168/2/4 169/2/4 171/2/4
f 171/2/4 169/2/4 172/2/4
f 170/3/4 171/3/4 173/3/4
f 171/3/4 172/3/4 173/3/4
f 173/3/4 172/3/4 174/3/4
f 175/3/4 176/3/4 177/3/4
f 177/3/4 176/3/4 178/3/4
f 178/3/4 176/3/4 179/3/4
f 178/3/4 179/3/4 181/3/4
f 181/3/4 179/3/4 182/3/4
f 179/2/4 180/2/4 183/2/4
f 182/3/4 179/3/4 183/3/4
f 182/2/4 183/2/4 184/2/4
f 183/2/4 180/2/4 185/2/4
f 184/2/4 183/2/4 185/2/4
f 185/2/4 180/2/4 186/2/4
f 187/3/4 188/3/4 189/3/4
f 189/3/4 188/3/4 190/3/4
f 191/2/4 192/2/4 193/2/4
f 193/2/4 192/2/4 194/2/4
f 193/1/4 194/1/4 195/1/4
f 195/1/4 194/1/4 196/1/4
f 197/3/4 198/3/4 199/3/4
f 197/3/4 199/3/4 201/3/4
f 199/3/4 200/3/4 201/3/4
f 201/3/4 200/3/4 202/3/4
f 197/3/4 201/3/4 203/3/4
f 201/1/4 202/1/4 204/1/4
f 203/3/4 201/3/4 204/3/4
f 204/1/4 202/1/4 205/1/4
f 211/3/5 207/3/5 206/3/5
f 212/2/5 208/2/5 207/2/5
f 212/3/5 207/3/5 211/3/5
f 213/3/5 209/3/5 208/3/5
f 213/2/5 208/2/5 212/2/5
f 215/3/5 212/3/5 211/3/5
f 215/3/5 211/3/5 210/3/5
f 215/3/5 213/3/5 212/3/5
f 216/3/5 215/3/5 214/3/5
f 217/3/5 213/3/5 215/3/5
f 217/3/5 215/3/5 216/3/5
f 218/3/5 213/3/5 217/3/5
f 219/3/5 209/3/5 213/3/5
f 219/3/5 213/3/5 218/3/5
f 222/3/5 221/3/5 220/3/5
f 223/3/5 221/3/5 222/3/5
f 224/3/6 225/3/6 226/3/6
f 226/3/6 225/3/6 227/3/6
f 228/2/6 229/2/6 231/2/6
f 229/3/6 230/3/6 232/3/6
f 231/2/6 229/2/6 232/2/6
f 232/3/6 230/3/6 233/3/6
f 233/3/6 230/3/6 234/3/6
f 234/3/6 230/3/6 235/3/6
f 236/3/6 237/3/6 239/3/6
f 237/3/6 238/3/6 239/3/6
f 239/3/6 238/3/6 240/3/6
f 241/1/6 242/1/6 243/1/6
f 243/1/6 242/1/6 244/1/6
f 245/3/6 246/3/6 247/3/6
f 247/3/6 246/3/6 248/3/6
f 249/3/6 250/3/6 251/3/6
f 249/3/6 251/3/6 252/3/6
f 252/3/6 251/3/6 253/3/6
f 254/1/6 255/1/6 256/1/6
f 256/1/6 255/1/6 257/1/6
f 258/2/6 259/2/6 260/2/6
f 260/2/6 259/2/6 261/2/6
f 262/2/6 263/2/6 264/2/6
f 264/2/6 263/2/6 265/2/6
f 264/3/6 265/3/6 268/3/6
f 265/1/6 266/1/6 269/1/6
f 268/3/6 265/3/6 269/3/6
f 266/1/6 267/1/6 269/1/6
f 269/1/6 267/1/6 270/1/6
f 271/3/6 272/3/6 273/3/6
f 273/3/6 272/3/6 274/3/6
f 275/3/6 276/3/6 280/3/6
f 280/3/6 276/3/6 281/3/6
f 278/1/6 279/1/6 282/1/6
f 277/1/6 278/1/6 282/1/6
f 282/1/6 279/1/6 283/1/6
f 282/2/6 283/2/6 284/2/6
f 283/1/6 279/1/6 285/1/6
f 284/2/6 283/2/6 285/2/6
f 285/1/6 279/1/6 286/1/6
f 287/3/6 288/3/6 291/3/6
f 288/1/6 289/1/6 291/1/6
f 289/2/6 290/2/6 292/2/6
f 291/1/6 289/1/6 292/1/6
f 292/2/6 290/2/6 293/2/6
f 287/3/6 291/3/6 294/3/6
f 291/3/6 292/3/6 294/3/6
f 294/3/6 292/3/6 295/3/6
f 295/3/6 292/3/6 296/3/6
f 296/2/6 297/2/6 298/2/6
f 295/2/6 296/2/6 298/2/6
f 298/2/6 297/2/6 299/2/6
f 300/2/6 301/2/6 303/2/6
f 301/3/6 302/3/6 304/3/6
f 303/2/6 301/2/6 304/2/6
f 304/3/6 302/3/6 305/3/6
