# MagicaVoxel @ Ephtracy

# group
o 

# material
mtllib TrapsAndBuildings1-0.mtl
usemtl palette

# normals
vn -1 0 0
vn 1 0 0
vn 0 0 1
vn 0 0 -1
vn 0 -1 0
vn 0 1 0

# texcoords
vt 0.533203 0.5
vt 0.537109 0.5
vt 0.974609 0.5
vt 0.982422 0.5

# verts
v -1.4 1 -0.5
v -1.4 1 -0.7
v -1.4 2.4 -0.5
v -1.4 2.4 -0.7
v -1.3 0.8 -0.5
v -1.3 0.8 -0.7
v -1.3 1 -0.5
v -1.3 1 -0.7
v -1.3 2.4 -0.5
v -1.3 2.4 -0.7
v -1.3 2.6 -0.5
v -1.3 2.6 -0.7
v -1.2 0.7 -0.5
v -1.2 0.7 -0.7
v -1.2 0.8 -0.5
v -1.2 0.8 -0.7
v -1.2 2.6 -0.5
v -1.2 2.6 -0.7
v -1.2 2.7 -0.5
v -1.2 2.7 -0.7
v -1 0.6 -0.5
v -1 0.6 -0.7
v -1 0.7 -0.5
v -1 0.7 -0.7
v -1 2.7 -0.5
v -1 2.7 -0.7
v -1 2.8 -0.5
v -1 2.8 -0.7
v -0.2 1.5 -0.7
v -0.2 1.5 -0.9
v -0.2 1.5 -1.3
v -0.2 1.5 -2.7
v -0.2 1.5 -3
v -0.2 1.5 -3.7
v -0.2 1.5 -3.9
v -0.2 1.5 -4.1
v -0.2 1.6 -0.9
v -0.2 1.6 -1.3
v -0.2 1.6 -1.7
v -0.2 1.6 -2.1
v -0.2 1.6 -2.7
v -0.2 1.6 -3
v -0.2 1.6 -3.3
v -0.2 1.6 -3.7
v -0.2 1.6 -3.9
v -0.2 1.7 -1.7
v -0.2 1.7 -2.1
v -0.2 1.8 -1.2
v -0.2 1.8 -1.5
v -0.2 1.8 -2.3
v -0.2 1.8 -2.7
v -0.2 1.8 -3
v -0.2 1.8 -3.3
v -0.2 1.8 -3.5
v -0.2 1.8 -3.8
v -0.2 1.9 -0.7
v -0.2 1.9 -1.2
v -0.2 1.9 -1.5
v -0.2 1.9 -2.3
v -0.2 1.9 -2.7
v -0.2 1.9 -3.5
v -0.2 1.9 -3.8
v -0.2 1.9 -4.1
v 0.2 1.5 -0.7
v 0.2 1.5 -4.1
v 0.2 1.6 -1.4
v 0.2 1.6 -1.8
v 0.2 1.6 -3.3
v 0.2 1.6 -3.6
v 0.2 1.7 -1.4
v 0.2 1.7 -1.8
v 0.2 1.7 -2.4
v 0.2 1.7 -2.8
v 0.2 1.7 -3.3
v 0.2 1.7 -3.6
v 0.2 1.8 -1
v 0.2 1.8 -1.3
v 0.2 1.8 -2.4
v 0.2 1.8 -2.8
v 0.2 1.9 -0.7
v 0.2 1.9 -1
v 0.2 1.9 -1.3
v 0.2 1.9 -4.1
v 1 0.6 -0.5
v 1 0.6 -0.7
v 1 0.7 -0.5
v 1 0.7 -0.7
v 1 2.7 -0.5
v 1 2.7 -0.7
v 1 2.8 -0.5
v 1 2.8 -0.7
v 1.2 0.7 -0.5
v 1.2 0.7 -0.7
v 1.2 0.8 -0.5
v 1.2 0.8 -0.7
v 1.2 2.6 -0.5
v 1.2 2.6 -0.7
v 1.2 2.7 -0.5
v 1.2 2.7 -0.7
v 1.3 0.8 -0.5
v 1.3 0.8 -0.7
v 1.3 1 -0.5
v 1.3 1 -0.7
v 1.3 2.4 -0.5
v 1.3 2.4 -0.7
v 1.3 2.6 -0.5
v 1.3 2.6 -0.7
v 1.4 1 -0.5
v 1.4 1 -0.7
v 1.4 2.4 -0.5
v 1.4 2.4 -0.7
v -1.4 1 -0.5
v -1.4 2.4 -0.5
v -1.3 0.8 -0.5
v -1.3 1 -0.5
v -1.3 1.1 -0.5
v -1.3 2.3 -0.5
v -1.3 2.4 -0.5
v -1.3 2.6 -0.5
v -1.2 0.7 -0.5
v -1.2 0.8 -0.5
v -1.2 0.9 -0.5
v -1.2 1.1 -0.5
v -1.2 2.3 -0.5
v -1.2 2.5 -0.5
v -1.2 2.6 -0.5
v -1.2 2.7 -0.5
v -1.1 0.8 -0.5
v -1.1 0.9 -0.5
v -1.1 2.5 -0.5
v -1.1 2.6 -0.5
v -1 0.6 -0.5
v -1 0.7 -0.5
v -1 2.7 -0.5
v -1 2.8 -0.5
v -0.9 0.7 -0.5
v -0.9 0.8 -0.5
v -0.9 2.6 -0.5
v -0.9 2.7 -0.5
v 0.9 0.7 -0.5
v 0.9 0.8 -0.5
v 0.9 2.6 -0.5
v 0.9 2.7 -0.5
v 1 0.6 -0.5
v 1 0.7 -0.5
v 1 2.7 -0.5
v 1 2.8 -0.5
v 1.1 0.8 -0.5
v 1.1 0.9 -0.5
v 1.1 2.5 -0.5
v 1.1 2.6 -0.5
v 1.2 0.7 -0.5
v 1.2 0.8 -0.5
v 1.2 0.9 -0.5
v 1.2 1.1 -0.5
v 1.2 2.3 -0.5
v 1.2 2.5 -0.5
v 1.2 2.6 -0.5
v 1.2 2.7 -0.5
v 1.3 0.8 -0.5
v 1.3 1 -0.5
v 1.3 1.1 -0.5
v 1.3 2.3 -0.5
v 1.3 2.4 -0.5
v 1.3 2.6 -0.5
v 1.4 1 -0.5
v 1.4 2.4 -0.5
v -1.4 1 -0.7
v -1.4 2.4 -0.7
v -1.3 0.8 -0.7
v -1.3 1 -0.7
v -1.3 1.1 -0.7
v -1.3 2.3 -0.7
v -1.3 2.4 -0.7
v -1.3 2.6 -0.7
v -1.2 0.7 -0.7
v -1.2 0.8 -0.7
v -1.2 0.9 -0.7
v -1.2 1.1 -0.7
v -1.2 2.3 -0.7
v -1.2 2.5 -0.7
v -1.2 2.6 -0.7
v -1.2 2.7 -0.7
v -1.1 0.8 -0.7
v -1.1 0.9 -0.7
v -1.1 2.5 -0.7
v -1.1 2.6 -0.7
v -1 0.6 -0.7
v -1 0.7 -0.7
v -1 2.7 -0.7
v -1 2.8 -0.7
v -0.9 0.7 -0.7
v -0.9 0.8 -0.7
v -0.9 2.6 -0.7
v -0.9 2.7 -0.7
v -0.2 1.5 -0.7
v -0.2 1.9 -0.7
v 0.2 1.5 -0.7
v 0.2 1.9 -0.7
v 0.9 0.7 -0.7
v 0.9 0.8 -0.7
v 0.9 2.6 -0.7
v 0.9 2.7 -0.7
v 1 0.6 -0.7
v 1 0.7 -0.7
v 1 2.7 -0.7
v 1 2.8 -0.7
v 1.1 0.8 -0.7
v 1.1 0.9 -0.7
v 1.1 2.5 -0.7
v 1.1 2.6 -0.7
v 1.2 0.7 -0.7
v 1.2 0.8 -0.7
v 1.2 0.9 -0.7
v 1.2 1.1 -0.7
v 1.2 2.3 -0.7
v 1.2 2.5 -0.7
v 1.2 2.6 -0.7
v 1.2 2.7 -0.7
v 1.3 0.8 -0.7
v 1.3 1 -0.7
v 1.3 1.1 -0.7
v 1.3 2.3 -0.7
v 1.3 2.4 -0.7
v 1.3 2.6 -0.7
v 1.4 1 -0.7
v 1.4 2.4 -0.7
v -0.2 1.5 -4.1
v -0.2 1.9 -4.1
v 0.2 1.5 -4.1
v 0.2 1.9 -4.1
v -1 0.6 -0.5
v 1 0.6 -0.5
v -1 0.6 -0.7
v 1 0.6 -0.7
v -1.2 0.7 -0.5
v -1 0.7 -0.5
v 1 0.7 -0.5
v 1.2 0.7 -0.5
v -1.2 0.7 -0.7
v -1 0.7 -0.7
v 1 0.7 -0.7
v 1.2 0.7 -0.7
v -1.3 0.8 -0.5
v -1.2 0.8 -0.5
v 1.2 0.8 -0.5
v 1.3 0.8 -0.5
v -1.3 0.8 -0.7
v -1.2 0.8 -0.7
v 1.2 0.8 -0.7
v 1.3 0.8 -0.7
v -1.4 1 -0.5
v -1.3 1 -0.5
v 1.3 1 -0.5
v 1.4 1 -0.5
v -1.4 1 -0.7
v -1.3 1 -0.7
v 1.3 1 -0.7
v 1.4 1 -0.7
v -0.2 1.5 -0.7
v 0.2 1.5 -0.7
v -0.2 1.5 -0.9
v -0.1 1.5 -0.9
v -0.2 1.5 -1.3
v -0.1 1.5 -1.3
v 0 1.5 -1.5
v 0.1 1.5 -1.5
v 0 1.5 -1.9
v 0.1 1.5 -1.9
v -0.1 1.5 -2.1
v 0 1.5 -2.1
v -0.1 1.5 -2.4
v 0 1.5 -2.4
v -0.2 1.5 -2.7
v -0.1 1.5 -2.7
v -0.2 1.5 -3
v -0.1 1.5 -3
v 0 1.5 -3.2
v 0.1 1.5 -3.2
v 0 1.5 -3.6
v 0.1 1.5 -3.6
v -0.2 1.5 -3.7
v -0.1 1.5 -3.7
v -0.2 1.5 -3.9
v -0.1 1.5 -3.9
v -0.2 1.5 -4.1
v 0.2 1.5 -4.1
v -0.2 1.9 -0.7
v 0.2 1.9 -0.7
v 0.1 1.9 -1
v 0.2 1.9 -1
v -0.2 1.9 -1.2
v -0.1 1.9 -1.2
v 0.1 1.9 -1.3
v 0.2 1.9 -1.3
v -0.2 1.9 -1.5
v -0.1 1.9 -1.5
v 0 1.9 -1.6
v 0.1 1.9 -1.6
v 0 1.9 -2.2
v 0.1 1.9 -2.2
v -0.2 1.9 -2.3
v -0.1 1.9 -2.3
v -0.2 1.9 -2.7
v -0.1 1.9 -2.7
v 0 1.9 -3
v 0.1 1.9 -3
v 0 1.9 -3.3
v 0.1 1.9 -3.3
v -0.2 1.9 -3.5
v -0.1 1.9 -3.5
v -0.2 1.9 -3.8
v -0.1 1.9 -3.8
v -0.2 1.9 -4.1
v 0.2 1.9 -4.1
v -1.4 2.4 -0.5
v -1.3 2.4 -0.5
v 1.3 2.4 -0.5
v 1.4 2.4 -0.5
v -1.4 2.4 -0.7
v -1.3 2.4 -0.7
v 1.3 2.4 -0.7
v 1.4 2.4 -0.7
v -1.3 2.6 -0.5
v -1.2 2.6 -0.5
v 1.2 2.6 -0.5
v 1.3 2.6 -0.5
v -1.3 2.6 -0.7
v -1.2 2.6 -0.7
v 1.2 2.6 -0.7
v 1.3 2.6 -0.7
v -1.2 2.7 -0.5
v -1 2.7 -0.5
v 1 2.7 -0.5
v 1.2 2.7 -0.5
v -1.2 2.7 -0.7
v -1 2.7 -0.7
v 1 2.7 -0.7
v 1.2 2.7 -0.7
v -1 2.8 -0.5
v 1 2.8 -0.5
v -1 2.8 -0.7
v 1 2.8 -0.7

# faces
f 3/4/1 2/4/1 1/4/1
f 4/4/1 2/4/1 3/4/1
f 7/4/1 6/4/1 5/4/1
f 8/4/1 6/4/1 7/4/1
f 11/4/1 10/4/1 9/4/1
f 12/4/1 10/4/1 11/4/1
f 15/4/1 14/4/1 13/4/1
f 16/4/1 14/4/1 15/4/1
f 19/4/1 18/4/1 17/4/1
f 20/4/1 18/4/1 19/4/1
f 23/4/1 22/4/1 21/4/1
f 24/4/1 22/4/1 23/4/1
f 27/4/1 26/4/1 25/4/1
f 28/4/1 26/4/1 27/4/1
f 37/2/1 30/2/1 29/2/1
f 37/1/1 31/1/1 30/1/1
f 38/2/1 32/2/1 31/2/1
f 38/1/1 31/1/1 37/1/1
f 39/2/1 32/2/1 38/2/1
f 40/2/1 32/2/1 39/2/1
f 41/1/1 33/1/1 32/1/1
f 41/2/1 32/2/1 40/2/1
f 42/2/1 34/2/1 33/2/1
f 42/1/1 33/1/1 41/1/1
f 43/2/1 34/2/1 42/2/1
f 44/1/1 35/1/1 34/1/1
f 44/2/1 34/2/1 43/2/1
f 45/2/1 36/2/1 35/2/1
f 45/1/1 35/1/1 44/1/1
f 46/1/1 40/1/1 39/1/1
f 46/2/1 38/2/1 37/2/1
f 46/2/1 39/2/1 38/2/1
f 47/2/1 41/2/1 40/2/1
f 47/1/1 40/1/1 46/1/1
f 47/2/1 42/2/1 41/2/1
f 48/2/1 46/2/1 37/2/1
f 48/2/1 47/2/1 46/2/1
f 49/2/1 47/2/1 48/2/1
f 50/2/1 42/2/1 47/2/1
f 50/2/1 47/2/1 49/2/1
f 51/2/1 42/2/1 50/2/1
f 52/1/1 43/1/1 42/1/1
f 52/2/1 42/2/1 51/2/1
f 53/2/1 44/2/1 43/2/1
f 53/1/1 43/1/1 52/1/1
f 53/2/1 45/2/1 44/2/1
f 54/2/1 45/2/1 53/2/1
f 55/2/1 45/2/1 54/2/1
f 56/2/1 37/2/1 29/2/1
f 56/2/1 48/2/1 37/2/1
f 57/1/1 49/1/1 48/1/1
f 57/2/1 48/2/1 56/2/1
f 58/2/1 50/2/1 49/2/1
f 58/1/1 49/1/1 57/1/1
f 59/1/1 51/1/1 50/1/1
f 59/2/1 50/2/1 58/2/1
f 60/2/1 52/2/1 51/2/1
f 60/1/1 51/1/1 59/1/1
f 60/2/1 53/2/1 52/2/1
f 60/2/1 54/2/1 53/2/1
f 61/1/1 55/1/1 54/1/1
f 61/2/1 54/2/1 60/2/1
f 62/2/1 45/2/1 55/2/1
f 62/1/1 55/1/1 61/1/1
f 63/2/1 36/2/1 45/2/1
f 63/2/1 45/2/1 62/2/1
f 64/2/2 65/2/2 66/2/2
f 66/2/2 65/2/2 67/2/2
f 67/2/2 65/2/2 68/2/2
f 68/2/2 65/2/2 69/2/2
f 64/2/2 66/2/2 70/2/2
f 66/1/2 67/1/2 70/1/2
f 67/2/2 68/2/2 71/2/2
f 70/1/2 67/1/2 71/1/2
f 71/2/2 68/2/2 72/2/2
f 72/2/2 68/2/2 73/2/2
f 68/1/2 69/1/2 74/1/2
f 73/2/2 68/2/2 74/2/2
f 69/2/2 65/2/2 75/2/2
f 74/1/2 69/1/2 75/1/2
f 64/2/2 70/2/2 76/2/2
f 70/2/2 71/2/2 76/2/2
f 71/2/2 72/2/2 76/2/2
f 76/2/2 72/2/2 77/2/2
f 72/1/2 73/1/2 78/1/2
f 77/2/2 72/2/2 78/2/2
f 73/2/2 74/2/2 79/2/2
f 78/1/2 73/1/2 79/1/2
f 74/2/2 75/2/2 79/2/2
f 64/2/2 76/2/2 80/2/2
f 76/1/2 77/1/2 81/1/2
f 80/2/2 76/2/2 81/2/2
f 77/2/2 78/2/2 82/2/2
f 81/1/2 77/1/2 82/1/2
f 78/2/2 79/2/2 82/2/2
f 75/2/2 65/2/2 83/2/2
f 82/2/2 79/2/2 83/2/2
f 79/2/2 75/2/2 83/2/2
f 84/4/2 85/4/2 86/4/2
f 86/4/2 85/4/2 87/4/2
f 88/4/2 89/4/2 90/4/2
f 90/4/2 89/4/2 91/4/2
f 92/4/2 93/4/2 94/4/2
f 94/4/2 93/4/2 95/4/2
f 96/4/2 97/4/2 98/4/2
f 98/4/2 97/4/2 99/4/2
f 100/4/2 101/4/2 102/4/2
f 102/4/2 101/4/2 103/4/2
f 104/4/2 105/4/2 106/4/2
f 106/4/2 105/4/2 107/4/2
f 108/4/2 109/4/2 110/4/2
f 110/4/2 109/4/2 111/4/2
f 115/4/3 113/4/3 112/4/3
f 116/4/3 113/4/3 115/4/3
f 117/4/3 113/4/3 116/4/3
f 118/4/3 113/4/3 117/4/3
f 121/4/3 115/4/3 114/4/3
f 121/4/3 116/4/3 115/4/3
f 122/4/3 116/4/3 121/4/3
f 123/3/3 117/3/3 116/3/3
f 123/4/3 116/4/3 122/4/3
f 124/4/3 119/4/3 118/4/3
f 124/3/3 117/3/3 123/3/3
f 124/4/3 118/4/3 117/4/3
f 125/4/3 119/4/3 124/4/3
f 126/4/3 119/4/3 125/4/3
f 128/4/3 121/4/3 120/4/3
f 128/4/3 122/4/3 121/4/3
f 129/3/3 123/3/3 122/3/3
f 129/4/3 122/4/3 128/4/3
f 129/3/3 124/3/3 123/3/3
f 129/3/3 125/3/3 124/3/3
f 130/4/3 127/4/3 126/4/3
f 130/3/3 125/3/3 129/3/3
f 130/4/3 126/4/3 125/4/3
f 131/4/3 127/4/3 130/4/3
f 133/4/3 128/4/3 120/4/3
f 134/4/3 127/4/3 131/4/3
f 136/4/3 133/4/3 132/4/3
f 136/4/3 128/4/3 133/4/3
f 137/3/3 129/3/3 128/3/3
f 137/4/3 128/4/3 136/4/3
f 137/3/3 130/3/3 129/3/3
f 137/3/3 131/3/3 130/3/3
f 138/4/3 135/4/3 134/4/3
f 138/3/3 131/3/3 137/3/3
f 138/4/3 134/4/3 131/4/3
f 139/4/3 135/4/3 138/4/3
f 140/3/3 137/3/3 136/3/3
f 140/4/3 136/4/3 132/4/3
f 140/3/3 139/3/3 138/3/3
f 140/3/3 138/3/3 137/3/3
f 141/3/3 139/3/3 140/3/3
f 142/3/3 139/3/3 141/3/3
f 143/4/3 135/4/3 139/4/3
f 143/3/3 139/3/3 142/3/3
f 144/4/3 140/4/3 132/4/3
f 144/4/3 141/4/3 140/4/3
f 145/4/3 141/4/3 144/4/3
f 146/4/3 135/4/3 143/4/3
f 146/4/3 143/4/3 142/4/3
f 147/4/3 135/4/3 146/4/3
f 148/3/3 142/3/3 141/3/3
f 148/4/3 141/4/3 145/4/3
f 149/3/3 142/3/3 148/3/3
f 150/3/3 142/3/3 149/3/3
f 151/4/3 146/4/3 142/4/3
f 151/3/3 142/3/3 150/3/3
f 152/4/3 148/4/3 145/4/3
f 152/4/3 149/4/3 148/4/3
f 153/4/3 149/4/3 152/4/3
f 154/3/3 150/3/3 149/3/3
f 154/4/3 149/4/3 153/4/3
f 155/3/3 150/3/3 154/3/3
f 156/3/3 150/3/3 155/3/3
f 157/4/3 151/4/3 150/4/3
f 157/3/3 150/3/3 156/3/3
f 158/4/3 146/4/3 151/4/3
f 158/4/3 151/4/3 157/4/3
f 159/4/3 146/4/3 158/4/3
f 160/4/3 154/4/3 153/4/3
f 160/4/3 155/4/3 154/4/3
f 161/4/3 155/4/3 160/4/3
f 162/3/3 156/3/3 155/3/3
f 162/4/3 155/4/3 161/4/3
f 163/4/3 157/4/3 156/4/3
f 163/3/3 156/3/3 162/3/3
f 163/4/3 158/4/3 157/4/3
f 164/4/3 158/4/3 163/4/3
f 165/4/3 158/4/3 164/4/3
f 166/4/3 162/4/3 161/4/3
f 166/4/3 164/4/3 163/4/3
f 166/4/3 163/4/3 162/4/3
f 167/4/3 164/4/3 166/4/3
f 168/4/4 169/4/4 171/4/4
f 171/4/4 169/4/4 172/4/4
f 172/4/4 169/4/4 173/4/4
f 173/4/4 169/4/4 174/4/4
f 170/4/4 171/4/4 177/4/4
f 171/4/4 172/4/4 177/4/4
f 177/4/4 172/4/4 178/4/4
f 172/3/4 173/3/4 179/3/4
f 178/4/4 172/4/4 179/4/4
f 174/4/4 175/4/4 180/4/4
f 179/3/4 173/3/4 180/3/4
f 173/4/4 174/4/4 180/4/4
f 180/4/4 175/4/4 181/4/4
f 181/4/4 175/4/4 182/4/4
f 176/4/4 177/4/4 184/4/4
f 177/4/4 178/4/4 184/4/4
f 178/3/4 179/3/4 185/3/4
f 184/4/4 178/4/4 185/4/4
f 179/3/4 180/3/4 185/3/4
f 180/3/4 181/3/4 185/3/4
f 182/4/4 183/4/4 186/4/4
f 185/3/4 181/3/4 186/3/4
f 181/4/4 182/4/4 186/4/4
f 186/4/4 183/4/4 187/4/4
f 176/4/4 184/4/4 189/4/4
f 187/4/4 183/4/4 190/4/4
f 188/4/4 189/4/4 192/4/4
f 189/4/4 184/4/4 192/4/4
f 184/3/4 185/3/4 193/3/4
f 192/4/4 184/4/4 193/4/4
f 185/3/4 186/3/4 193/3/4
f 186/3/4 187/3/4 193/3/4
f 190/4/4 191/4/4 194/4/4
f 193/3/4 187/3/4 194/3/4
f 187/4/4 190/4/4 194/4/4
f 194/4/4 191/4/4 195/4/4
f 192/3/4 193/3/4 196/3/4
f 193/3/4 194/3/4 196/3/4
f 194/3/4 195/3/4 196/3/4
f 196/3/4 195/3/4 197/3/4
f 192/3/4 196/3/4 198/3/4
f 197/3/4 195/3/4 199/3/4
f 188/4/4 192/4/4 200/4/4
f 198/3/4 199/3/4 200/3/4
f 192/3/4 198/3/4 200/3/4
f 200/3/4 199/3/4 201/3/4
f 199/3/4 195/3/4 202/3/4
f 201/3/4 199/3/4 202/3/4
f 195/4/4 191/4/4 203/4/4
f 202/3/4 195/3/4 203/3/4
f 200/4/4 201/4/4 204/4/4
f 188/4/4 200/4/4 204/4/4
f 204/4/4 201/4/4 205/4/4
f 203/4/4 191/4/4 206/4/4
f 202/4/4 203/4/4 206/4/4
f 206/4/4 191/4/4 207/4/4
f 201/3/4 202/3/4 208/3/4
f 205/4/4 201/4/4 208/4/4
f 208/3/4 202/3/4 209/3/4
f 209/3/4 202/3/4 210/3/4
f 202/4/4 206/4/4 211/4/4
f 210/3/4 202/3/4 211/3/4
f 205/4/4 208/4/4 212/4/4
f 208/4/4 209/4/4 212/4/4
f 212/4/4 209/4/4 213/4/4
f 209/3/4 210/3/4 214/3/4
f 213/4/4 209/4/4 214/4/4
f 214/3/4 210/3/4 215/3/4
f 215/3/4 210/3/4 216/3/4
f 210/4/4 211/4/4 217/4/4
f 216/3/4 210/3/4 217/3/4
f 211/4/4 206/4/4 218/4/4
f 217/4/4 211/4/4 218/4/4
f 218/4/4 206/4/4 219/4/4
f 213/4/4 214/4/4 220/4/4
f 214/4/4 215/4/4 220/4/4
f 220/4/4 215/4/4 221/4/4
f 215/3/4 216/3/4 222/3/4
f 221/4/4 215/4/4 222/4/4
f 216/4/4 217/4/4 223/4/4
f 222/3/4 216/3/4 223/3/4
f 217/4/4 218/4/4 223/4/4
f 223/4/4 218/4/4 224/4/4
f 224/4/4 218/4/4 225/4/4
f 221/4/4 222/4/4 226/4/4
f 223/4/4 224/4/4 226/4/4
f 222/4/4 223/4/4 226/4/4
f 226/4/4 224/4/4 227/4/4
f 228/2/4 229/2/4 230/2/4
f 230/2/4 229/2/4 231/2/4
f 234/4/5 233/4/5 232/4/5
f 235/4/5 233/4/5 234/4/5
f 240/4/5 237/4/5 236/4/5
f 241/4/5 237/4/5 240/4/5
f 242/4/5 239/4/5 238/4/5
f 243/4/5 239/4/5 242/4/5
f 248/4/5 245/4/5 244/4/5
f 249/4/5 245/4/5 248/4/5
f 250/4/5 247/4/5 246/4/5
f 251/4/5 247/4/5 250/4/5
f 256/4/5 253/4/5 252/4/5
f 257/4/5 253/4/5 256/4/5
f 258/4/5 255/4/5 254/4/5
f 259/4/5 255/4/5 258/4/5
f 262/2/5 261/2/5 260/2/5
f 263/2/5 261/2/5 262/2/5
f 264/1/5 263/1/5 262/1/5
f 265/2/5 261/2/5 263/2/5
f 265/1/5 263/1/5 264/1/5
f 266/2/5 265/2/5 264/2/5
f 266/2/5 261/2/5 265/2/5
f 267/2/5 261/2/5 266/2/5
f 268/2/5 266/2/5 264/2/5
f 268/1/5 267/1/5 266/1/5
f 269/2/5 261/2/5 267/2/5
f 269/1/5 267/1/5 268/1/5
f 270/2/5 268/2/5 264/2/5
f 270/2/5 269/2/5 268/2/5
f 271/2/5 269/2/5 270/2/5
f 272/2/5 270/2/5 264/2/5
f 272/1/5 271/1/5 270/1/5
f 273/2/5 269/2/5 271/2/5
f 273/1/5 271/1/5 272/1/5
f 274/2/5 272/2/5 264/2/5
f 274/2/5 273/2/5 272/2/5
f 275/2/5 273/2/5 274/2/5
f 276/1/5 275/1/5 274/1/5
f 277/2/5 273/2/5 275/2/5
f 277/1/5 275/1/5 276/1/5
f 278/2/5 269/2/5 273/2/5
f 278/2/5 273/2/5 277/2/5
f 278/2/5 277/2/5 276/2/5
f 279/2/5 261/2/5 269/2/5
f 279/2/5 269/2/5 278/2/5
f 280/2/5 278/2/5 276/2/5
f 280/1/5 279/1/5 278/1/5
f 281/2/5 261/2/5 279/2/5
f 281/1/5 279/1/5 280/1/5
f 282/2/5 280/2/5 276/2/5
f 282/2/5 281/2/5 280/2/5
f 283/2/5 281/2/5 282/2/5
f 284/1/5 283/1/5 282/1/5
f 285/2/5 281/2/5 283/2/5
f 285/1/5 283/1/5 284/1/5
f 286/2/5 285/2/5 284/2/5
f 287/2/5 261/2/5 281/2/5
f 287/2/5 285/2/5 286/2/5
f 287/2/5 281/2/5 285/2/5
f 288/2/6 289/2/6 290/2/6
f 290/2/6 289/2/6 291/2/6
f 288/2/6 290/2/6 292/2/6
f 292/2/6 290/2/6 293/2/6
f 290/1/6 291/1/6 294/1/6
f 293/2/6 290/2/6 294/2/6
f 294/1/6 291/1/6 295/1/6
f 292/1/6 293/1/6 296/1/6
f 293/2/6 294/2/6 297/2/6
f 296/1/6 293/1/6 297/1/6
f 294/2/6 295/2/6 297/2/6
f 296/2/6 297/2/6 298/2/6
f 297/2/6 295/2/6 298/2/6
f 298/2/6 295/2/6 299/2/6
f 296/2/6 298/2/6 300/2/6
f 298/1/6 299/1/6 300/1/6
f 299/2/6 295/2/6 301/2/6
f 300/1/6 299/1/6 301/1/6
f 296/2/6 300/2/6 302/2/6
f 300/2/6 301/2/6 302/2/6
f 302/2/6 301/2/6 303/2/6
f 302/1/6 303/1/6 304/1/6
f 303/2/6 301/2/6 305/2/6
f 304/1/6 303/1/6 305/1/6
f 304/2/6 305/2/6 306/2/6
f 305/2/6 301/2/6 306/2/6
f 301/2/6 295/2/6 307/2/6
f 306/2/6 301/2/6 307/2/6
f 304/2/6 306/2/6 308/2/6
f 306/1/6 307/1/6 308/1/6
f 307/2/6 295/2/6 309/2/6
f 308/1/6 307/1/6 309/1/6
f 304/2/6 308/2/6 310/2/6
f 308/2/6 309/2/6 310/2/6
f 310/2/6 309/2/6 311/2/6
f 310/1/6 311/1/6 312/1/6
f 311/2/6 309/2/6 313/2/6
f 312/1/6 311/1/6 313/1/6
f 312/2/6 313/2/6 314/2/6
f 309/2/6 295/2/6 315/2/6
f 314/2/6 313/2/6 315/2/6
f 313/2/6 309/2/6 315/2/6
f 316/4/6 317/4/6 320/4/6
f 320/4/6 317/4/6 321/4/6
f 318/4/6 319/4/6 322/4/6
f 322/4/6 319/4/6 323/4/6
f 324/4/6 325/4/6 328/4/6
f 328/4/6 325/4/6 329/4/6
f 326/4/6 327/4/6 330/4/6
f 330/4/6 327/4/6 331/4/6
f 332/4/6 333/4/6 336/4/6
f 336/4/6 333/4/6 337/4/6
f 334/4/6 335/4/6 338/4/6
f 338/4/6 335/4/6 339/4/6
f 340/4/6 341/4/6 342/4/6
f 342/4/6 341/4/6 343/4/6
