# MagicaVoxel @ Ephtracy

# group
o 

# material
mtllib TrapsAndBuildings4-0.mtl
usemtl palette

# normals
vn -1 0 0
vn 1 0 0
vn 0 0 1
vn 0 0 -1
vn 0 -1 0
vn 0 1 0

# texcoords
vt 0.537109 0.5
vt 0.966797 0.5

# verts
v -0.3 0.2 0.1
v -0.3 0.2 -0.0999999
v -0.3 0.3 0.1
v -0.3 0.3 -0.0999999
v -0.2 0 0.1
v -0.2 0 -0.0999999
v -0.2 0.2 1.7
v -0.2 0.2 1.4
v -0.2 0.2 0.2
v -0.2 0.2 0.1
v -0.2 0.2 -0.0999999
v -0.2 0.2 -0.2
v -0.2 0.2 -1.4
v -0.2 0.2 -1.7
v -0.2 0.3 1.7
v -0.2 0.3 1.4
v -0.2 0.3 0.2
v -0.2 0.3 0.1
v -0.2 0.3 -0.0999999
v -0.2 0.3 -0.2
v -0.2 0.3 -1.4
v -0.2 0.3 -1.7
v -0.2 0.5 0.1
v -0.2 0.5 -0.0999999
v -0.1 0 0.2
v -0.1 0 0.1
v -0.1 0 -0.0999999
v -0.1 0 -0.2
v -0.1 0.2 1.8
v -0.1 0.2 1.7
v -0.1 0.2 1.4
v -0.1 0.2 0.2
v -0.1 0.2 0.1
v -0.1 0.2 -0.0999999
v -0.1 0.2 -0.2
v -0.1 0.2 -1.4
v -0.1 0.2 -1.7
v -0.1 0.2 -1.8
v -0.1 0.3 1.8
v -0.1 0.3 1.7
v -0.1 0.3 1.4
v -0.1 0.3 0.2
v -0.1 0.3 0.1
v -0.1 0.3 -0.0999999
v -0.1 0.3 -0.2
v -0.1 0.3 -1.4
v -0.1 0.3 -1.7
v -0.1 0.3 -1.8
v -0.1 0.5 0.2
v -0.1 0.5 0.1
v -0.1 0.5 -0.0999999
v -0.1 0.5 -0.2
v -0.1 0.6 0.1
v -0.1 0.6 -0.0999999
v 0.1 0 0.2
v 0.1 0 0.1
v 0.1 0 -0.0999999
v 0.1 0 -0.2
v 0.1 0.2 1.8
v 0.1 0.2 1.7
v 0.1 0.2 1.4
v 0.1 0.2 0.2
v 0.1 0.2 0.1
v 0.1 0.2 -0.0999999
v 0.1 0.2 -0.2
v 0.1 0.2 -1.4
v 0.1 0.2 -1.7
v 0.1 0.2 -1.8
v 0.1 0.3 1.8
v 0.1 0.3 1.7
v 0.1 0.3 1.4
v 0.1 0.3 0.2
v 0.1 0.3 0.1
v 0.1 0.3 -0.0999999
v 0.1 0.3 -0.2
v 0.1 0.3 -1.4
v 0.1 0.3 -1.7
v 0.1 0.3 -1.8
v 0.1 0.5 0.2
v 0.1 0.5 0.1
v 0.1 0.5 -0.0999999
v 0.1 0.5 -0.2
v 0.1 0.6 0.1
v 0.1 0.6 -0.0999999
v 0.2 0 0.1
v 0.2 0 -0.0999999
v 0.2 0.2 1.7
v 0.2 0.2 1.4
v 0.2 0.2 0.2
v 0.2 0.2 0.1
v 0.2 0.2 -0.0999999
v 0.2 0.2 -0.2
v 0.2 0.2 -1.4
v 0.2 0.2 -1.7
v 0.2 0.3 1.7
v 0.2 0.3 1.4
v 0.2 0.3 0.2
v 0.2 0.3 0.1
v 0.2 0.3 -0.0999999
v 0.2 0.3 -0.2
v 0.2 0.3 -1.4
v 0.2 0.3 -1.7
v 0.2 0.5 0.1
v 0.2 0.5 -0.0999999
v 0.3 0.2 0.1
v 0.3 0.2 -0.0999999
v 0.3 0.3 0.1
v 0.3 0.3 -0.0999999
v -0.1 0.2 1.8
v -0.1 0.3 1.8
v 0.1 0.2 1.8
v 0.1 0.3 1.8
v -0.2 0.2 1.7
v -0.2 0.3 1.7
v -0.1 0.2 1.7
v -0.1 0.3 1.7
v 0.1 0.2 1.7
v 0.1 0.3 1.7
v 0.2 0.2 1.7
v 0.2 0.3 1.7
v -0.2 0.2 0.2
v -0.2 0.3 0.2
v -0.1 0 0.2
v -0.1 0.2 0.2
v -0.1 0.3 0.2
v -0.1 0.5 0.2
v 0.1 0 0.2
v 0.1 0.2 0.2
v 0.1 0.3 0.2
v 0.1 0.5 0.2
v 0.2 0.2 0.2
v 0.2 0.3 0.2
v -0.3 0.2 0.1
v -0.3 0.3 0.1
v -0.2 0 0.1
v -0.2 0.2 0.1
v -0.2 0.3 0.1
v -0.2 0.5 0.1
v -0.1 0 0.1
v -0.1 0.2 0.1
v -0.1 0.3 0.1
v -0.1 0.5 0.1
v -0.1 0.6 0.1
v 0.1 0 0.1
v 0.1 0.2 0.1
v 0.1 0.3 0.1
v 0.1 0.5 0.1
v 0.1 0.6 0.1
v 0.2 0 0.1
v 0.2 0.2 0.1
v 0.2 0.3 0.1
v 0.2 0.5 0.1
v 0.3 0.2 0.1
v 0.3 0.3 0.1
v -0.2 0.2 -1.4
v -0.2 0.3 -1.4
v -0.1 0.2 -1.4
v -0.1 0.3 -1.4
v 0.1 0.2 -1.4
v 0.1 0.3 -1.4
v 0.2 0.2 -1.4
v 0.2 0.3 -1.4
v -0.2 0.2 1.4
v -0.2 0.3 1.4
v -0.1 0.2 1.4
v -0.1 0.3 1.4
v 0.1 0.2 1.4
v 0.1 0.3 1.4
v 0.2 0.2 1.4
v 0.2 0.3 1.4
v -0.3 0.2 -0.0999999
v -0.3 0.3 -0.0999999
v -0.2 0 -0.0999999
v -0.2 0.2 -0.0999999
v -0.2 0.3 -0.0999999
v -0.2 0.5 -0.0999999
v -0.1 0 -0.0999999
v -0.1 0.2 -0.0999999
v -0.1 0.3 -0.0999999
v -0.1 0.5 -0.0999999
v -0.1 0.6 -0.0999999
v 0.1 0 -0.0999999
v 0.1 0.2 -0.0999999
v 0.1 0.3 -0.0999999
v 0.1 0.5 -0.0999999
v 0.1 0.6 -0.0999999
v 0.2 0 -0.0999999
v 0.2 0.2 -0.0999999
v 0.2 0.3 -0.0999999
v 0.2 0.5 -0.0999999
v 0.3 0.2 -0.0999999
v 0.3 0.3 -0.0999999
v -0.2 0.2 -0.2
v -0.2 0.3 -0.2
v -0.1 0 -0.2
v -0.1 0.2 -0.2
v -0.1 0.3 -0.2
v -0.1 0.5 -0.2
v 0.1 0 -0.2
v 0.1 0.2 -0.2
v 0.1 0.3 -0.2
v 0.1 0.5 -0.2
v 0.2 0.2 -0.2
v 0.2 0.3 -0.2
v -0.2 0.2 -1.7
v -0.2 0.3 -1.7
v -0.1 0.2 -1.7
v -0.1 0.3 -1.7
v 0.1 0.2 -1.7
v 0.1 0.3 -1.7
v 0.2 0.2 -1.7
v 0.2 0.3 -1.7
v -0.1 0.2 -1.8
v -0.1 0.3 -1.8
v 0.1 0.2 -1.8
v 0.1 0.3 -1.8
v -0.1 0 0.2
v 0.1 0 0.2
v -0.2 0 0.1
v -0.1 0 0.1
v 0.1 0 0.1
v 0.2 0 0.1
v -0.2 0 -0.0999999
v -0.1 0 -0.0999999
v 0.1 0 -0.0999999
v 0.2 0 -0.0999999
v -0.1 0 -0.2
v 0.1 0 -0.2
v -0.1 0.2 1.8
v 0.1 0.2 1.8
v -0.2 0.2 1.7
v -0.1 0.2 1.7
v 0.1 0.2 1.7
v 0.2 0.2 1.7
v -0.2 0.2 1.4
v -0.1 0.2 1.4
v 0.1 0.2 1.4
v 0.2 0.2 1.4
v -0.2 0.2 0.2
v -0.1 0.2 0.2
v 0.1 0.2 0.2
v 0.2 0.2 0.2
v -0.3 0.2 0.1
v -0.2 0.2 0.1
v -0.1 0.2 0.1
v 0.1 0.2 0.1
v 0.2 0.2 0.1
v 0.3 0.2 0.1
v -0.3 0.2 -0.0999999
v -0.2 0.2 -0.0999999
v -0.1 0.2 -0.0999999
v 0.1 0.2 -0.0999999
v 0.2 0.2 -0.0999999
v 0.3 0.2 -0.0999999
v -0.2 0.2 -0.2
v -0.1 0.2 -0.2
v 0.1 0.2 -0.2
v 0.2 0.2 -0.2
v -0.2 0.2 -1.4
v -0.1 0.2 -1.4
v 0.1 0.2 -1.4
v 0.2 0.2 -1.4
v -0.2 0.2 -1.7
v -0.1 0.2 -1.7
v 0.1 0.2 -1.7
v 0.2 0.2 -1.7
v -0.1 0.2 -1.8
v 0.1 0.2 -1.8
v -0.1 0.3 1.8
v 0.1 0.3 1.8
v -0.2 0.3 1.7
v -0.1 0.3 1.7
v 0.1 0.3 1.7
v 0.2 0.3 1.7
v -0.2 0.3 1.4
v -0.1 0.3 1.4
v 0.1 0.3 1.4
v 0.2 0.3 1.4
v -0.2 0.3 0.2
v -0.1 0.3 0.2
v 0.1 0.3 0.2
v 0.2 0.3 0.2
v -0.3 0.3 0.1
v -0.2 0.3 0.1
v -0.1 0.3 0.1
v 0.1 0.3 0.1
v 0.2 0.3 0.1
v 0.3 0.3 0.1
v -0.3 0.3 -0.0999999
v -0.2 0.3 -0.0999999
v -0.1 0.3 -0.0999999
v 0.1 0.3 -0.0999999
v 0.2 0.3 -0.0999999
v 0.3 0.3 -0.0999999
v -0.2 0.3 -0.2
v -0.1 0.3 -0.2
v 0.1 0.3 -0.2
v 0.2 0.3 -0.2
v -0.2 0.3 -1.4
v -0.1 0.3 -1.4
v 0.1 0.3 -1.4
v 0.2 0.3 -1.4
v -0.2 0.3 -1.7
v -0.1 0.3 -1.7
v 0.1 0.3 -1.7
v 0.2 0.3 -1.7
v -0.1 0.3 -1.8
v 0.1 0.3 -1.8
v -0.1 0.5 0.2
v 0.1 0.5 0.2
v -0.2 0.5 0.1
v -0.1 0.5 0.1
v 0.1 0.5 0.1
v 0.2 0.5 0.1
v -0.2 0.5 -0.0999999
v -0.1 0.5 -0.0999999
v 0.1 0.5 -0.0999999
v 0.2 0.5 -0.0999999
v -0.1 0.5 -0.2
v 0.1 0.5 -0.2
v -0.1 0.6 0.1
v 0.1 0.6 0.1
v -0.1 0.6 -0.0999999
v 0.1 0.6 -0.0999999

# faces
f 3/2/1 2/2/1 1/2/1
f 4/2/1 2/2/1 3/2/1
f 10/1/1 6/1/1 5/1/1
f 11/1/1 6/1/1 10/1/1
f 15/2/1 8/2/1 7/2/1
f 16/2/1 8/2/1 15/2/1
f 17/2/1 10/2/1 9/2/1
f 18/2/1 10/2/1 17/2/1
f 19/2/1 12/2/1 11/2/1
f 20/2/1 12/2/1 19/2/1
f 21/2/1 14/2/1 13/2/1
f 22/2/1 14/2/1 21/2/1
f 23/1/1 19/1/1 18/1/1
f 24/1/1 19/1/1 23/1/1
f 32/1/1 26/1/1 25/1/1
f 33/1/1 26/1/1 32/1/1
f 34/1/1 28/1/1 27/1/1
f 35/1/1 28/1/1 34/1/1
f 39/2/1 30/2/1 29/2/1
f 40/2/1 30/2/1 39/2/1
f 41/2/1 32/2/1 31/2/1
f 42/2/1 32/2/1 41/2/1
f 45/2/1 36/2/1 35/2/1
f 46/2/1 36/2/1 45/2/1
f 47/2/1 38/2/1 37/2/1
f 48/2/1 38/2/1 47/2/1
f 49/1/1 43/1/1 42/1/1
f 50/1/1 43/1/1 49/1/1
f 51/1/1 45/1/1 44/1/1
f 52/1/1 45/1/1 51/1/1
f 53/1/1 51/1/1 50/1/1
f 54/1/1 51/1/1 53/1/1
f 55/1/2 56/1/2 62/1/2
f 62/1/2 56/1/2 63/1/2
f 57/1/2 58/1/2 64/1/2
f 64/1/2 58/1/2 65/1/2
f 59/2/2 60/2/2 69/2/2
f 69/2/2 60/2/2 70/2/2
f 61/2/2 62/2/2 71/2/2
f 71/2/2 62/2/2 72/2/2
f 65/2/2 66/2/2 75/2/2
f 75/2/2 66/2/2 76/2/2
f 67/2/2 68/2/2 77/2/2
f 77/2/2 68/2/2 78/2/2
f 72/1/2 73/1/2 79/1/2
f 79/1/2 73/1/2 80/1/2
f 74/1/2 75/1/2 81/1/2
f 81/1/2 75/1/2 82/1/2
f 80/1/2 81/1/2 83/1/2
f 83/1/2 81/1/2 84/1/2
f 85/1/2 86/1/2 90/1/2
f 90/1/2 86/1/2 91/1/2
f 87/2/2 88/2/2 95/2/2
f 95/2/2 88/2/2 96/2/2
f 89/2/2 90/2/2 97/2/2
f 97/2/2 90/2/2 98/2/2
f 91/2/2 92/2/2 99/2/2
f 99/2/2 92/2/2 100/2/2
f 93/2/2 94/2/2 101/2/2
f 101/2/2 94/2/2 102/2/2
f 98/1/2 99/1/2 103/1/2
f 103/1/2 99/1/2 104/1/2
f 105/2/2 106/2/2 107/2/2
f 107/2/2 106/2/2 108/2/2
f 111/2/3 110/2/3 109/2/3
f 112/2/3 110/2/3 111/2/3
f 115/2/3 114/2/3 113/2/3
f 116/2/3 114/2/3 115/2/3
f 119/2/3 118/2/3 117/2/3
f 120/2/3 118/2/3 119/2/3
f 124/2/3 122/2/3 121/2/3
f 125/2/3 122/2/3 124/2/3
f 127/1/3 124/1/3 123/1/3
f 128/1/3 124/1/3 127/1/3
f 129/1/3 126/1/3 125/1/3
f 130/1/3 126/1/3 129/1/3
f 131/2/3 129/2/3 128/2/3
f 132/2/3 129/2/3 131/2/3
f 136/2/3 134/2/3 133/2/3
f 137/2/3 134/2/3 136/2/3
f 139/1/3 136/1/3 135/1/3
f 140/1/3 136/1/3 139/1/3
f 141/1/3 138/1/3 137/1/3
f 142/1/3 138/1/3 141/1/3
f 147/1/3 143/1/3 142/1/3
f 148/1/3 143/1/3 147/1/3
f 149/1/3 145/1/3 144/1/3
f 150/1/3 145/1/3 149/1/3
f 151/1/3 147/1/3 146/1/3
f 152/1/3 147/1/3 151/1/3
f 153/2/3 151/2/3 150/2/3
f 154/2/3 151/2/3 153/2/3
f 157/2/3 156/2/3 155/2/3
f 158/2/3 156/2/3 157/2/3
f 161/2/3 160/2/3 159/2/3
f 162/2/3 160/2/3 161/2/3
f 163/2/4 164/2/4 165/2/4
f 165/2/4 164/2/4 166/2/4
f 167/2/4 168/2/4 169/2/4
f 169/2/4 168/2/4 170/2/4
f 171/2/4 172/2/4 174/2/4
f 174/2/4 172/2/4 175/2/4
f 173/1/4 174/1/4 177/1/4
f 177/1/4 174/1/4 178/1/4
f 175/1/4 176/1/4 179/1/4
f 179/1/4 176/1/4 180/1/4
f 180/1/4 181/1/4 185/1/4
f 185/1/4 181/1/4 186/1/4
f 182/1/4 183/1/4 187/1/4
f 187/1/4 183/1/4 188/1/4
f 184/1/4 185/1/4 189/1/4
f 189/1/4 185/1/4 190/1/4
f 188/2/4 189/2/4 191/2/4
f 191/2/4 189/2/4 192/2/4
f 193/2/4 194/2/4 196/2/4
f 196/2/4 194/2/4 197/2/4
f 195/1/4 196/1/4 199/1/4
f 199/1/4 196/1/4 200/1/4
f 197/1/4 198/1/4 201/1/4
f 201/1/4 198/1/4 202/1/4
f 200/2/4 201/2/4 203/2/4
f 203/2/4 201/2/4 204/2/4
f 205/2/4 206/2/4 207/2/4
f 207/2/4 206/2/4 208/2/4
f 209/2/4 210/2/4 211/2/4
f 211/2/4 210/2/4 212/2/4
f 213/2/4 214/2/4 215/2/4
f 215/2/4 214/2/4 216/2/4
f 220/1/5 218/1/5 217/1/5
f 221/1/5 218/1/5 220/1/5
f 223/1/5 220/1/5 219/1/5
f 223/1/5 222/1/5 221/1/5
f 223/1/5 221/1/5 220/1/5
f 224/1/5 222/1/5 223/1/5
f 225/1/5 222/1/5 224/1/5
f 226/1/5 222/1/5 225/1/5
f 227/1/5 225/1/5 224/1/5
f 228/1/5 225/1/5 227/1/5
f 232/2/5 230/2/5 229/2/5
f 233/2/5 230/2/5 232/2/5
f 235/2/5 232/2/5 231/2/5
f 235/2/5 234/2/5 233/2/5
f 235/2/5 233/2/5 232/2/5
f 236/2/5 234/2/5 235/2/5
f 237/2/5 234/2/5 236/2/5
f 238/2/5 234/2/5 237/2/5
f 240/2/5 237/2/5 236/2/5
f 241/2/5 237/2/5 240/2/5
f 244/2/5 240/2/5 239/2/5
f 245/2/5 240/2/5 244/2/5
f 246/2/5 242/2/5 241/2/5
f 247/2/5 242/2/5 246/2/5
f 249/2/5 244/2/5 243/2/5
f 250/2/5 244/2/5 249/2/5
f 253/2/5 248/2/5 247/2/5
f 254/2/5 248/2/5 253/2/5
f 255/2/5 251/2/5 250/2/5
f 256/2/5 251/2/5 255/2/5
f 257/2/5 253/2/5 252/2/5
f 258/2/5 253/2/5 257/2/5
f 260/2/5 257/2/5 256/2/5
f 261/2/5 257/2/5 260/2/5
f 263/2/5 260/2/5 259/2/5
f 263/2/5 262/2/5 261/2/5
f 263/2/5 261/2/5 260/2/5
f 264/2/5 262/2/5 263/2/5
f 265/2/5 262/2/5 264/2/5
f 266/2/5 262/2/5 265/2/5
f 267/2/5 265/2/5 264/2/5
f 268/2/5 265/2/5 267/2/5
f 269/2/6 270/2/6 272/2/6
f 272/2/6 270/2/6 273/2/6
f 271/2/6 272/2/6 275/2/6
f 273/2/6 274/2/6 275/2/6
f 272/2/6 273/2/6 275/2/6
f 275/2/6 274/2/6 276/2/6
f 276/2/6 274/2/6 277/2/6
f 277/2/6 274/2/6 278/2/6
f 276/2/6 277/2/6 280/2/6
f 280/2/6 277/2/6 281/2/6
f 279/2/6 280/2/6 284/2/6
f 284/2/6 280/2/6 285/2/6
f 281/2/6 282/2/6 286/2/6
f 286/2/6 282/2/6 287/2/6
f 283/2/6 284/2/6 289/2/6
f 289/2/6 284/2/6 290/2/6
f 287/2/6 288/2/6 293/2/6
f 293/2/6 288/2/6 294/2/6
f 290/2/6 291/2/6 295/2/6
f 295/2/6 291/2/6 296/2/6
f 292/2/6 293/2/6 297/2/6
f 297/2/6 293/2/6 298/2/6
f 296/2/6 297/2/6 300/2/6
f 300/2/6 297/2/6 301/2/6
f 299/2/6 300/2/6 303/2/6
f 301/2/6 302/2/6 303/2/6
f 300/2/6 301/2/6 303/2/6
f 303/2/6 302/2/6 304/2/6
f 304/2/6 302/2/6 305/2/6
f 305/2/6 302/2/6 306/2/6
f 304/2/6 305/2/6 307/2/6
f 307/2/6 305/2/6 308/2/6
f 309/1/6 310/1/6 312/1/6
f 312/1/6 310/1/6 313/1/6
f 311/1/6 312/1/6 315/1/6
f 315/1/6 312/1/6 316/1/6
f 313/1/6 314/1/6 317/1/6
f 317/1/6 314/1/6 318/1/6
f 316/1/6 317/1/6 319/1/6
f 319/1/6 317/1/6 320/1/6
f 321/1/6 322/1/6 323/1/6
f 323/1/6 322/1/6 324/1/6
