# MagicaVoxel @ Ephtracy

# group
o 

# material
mtllib models_for_game-17.mtl
usemtl palette

# normals
vn -1 0 0
vn 1 0 0
vn 0 0 1
vn 0 0 -1
vn 0 -1 0
vn 0 1 0

# texcoords
vt 0.884766 0.5
vt 0.892578 0.5

# verts
v -0.3 0.9 -0.3
v -0.3 0.9 -0.5
v -0.3 0.9 -0.6
v -0.3 1 -0.5
v -0.3 1 -0.6
v -0.3 1.1 -0.3
v -0.3 1.1 -0.4
v -0.3 1.1 -0.5
v -0.3 1.1 -0.6
v -0.3 1.2 -0.3
v -0.3 1.2 -0.4
v -0.3 1.2 -0.5
v -0.3 1.2 -0.6
v -2.98023e-08 0.9 -0.3
v -2.98023e-08 0.9 -0.6
v -2.98023e-08 1.1 -0.5
v -2.98023e-08 1.1 -0.6
v -2.98023e-08 1.2 -0.3
v -2.98023e-08 1.2 -0.5
v -2.98023e-08 1.2 -0.6
v -0.3 0.9 -0.3
v -0.3 1.1 -0.3
v -0.3 1.2 -0.3
v -0.2 1.1 -0.3
v -0.2 1.2 -0.3
v -2.98023e-08 0.9 -0.3
v -2.98023e-08 1.2 -0.3
v -0.3 0.9 -0.6
v -0.3 1 -0.6
v -0.3 1.1 -0.6
v -0.3 1.2 -0.6
v -0.1 0.9 -0.6
v -0.1 1 -0.6
v -2.98023e-08 0.9 -0.6
v -2.98023e-08 1.1 -0.6
v -2.98023e-08 1.2 -0.6
v -0.3 0.9 -0.3
v -2.98023e-08 0.9 -0.3
v -0.3 0.9 -0.5
v -0.1 0.9 -0.5
v -0.3 0.9 -0.6
v -0.1 0.9 -0.6
v -2.98023e-08 0.9 -0.6
v -0.3 1.2 -0.3
v -0.2 1.2 -0.3
v -2.98023e-08 1.2 -0.3
v -0.3 1.2 -0.4
v -0.2 1.2 -0.4
v -0.3 1.2 -0.5
v -2.98023e-08 1.2 -0.5
v -0.3 1.2 -0.6
v -2.98023e-08 1.2 -0.6

# faces
f 4/1/1 2/1/1 1/1/1
f 4/2/1 3/2/1 2/2/1
f 5/2/1 3/2/1 4/2/1
f 6/1/1 4/1/1 1/1/1
f 6/1/1 5/1/1 4/1/1
f 7/1/1 5/1/1 6/1/1
f 8/1/1 5/1/1 7/1/1
f 9/1/1 5/1/1 8/1/1
f 10/2/1 7/2/1 6/2/1
f 11/1/1 8/1/1 7/1/1
f 11/2/1 7/2/1 10/2/1
f 12/2/1 9/2/1 8/2/1
f 12/1/1 8/1/1 11/1/1
f 13/2/1 9/2/1 12/2/1
f 14/1/2 15/1/2 16/1/2
f 16/1/2 15/1/2 17/1/2
f 14/1/2 16/1/2 18/1/2
f 16/2/2 17/2/2 19/2/2
f 18/1/2 16/1/2 19/1/2
f 19/2/2 17/2/2 20/2/2
f 24/1/3 22/1/3 21/1/3
f 24/2/3 23/2/3 22/2/3
f 25/2/3 23/2/3 24/2/3
f 26/1/3 24/1/3 21/1/3
f 26/1/3 25/1/3 24/1/3
f 27/1/3 25/1/3 26/1/3
f 28/2/4 29/2/4 32/2/4
f 29/1/4 30/1/4 33/1/4
f 32/2/4 29/2/4 33/2/4
f 32/1/4 33/1/4 34/1/4
f 30/2/4 31/2/4 35/2/4
f 34/1/4 33/1/4 35/1/4
f 33/1/4 30/1/4 35/1/4
f 35/2/4 31/2/4 36/2/4
f 39/1/5 38/1/5 37/1/5
f 40/1/5 38/1/5 39/1/5
f 41/2/5 40/2/5 39/2/5
f 42/1/5 38/1/5 40/1/5
f 42/2/5 40/2/5 41/2/5
f 43/1/5 38/1/5 42/1/5
f 44/2/6 45/2/6 47/2/6
f 45/1/6 46/1/6 48/1/6
f 47/2/6 45/2/6 48/2/6
f 47/1/6 48/1/6 49/1/6
f 48/1/6 46/1/6 50/1/6
f 49/1/6 48/1/6 50/1/6
f 49/2/6 50/2/6 51/2/6
f 51/2/6 50/2/6 52/2/6
