# MagicaVoxel @ Ephtracy

# group
o 

# material
mtllib models_for_game-3.mtl
usemtl palette

# normals
vn -1 0 0
vn 1 0 0
vn 0 0 1
vn 0 0 -1
vn 0 -1 0
vn 0 1 0

# texcoords
vt 0.884766 0.5
vt 0.892578 0.5

# verts
v -0.6 0.9 0.3
v -0.6 0.9 2.98023e-08
v -0.6 1.1 0.3
v -0.6 1.1 2.98023e-08
v -0.6 1.2 0.3
v -0.6 1.2 2.98023e-08
v -0.3 0.9 0.3
v -0.3 0.9 2.98023e-08
v -0.3 1.1 0.3
v -0.3 1.1 2.98023e-08
v -0.3 1.2 0.3
v -0.3 1.2 2.98023e-08
v -0.6 0.9 0.3
v -0.6 1.1 0.3
v -0.6 1.2 0.3
v -0.5 1.1 0.3
v -0.5 1.2 0.3
v -0.4 1.1 0.3
v -0.4 1.2 0.3
v -0.3 0.9 0.3
v -0.3 1.1 0.3
v -0.3 1.2 0.3
v -0.6 0.9 2.98023e-08
v -0.6 1.1 2.98023e-08
v -0.6 1.2 2.98023e-08
v -0.5 1.1 2.98023e-08
v -0.5 1.2 2.98023e-08
v -0.4 1.1 2.98023e-08
v -0.4 1.2 2.98023e-08
v -0.3 0.9 2.98023e-08
v -0.3 1.1 2.98023e-08
v -0.3 1.2 2.98023e-08
v -0.6 0.9 0.3
v -0.3 0.9 0.3
v -0.6 0.9 2.98023e-08
v -0.3 0.9 2.98023e-08
v -0.6 1.2 0.3
v -0.5 1.2 0.3
v -0.4 1.2 0.3
v -0.3 1.2 0.3
v -0.6 1.2 2.98023e-08
v -0.5 1.2 2.98023e-08
v -0.4 1.2 2.98023e-08
v -0.3 1.2 2.98023e-08

# faces
f 3/1/1 2/1/1 1/1/1
f 4/1/1 2/1/1 3/1/1
f 5/2/1 4/2/1 3/2/1
f 6/2/1 4/2/1 5/2/1
f 7/1/2 8/1/2 9/1/2
f 9/1/2 8/1/2 10/1/2
f 9/2/2 10/2/2 11/2/2
f 11/2/2 10/2/2 12/2/2
f 16/1/3 14/1/3 13/1/3
f 16/2/3 15/2/3 14/2/3
f 17/2/3 15/2/3 16/2/3
f 18/1/3 16/1/3 13/1/3
f 18/1/3 17/1/3 16/1/3
f 19/1/3 17/1/3 18/1/3
f 20/1/3 18/1/3 13/1/3
f 21/2/3 19/2/3 18/2/3
f 21/1/3 18/1/3 20/1/3
f 22/2/3 19/2/3 21/2/3
f 23/1/4 24/1/4 26/1/4
f 24/2/4 25/2/4 26/2/4
f 26/2/4 25/2/4 27/2/4
f 23/1/4 26/1/4 28/1/4
f 26/1/4 27/1/4 28/1/4
f 28/1/4 27/1/4 29/1/4
f 23/1/4 28/1/4 30/1/4
f 28/2/4 29/2/4 31/2/4
f 30/1/4 28/1/4 31/1/4
f 31/2/4 29/2/4 32/2/4
f 35/1/5 34/1/5 33/1/5
f 36/1/5 34/1/5 35/1/5
f 37/2/6 38/2/6 41/2/6
f 38/1/6 39/1/6 42/1/6
f 41/2/6 38/2/6 42/2/6
f 39/2/6 40/2/6 43/2/6
f 42/1/6 39/1/6 43/1/6
f 43/2/6 40/2/6 44/2/6
