# MagicaVoxel @ Ephtracy

# group
o 

# material
mtllib models_for_game-55.mtl
usemtl palette

# normals
vn -1 0 0
vn 1 0 0
vn 0 0 1
vn 0 0 -1
vn 0 -1 0
vn 0 1 0

# texcoords
vt 0.884766 0.5
vt 0.892578 0.5

# verts
v 0.3 0.3 0.6
v 0.3 0.3 0.5
v 0.3 0.3 0.3
v 0.3 0.4 0.6
v 0.3 0.4 0.5
v 0.3 0.6 0.6
v 0.3 0.6 0.3
v 0.6 0.3 0.6
v 0.6 0.3 0.5
v 0.6 0.3 0.3
v 0.6 0.6 0.6
v 0.6 0.6 0.5
v 0.6 0.6 0.3
v 0.3 0.3 0.6
v 0.3 0.4 0.6
v 0.3 0.6 0.6
v 0.4 0.3 0.6
v 0.4 0.4 0.6
v 0.5 0.3 0.6
v 0.5 0.6 0.6
v 0.6 0.3 0.6
v 0.6 0.6 0.6
v 0.3 0.3 0.3
v 0.3 0.6 0.3
v 0.6 0.3 0.3
v 0.6 0.6 0.3
v 0.3 0.3 0.6
v 0.4 0.3 0.6
v 0.5 0.3 0.6
v 0.6 0.3 0.6
v 0.3 0.3 0.5
v 0.4 0.3 0.5
v 0.5 0.3 0.5
v 0.6 0.3 0.5
v 0.3 0.3 0.3
v 0.6 0.3 0.3
v 0.3 0.6 0.6
v 0.5 0.6 0.6
v 0.6 0.6 0.6
v 0.5 0.6 0.5
v 0.6 0.6 0.5
v 0.3 0.6 0.3
v 0.6 0.6 0.3

# faces
f 4/2/1 2/2/1 1/2/1
f 5/1/1 3/1/1 2/1/1
f 5/2/1 2/2/1 4/2/1
f 6/1/1 5/1/1 4/1/1
f 7/1/1 3/1/1 5/1/1
f 7/1/1 5/1/1 6/1/1
f 8/2/2 9/2/2 11/2/2
f 9/1/2 10/1/2 12/1/2
f 11/2/2 9/2/2 12/2/2
f 12/1/2 10/1/2 13/1/2
f 17/2/3 15/2/3 14/2/3
f 18/1/3 16/1/3 15/1/3
f 18/2/3 15/2/3 17/2/3
f 19/1/3 18/1/3 17/1/3
f 20/1/3 16/1/3 18/1/3
f 20/1/3 18/1/3 19/1/3
f 21/2/3 20/2/3 19/2/3
f 22/2/3 20/2/3 21/2/3
f 23/1/4 24/1/4 25/1/4
f 25/1/4 24/1/4 26/1/4
f 31/2/5 28/2/5 27/2/5
f 32/1/5 29/1/5 28/1/5
f 32/2/5 28/2/5 31/2/5
f 33/2/5 30/2/5 29/2/5
f 33/1/5 29/1/5 32/1/5
f 34/2/5 30/2/5 33/2/5
f 35/1/5 32/1/5 31/1/5
f 35/1/5 33/1/5 32/1/5
f 35/1/5 34/1/5 33/1/5
f 36/1/5 34/1/5 35/1/5
f 37/1/6 38/1/6 40/1/6
f 38/2/6 39/2/6 40/2/6
f 40/2/6 39/2/6 41/2/6
f 37/1/6 40/1/6 42/1/6
f 40/1/6 41/1/6 42/1/6
f 42/1/6 41/1/6 43/1/6
