# MagicaVoxel @ Ephtracy

# group
o 

# material
mtllib models_for_game-47.mtl
usemtl palette

# normals
vn -1 0 0
vn 1 0 0
vn 0 0 1
vn 0 0 -1
vn 0 -1 0
vn 0 1 0

# texcoords
vt 0.884766 0.5
vt 0.892578 0.5

# verts
v -2.23517e-08 0 -0.3
v -2.23517e-08 0 -0.5
v -2.23517e-08 0 -0.6
v -2.23517e-08 0.1 -0.5
v -2.23517e-08 0.1 -0.6
v -2.23517e-08 0.3 -0.3
v -2.23517e-08 0.3 -0.6
v 0.3 0 -0.3
v 0.3 0 -0.5
v 0.3 0 -0.6
v 0.3 0.1 -0.5
v 0.3 0.1 -0.6
v 0.3 0.2 -0.5
v 0.3 0.2 -0.6
v 0.3 0.3 -0.3
v 0.3 0.3 -0.5
v 0.3 0.3 -0.6
v -2.23517e-08 0 -0.3
v -2.23517e-08 0.3 -0.3
v 0.3 0 -0.3
v 0.3 0.3 -0.3
v -2.23517e-08 0 -0.6
v -2.23517e-08 0.1 -0.6
v -2.23517e-08 0.3 -0.6
v 0.2 0.2 -0.6
v 0.2 0.3 -0.6
v 0.3 0 -0.6
v 0.3 0.1 -0.6
v 0.3 0.2 -0.6
v 0.3 0.3 -0.6
v -2.23517e-08 0 -0.3
v 0.3 0 -0.3
v -2.23517e-08 0 -0.5
v 0.3 0 -0.5
v -2.23517e-08 0 -0.6
v 0.3 0 -0.6
v -2.23517e-08 0.3 -0.3
v 0.3 0.3 -0.3
v 0.2 0.3 -0.5
v 0.3 0.3 -0.5
v -2.23517e-08 0.3 -0.6
v 0.2 0.3 -0.6
v 0.3 0.3 -0.6

# faces
f 4/1/1 2/1/1 1/1/1
f 4/2/1 3/2/1 2/2/1
f 5/2/1 3/2/1 4/2/1
f 6/1/1 4/1/1 1/1/1
f 6/1/1 5/1/1 4/1/1
f 7/1/1 5/1/1 6/1/1
f 8/1/2 9/1/2 11/1/2
f 9/2/2 10/2/2 11/2/2
f 11/2/2 10/2/2 12/2/2
f 8/1/2 11/1/2 13/1/2
f 11/1/2 12/1/2 13/1/2
f 13/1/2 12/1/2 14/1/2
f 8/1/2 13/1/2 15/1/2
f 13/2/2 14/2/2 16/2/2
f 15/1/2 13/1/2 16/1/2
f 16/2/2 14/2/2 17/2/2
f 20/1/3 19/1/3 18/1/3
f 21/1/3 19/1/3 20/1/3
f 23/1/4 24/1/4 25/1/4
f 25/1/4 24/1/4 26/1/4
f 22/2/4 23/2/4 27/2/4
f 23/1/4 25/1/4 28/1/4
f 27/2/4 23/2/4 28/2/4
f 25/2/4 26/2/4 29/2/4
f 28/1/4 25/1/4 29/1/4
f 29/2/4 26/2/4 30/2/4
f 33/1/5 32/1/5 31/1/5
f 34/1/5 32/1/5 33/1/5
f 35/2/5 34/2/5 33/2/5
f 36/2/5 34/2/5 35/2/5
f 37/1/6 38/1/6 39/1/6
f 39/1/6 38/1/6 40/1/6
f 37/1/6 39/1/6 41/1/6
f 39/2/6 40/2/6 42/2/6
f 41/1/6 39/1/6 42/1/6
f 42/2/6 40/2/6 43/2/6
