# MagicaVoxel @ Ephtracy

# group
o 

# material
mtllib models_for_game-31.mtl
usemtl palette

# normals
vn -1 0 0
vn 1 0 0
vn 0 0 1
vn 0 0 -1
vn 0 -1 0
vn 0 1 0

# texcoords
vt 0.884766 0.5
vt 0.892578 0.5

# verts
v 0.3 0.9 0.3
v 0.3 0.9 2.98023e-08
v 0.3 1.1 0.3
v 0.3 1.1 0.1
v 0.3 1.2 0.3
v 0.3 1.2 0.1
v 0.3 1.2 2.98023e-08
v 0.6 0.9 0.3
v 0.6 0.9 2.98023e-08
v 0.6 1 0.3
v 0.6 1 2.98023e-08
v 0.6 1.1 0.3
v 0.6 1.1 2.98023e-08
v 0.6 1.2 0.3
v 0.6 1.2 2.98023e-08
v 0.3 0.9 0.3
v 0.3 1.1 0.3
v 0.3 1.2 0.3
v 0.4 1.1 0.3
v 0.4 1.2 0.3
v 0.5 0.9 0.3
v 0.5 1 0.3
v 0.5 1.1 0.3
v 0.5 1.2 0.3
v 0.6 0.9 0.3
v 0.6 1 0.3
v 0.6 1.1 0.3
v 0.6 1.2 0.3
v 0.3 0.9 2.98023e-08
v 0.3 1.2 2.98023e-08
v 0.5 0.9 2.98023e-08
v 0.5 1 2.98023e-08
v 0.5 1.1 2.98023e-08
v 0.5 1.2 2.98023e-08
v 0.6 0.9 2.98023e-08
v 0.6 1 2.98023e-08
v 0.6 1.1 2.98023e-08
v 0.6 1.2 2.98023e-08
v 0.3 0.9 0.3
v 0.5 0.9 0.3
v 0.6 0.9 0.3
v 0.3 0.9 2.98023e-08
v 0.5 0.9 2.98023e-08
v 0.6 0.9 2.98023e-08
v 0.3 1.2 0.3
v 0.4 1.2 0.3
v 0.5 1.2 0.3
v 0.6 1.2 0.3
v 0.3 1.2 0.1
v 0.4 1.2 0.1
v 0.3 1.2 2.98023e-08
v 0.5 1.2 2.98023e-08
v 0.6 1.2 2.98023e-08

# faces
f 3/1/1 2/1/1 1/1/1
f 4/1/1 2/1/1 3/1/1
f 5/2/1 4/2/1 3/2/1
f 6/1/1 2/1/1 4/1/1
f 6/2/1 4/2/1 5/2/1
f 7/1/1 2/1/1 6/1/1
f 8/2/2 9/2/2 10/2/2
f 10/2/2 9/2/2 11/2/2
f 10/1/2 11/1/2 12/1/2
f 12/1/2 11/1/2 13/1/2
f 12/2/2 13/2/2 14/2/2
f 14/2/2 13/2/2 15/2/2
f 19/1/3 17/1/3 16/1/3
f 19/2/3 18/2/3 17/2/3
f 20/2/3 18/2/3 19/2/3
f 21/1/3 19/1/3 16/1/3
f 21/1/3 20/1/3 19/1/3
f 22/1/3 20/1/3 21/1/3
f 23/1/3 20/1/3 22/1/3
f 24/1/3 20/1/3 23/1/3
f 25/2/3 22/2/3 21/2/3
f 26/1/3 23/1/3 22/1/3
f 26/2/3 22/2/3 25/2/3
f 27/2/3 24/2/3 23/2/3
f 27/1/3 23/1/3 26/1/3
f 28/2/3 24/2/3 27/2/3
f 29/1/4 30/1/4 31/1/4
f 31/1/4 30/1/4 32/1/4
f 32/1/4 30/1/4 33/1/4
f 33/1/4 30/1/4 34/1/4
f 31/2/4 32/2/4 35/2/4
f 32/1/4 33/1/4 36/1/4
f 35/2/4 32/2/4 36/2/4
f 33/2/4 34/2/4 37/2/4
f 36/1/4 33/1/4 37/1/4
f 37/2/4 34/2/4 38/2/4
f 42/1/5 40/1/5 39/1/5
f 43/2/5 41/2/5 40/2/5
f 43/1/5 40/1/5 42/1/5
f 44/2/5 41/2/5 43/2/5
f 45/2/6 46/2/6 49/2/6
f 46/1/6 47/1/6 50/1/6
f 49/2/6 46/2/6 50/2/6
f 49/1/6 50/1/6 51/1/6
f 47/2/6 48/2/6 52/2/6
f 51/1/6 50/1/6 52/1/6
f 50/1/6 47/1/6 52/1/6
f 52/2/6 48/2/6 53/2/6
