# MagicaVoxel @ Ephtracy

# group
o 

# material
mtllib models_for_game-48.mtl
usemtl palette

# normals
vn -1 0 0
vn 1 0 0
vn 0 0 1
vn 0 0 -1
vn 0 -1 0
vn 0 1 0

# texcoords
vt 0.884766 0.5
vt 0.892578 0.5

# verts
v 0.3 0 -0.3
v 0.3 0 -0.5
v 0.3 0 -0.6
v 0.3 0.1 -0.5
v 0.3 0.1 -0.6
v 0.3 0.2 -0.5
v 0.3 0.2 -0.6
v 0.3 0.3 -0.3
v 0.3 0.3 -0.5
v 0.3 0.3 -0.6
v 0.6 0 -0.3
v 0.6 0 -0.6
v 0.6 0.1 -0.3
v 0.6 0.1 -0.5
v 0.6 0.3 -0.3
v 0.6 0.3 -0.5
v 0.6 0.3 -0.6
v 0.3 0 -0.3
v 0.3 0.3 -0.3
v 0.5 0 -0.3
v 0.5 0.1 -0.3
v 0.6 0 -0.3
v 0.6 0.1 -0.3
v 0.6 0.3 -0.3
v 0.3 0 -0.6
v 0.3 0.1 -0.6
v 0.3 0.2 -0.6
v 0.3 0.3 -0.6
v 0.4 0.2 -0.6
v 0.4 0.3 -0.6
v 0.5 0.1 -0.6
v 0.5 0.3 -0.6
v 0.6 0 -0.6
v 0.6 0.3 -0.6
v 0.3 0 -0.3
v 0.5 0 -0.3
v 0.6 0 -0.3
v 0.3 0 -0.5
v 0.5 0 -0.5
v 0.3 0 -0.6
v 0.6 0 -0.6
v 0.3 0.3 -0.3
v 0.6 0.3 -0.3
v 0.3 0.3 -0.5
v 0.4 0.3 -0.5
v 0.5 0.3 -0.5
v 0.6 0.3 -0.5
v 0.3 0.3 -0.6
v 0.4 0.3 -0.6
v 0.5 0.3 -0.6
v 0.6 0.3 -0.6

# faces
f 4/1/1 2/1/1 1/1/1
f 4/2/1 3/2/1 2/2/1
f 5/2/1 3/2/1 4/2/1
f 6/1/1 4/1/1 1/1/1
f 6/1/1 5/1/1 4/1/1
f 7/1/1 5/1/1 6/1/1
f 8/1/1 6/1/1 1/1/1
f 9/2/1 7/2/1 6/2/1
f 9/1/1 6/1/1 8/1/1
f 10/2/1 7/2/1 9/2/1
f 11/2/2 12/2/2 13/2/2
f 13/2/2 12/2/2 14/2/2
f 13/1/2 14/1/2 15/1/2
f 14/2/2 12/2/2 16/2/2
f 15/1/2 14/1/2 16/1/2
f 16/2/2 12/2/2 17/2/2
f 20/1/3 19/1/3 18/1/3
f 21/1/3 19/1/3 20/1/3
f 22/2/3 21/2/3 20/2/3
f 23/1/3 19/1/3 21/1/3
f 23/2/3 21/2/3 22/2/3
f 24/1/3 19/1/3 23/1/3
f 26/1/4 27/1/4 29/1/4
f 27/2/4 28/2/4 29/2/4
f 29/2/4 28/2/4 30/2/4
f 25/2/4 26/2/4 31/2/4
f 26/1/4 29/1/4 31/1/4
f 29/1/4 30/1/4 31/1/4
f 31/1/4 30/1/4 32/1/4
f 25/2/4 31/2/4 33/2/4
f 31/2/4 32/2/4 33/2/4
f 33/2/4 32/2/4 34/2/4
f 38/1/5 36/1/5 35/1/5
f 39/2/5 37/2/5 36/2/5
f 39/1/5 36/1/5 38/1/5
f 40/2/5 39/2/5 38/2/5
f 41/2/5 37/2/5 39/2/5
f 41/2/5 39/2/5 40/2/5
f 42/1/6 43/1/6 44/1/6
f 44/1/6 43/1/6 45/1/6
f 45/1/6 43/1/6 46/1/6
f 46/1/6 43/1/6 47/1/6
f 44/2/6 45/2/6 48/2/6
f 45/1/6 46/1/6 49/1/6
f 48/2/6 45/2/6 49/2/6
f 46/2/6 47/2/6 50/2/6
f 49/1/6 46/1/6 50/1/6
f 50/2/6 47/2/6 51/2/6
