# MagicaVoxel @ Ephtracy

# group
o 

# material
mtllib models_for_game-11.mtl
usemtl palette

# normals
vn -1 0 0
vn 1 0 0
vn 0 0 1
vn 0 0 -1
vn 0 -1 0
vn 0 1 0

# texcoords
vt 0.884766 0.5
vt 0.896484 0.5

# verts
v -0.6 0.3 0.3
v -0.6 0.3 0.2
v -0.6 0.3 2.98023e-08
v -0.6 0.4 0.2
v -0.6 0.4 2.98023e-08
v -0.6 0.6 0.3
v -0.6 0.6 2.98023e-08
v -0.3 0.3 0.3
v -0.3 0.3 2.98023e-08
v -0.3 0.6 0.3
v -0.3 0.6 2.98023e-08
v -0.6 0.3 0.3
v -0.6 0.6 0.3
v -0.3 0.3 0.3
v -0.3 0.6 0.3
v -0.6 0.3 2.98023e-08
v -0.6 0.4 2.98023e-08
v -0.6 0.6 2.98023e-08
v -0.5 0.3 2.98023e-08
v -0.5 0.4 2.98023e-08
v -0.3 0.3 2.98023e-08
v -0.3 0.6 2.98023e-08
v -0.6 0.3 0.3
v -0.3 0.3 0.3
v -0.6 0.3 0.2
v -0.5 0.3 0.2
v -0.6 0.3 2.98023e-08
v -0.5 0.3 2.98023e-08
v -0.3 0.3 2.98023e-08
v -0.6 0.6 0.3
v -0.3 0.6 0.3
v -0.6 0.6 2.98023e-08
v -0.3 0.6 2.98023e-08

# faces
f 4/1/1 2/1/1 1/1/1
f 4/2/1 3/2/1 2/2/1
f 5/2/1 3/2/1 4/2/1
f 6/1/1 4/1/1 1/1/1
f 6/1/1 5/1/1 4/1/1
f 7/1/1 5/1/1 6/1/1
f 8/1/2 9/1/2 10/1/2
f 10/1/2 9/1/2 11/1/2
f 14/1/3 13/1/3 12/1/3
f 15/1/3 13/1/3 14/1/3
f 16/2/4 17/2/4 19/2/4
f 17/1/4 18/1/4 20/1/4
f 19/2/4 17/2/4 20/2/4
f 19/1/4 20/1/4 21/1/4
f 20/1/4 18/1/4 22/1/4
f 21/1/4 20/1/4 22/1/4
f 25/1/5 24/1/5 23/1/5
f 26/1/5 24/1/5 25/1/5
f 27/2/5 26/2/5 25/2/5
f 28/1/5 24/1/5 26/1/5
f 28/2/5 26/2/5 27/2/5
f 29/1/5 24/1/5 28/1/5
f 30/1/6 31/1/6 32/1/6
f 32/1/6 31/1/6 33/1/6
