# MagicaVoxel @ Ephtracy

# group
o 

# material
mtllib SignCross-0.mtl
usemtl palette

# normals
vn -1 0 0
vn 1 0 0
vn 0 0 1
vn 0 0 -1
vn 0 -1 0
vn 0 1 0

# texcoords
vt 0.533203 0.5
vt 0.537109 0.5
vt 0.966797 0.5

# verts
v 0 0 0.1
v 0 0 0
v 0 0.2 0.1
v 0 0.2 0
v 0 0.3 0.1
v 0 0.3 0
v 0 0.4 0.5
v 0 0.4 0.1
v 0 0.4 0
v 0 0.4 -0.1
v 0 0.4 -0.4
v 0 0.5 0.4
v 0 0.5 0.1
v 0 0.5 -0.1
v 0 0.5 -0.4
v 0 0.6 0.4
v 0 0.6 0.2
v 0 0.6 0.1
v 0 0.6 0
v 0 0.6 -0.1
v 0 0.6 -0.2
v 0 0.7 0.3
v 0 0.7 0.2
v 0 0.7 0.1
v 0 0.7 0
v 0 0.7 -0.1
v 0 0.7 -0.2
v 0 0.8 0.3
v 0 0.8 0.2
v 0 0.8 0.1
v 0 0.8 0
v 0 0.8 -0.1
v 0 0.8 -0.4
v 0 0.9 0.5
v 0 0.9 0.2
v 0 0.9 0.1
v 0 0.9 0
v 0 0.9 -0.1
v 0 0.9 -0.4
v 0 1 0.5
v 0 1 0.2
v 0 1 0.1
v 0 1 -0.3
v 0 1.1 0.5
v 0 1.1 0.1
v 0 1.1 -0.3
v 0 1.1 -0.4
v 0.1 0 0.1
v 0.1 0 0
v 0.1 0.2 0.1
v 0.1 0.2 0
v 0.1 0.3 0.1
v 0.1 0.3 0
v 0.1 0.4 0.5
v 0.1 0.4 0.1
v 0.1 0.4 0
v 0.1 0.4 -0.1
v 0.1 0.4 -0.4
v 0.1 0.5 0.4
v 0.1 0.5 0.1
v 0.1 0.5 -0.1
v 0.1 0.5 -0.4
v 0.1 0.6 0.4
v 0.1 0.6 0.2
v 0.1 0.6 0.1
v 0.1 0.6 0
v 0.1 0.6 -0.1
v 0.1 0.6 -0.2
v 0.1 0.7 0.3
v 0.1 0.7 0.2
v 0.1 0.7 0.1
v 0.1 0.7 0
v 0.1 0.7 -0.1
v 0.1 0.7 -0.2
v 0.1 0.8 0.3
v 0.1 0.8 0.2
v 0.1 0.8 0.1
v 0.1 0.8 0
v 0.1 0.8 -0.1
v 0.1 0.8 -0.4
v 0.1 0.9 0.5
v 0.1 0.9 0.2
v 0.1 0.9 0.1
v 0.1 0.9 0
v 0.1 0.9 -0.1
v 0.1 0.9 -0.4
v 0.1 1 0.5
v 0.1 1 0.2
v 0.1 1 0.1
v 0.1 1 -0.3
v 0.1 1.1 0.5
v 0.1 1.1 0.1
v 0.1 1.1 -0.3
v 0.1 1.1 -0.4
v 0 0.4 0.5
v 0 0.9 0.5
v 0 1 0.5
v 0 1.1 0.5
v 0.1 0.4 0.5
v 0.1 0.9 0.5
v 0.1 1 0.5
v 0.1 1.1 0.5
v 0 0 0.1
v 0 0.2 0.1
v 0 0.3 0.1
v 0 0.4 0.1
v 0.1 0 0.1
v 0.1 0.2 0.1
v 0.1 0.3 0.1
v 0.1 0.4 0.1
v 0 0 0
v 0 0.2 0
v 0 0.3 0
v 0 0.4 0
v 0.1 0 0
v 0.1 0.2 0
v 0.1 0.3 0
v 0.1 0.4 0
v 0 0.4 -0.4
v 0 0.5 -0.4
v 0 0.8 -0.4
v 0 0.9 -0.4
v 0 1.1 -0.4
v 0.1 0.4 -0.4
v 0.1 0.5 -0.4
v 0.1 0.8 -0.4
v 0.1 0.9 -0.4
v 0.1 1.1 -0.4
v 0 0 0.1
v 0.1 0 0.1
v 0 0 0
v 0.1 0 0
v 0 0.4 0.5
v 0.1 0.4 0.5
v 0 0.4 0.1
v 0.1 0.4 0.1
v 0 0.4 0
v 0.1 0.4 0
v 0 0.4 -0.1
v 0.1 0.4 -0.1
v 0 0.4 -0.4
v 0.1 0.4 -0.4
v 0 1.1 0.5
v 0.1 1.1 0.5
v 0 1.1 0.1
v 0.1 1.1 0.1
v 0 1.1 -0.3
v 0.1 1.1 -0.3
v 0 1.1 -0.4
v 0.1 1.1 -0.4

# faces
f 3/2/1 2/2/1 1/2/1
f 4/2/1 2/2/1 3/2/1
f 5/1/1 4/1/1 3/1/1
f 6/1/1 4/1/1 5/1/1
f 8/2/1 6/2/1 5/2/1
f 9/2/1 6/2/1 8/2/1
f 12/2/1 9/2/1 8/2/1
f 12/2/1 8/2/1 7/2/1
f 12/2/1 10/2/1 9/2/1
f 13/2/1 10/2/1 12/2/1
f 14/1/1 11/1/1 10/1/1
f 14/2/1 10/2/1 13/2/1
f 15/1/1 11/1/1 14/1/1
f 16/1/1 13/1/1 12/1/1
f 16/2/1 12/2/1 7/2/1
f 17/1/1 13/1/1 16/1/1
f 18/2/1 15/2/1 14/2/1
f 18/1/1 13/1/1 17/1/1
f 18/2/1 14/2/1 13/2/1
f 19/2/1 15/2/1 18/2/1
f 20/2/1 15/2/1 19/2/1
f 21/2/1 15/2/1 20/2/1
f 22/2/1 17/2/1 16/2/1
f 23/3/1 18/3/1 17/3/1
f 23/2/1 17/2/1 22/2/1
f 24/2/1 19/2/1 18/2/1
f 24/3/1 18/3/1 23/3/1
f 25/3/1 20/3/1 19/3/1
f 25/2/1 19/2/1 24/2/1
f 26/1/1 21/1/1 20/1/1
f 26/3/1 20/3/1 25/3/1
f 27/2/1 15/2/1 21/2/1
f 27/1/1 21/1/1 26/1/1
f 28/2/1 22/2/1 16/2/1
f 28/1/1 23/1/1 22/1/1
f 28/1/1 24/1/1 23/1/1
f 29/1/1 24/1/1 28/1/1
f 30/3/1 25/3/1 24/3/1
f 30/1/1 24/1/1 29/1/1
f 31/2/1 26/2/1 25/2/1
f 31/3/1 25/3/1 30/3/1
f 31/2/1 27/2/1 26/2/1
f 32/2/1 27/2/1 31/2/1
f 33/2/1 15/2/1 27/2/1
f 33/2/1 27/2/1 32/2/1
f 34/2/1 16/2/1 7/2/1
f 34/2/1 28/2/1 16/2/1
f 34/2/1 29/2/1 28/2/1
f 35/3/1 30/3/1 29/3/1
f 35/2/1 29/2/1 34/2/1
f 36/2/1 31/2/1 30/2/1
f 36/3/1 30/3/1 35/3/1
f 37/3/1 32/3/1 31/3/1
f 37/2/1 31/2/1 36/2/1
f 38/1/1 33/1/1 32/1/1
f 38/3/1 32/3/1 37/3/1
f 39/1/1 33/1/1 38/1/1
f 40/1/1 35/1/1 34/1/1
f 41/2/1 36/2/1 35/2/1
f 41/1/1 35/1/1 40/1/1
f 41/2/1 37/2/1 36/2/1
f 41/2/1 39/2/1 38/2/1
f 41/2/1 38/2/1 37/2/1
f 42/2/1 39/2/1 41/2/1
f 43/2/1 39/2/1 42/2/1
f 44/2/1 41/2/1 40/2/1
f 44/2/1 42/2/1 41/2/1
f 45/1/1 43/1/1 42/1/1
f 45/2/1 42/2/1 44/2/1
f 46/2/1 39/2/1 43/2/1
f 46/1/1 43/1/1 45/1/1
f 47/2/1 39/2/1 46/2/1
f 48/2/2 49/2/2 50/2/2
f 50/2/2 49/2/2 51/2/2
f 50/1/2 51/1/2 52/1/2
f 52/1/2 51/1/2 53/1/2
f 52/2/2 53/2/2 55/2/2
f 55/2/2 53/2/2 56/2/2
f 55/2/2 56/2/2 59/2/2
f 54/2/2 55/2/2 59/2/2
f 56/2/2 57/2/2 59/2/2
f 59/2/2 57/2/2 60/2/2
f 57/1/2 58/1/2 61/1/2
f 60/2/2 57/2/2 61/2/2
f 61/1/2 58/1/2 62/1/2
f 59/1/2 60/1/2 63/1/2
f 54/2/2 59/2/2 63/2/2
f 63/1/2 60/1/2 64/1/2
f 61/2/2 62/2/2 65/2/2
f 64/1/2 60/1/2 65/1/2
f 60/2/2 61/2/2 65/2/2
f 65/2/2 62/2/2 66/2/2
f 66/2/2 62/2/2 67/2/2
f 67/2/2 62/2/2 68/2/2
f 63/2/2 64/2/2 69/2/2
f 64/3/2 65/3/2 70/3/2
f 69/2/2 64/2/2 70/2/2
f 65/2/2 66/2/2 71/2/2
f 70/3/2 65/3/2 71/3/2
f 66/3/2 67/3/2 72/3/2
f 71/2/2 66/2/2 72/2/2
f 67/1/2 68/1/2 73/1/2
f 72/3/2 67/3/2 73/3/2
f 68/2/2 62/2/2 74/2/2
f 73/1/2 68/1/2 74/1/2
f 63/2/2 69/2/2 75/2/2
f 69/1/2 70/1/2 75/1/2
f 70/1/2 71/1/2 75/1/2
f 75/1/2 71/1/2 76/1/2
f 71/3/2 72/3/2 77/3/2
f 76/1/2 71/1/2 77/1/2
f 72/2/2 73/2/2 78/2/2
f 77/3/2 72/3/2 78/3/2
f 73/2/2 74/2/2 78/2/2
f 78/2/2 74/2/2 79/2/2
f 74/2/2 62/2/2 80/2/2
f 79/2/2 74/2/2 80/2/2
f 54/2/2 63/2/2 81/2/2
f 63/2/2 75/2/2 81/2/2
f 75/2/2 76/2/2 81/2/2
f 76/3/2 77/3/2 82/3/2
f 81/2/2 76/2/2 82/2/2
f 77/2/2 78/2/2 83/2/2
f 82/3/2 77/3/2 83/3/2
f 78/3/2 79/3/2 84/3/2
f 83/2/2 78/2/2 84/2/2
f 79/1/2 80/1/2 85/1/2
f 84/3/2 79/3/2 85/3/2
f 85/1/2 80/1/2 86/1/2
f 81/1/2 82/1/2 87/1/2
f 82/2/2 83/2/2 88/2/2
f 87/1/2 82/1/2 88/1/2
f 83/2/2 84/2/2 88/2/2
f 85/2/2 86/2/2 88/2/2
f 84/2/2 85/2/2 88/2/2
f 88/2/2 86/2/2 89/2/2
f 89/2/2 86/2/2 90/2/2
f 87/2/2 88/2/2 91/2/2
f 88/2/2 89/2/2 91/2/2
f 89/1/2 90/1/2 92/1/2
f 91/2/2 89/2/2 92/2/2
f 90/2/2 86/2/2 93/2/2
f 92/1/2 90/1/2 93/1/2
f 93/2/2 86/2/2 94/2/2
f 99/2/3 96/2/3 95/2/3
f 100/1/3 97/1/3 96/1/3
f 100/2/3 96/2/3 99/2/3
f 101/2/3 98/2/3 97/2/3
f 101/1/3 97/1/3 100/1/3
f 102/2/3 98/2/3 101/2/3
f 107/2/3 104/2/3 103/2/3
f 108/1/3 105/1/3 104/1/3
f 108/2/3 104/2/3 107/2/3
f 109/2/3 106/2/3 105/2/3
f 109/1/3 105/1/3 108/1/3
f 110/2/3 106/2/3 109/2/3
f 111/2/4 112/2/4 115/2/4
f 112/1/4 113/1/4 116/1/4
f 115/2/4 112/2/4 116/2/4
f 113/2/4 114/2/4 117/2/4
f 116/1/4 113/1/4 117/1/4
f 117/2/4 114/2/4 118/2/4
f 119/1/4 120/1/4 124/1/4
f 120/2/4 121/2/4 125/2/4
f 124/1/4 120/1/4 125/1/4
f 121/1/4 122/1/4 126/1/4
f 125/2/4 121/2/4 126/2/4
f 122/2/4 123/2/4 127/2/4
f 126/1/4 122/1/4 127/1/4
f 127/2/4 123/2/4 128/2/4
f 131/2/5 130/2/5 129/2/5
f 132/2/5 130/2/5 131/2/5
f 135/2/5 134/2/5 133/2/5
f 136/2/5 134/2/5 135/2/5
f 139/2/5 138/2/5 137/2/5
f 140/2/5 138/2/5 139/2/5
f 141/1/5 140/1/5 139/1/5
f 142/1/5 140/1/5 141/1/5
f 143/2/6 144/2/6 145/2/6
f 145/2/6 144/2/6 146/2/6
f 145/1/6 146/1/6 147/1/6
f 147/1/6 146/1/6 148/1/6
f 147/2/6 148/2/6 149/2/6
f 149/2/6 148/2/6 150/2/6
