# MagicaVoxel @ Ephtracy

# group
o 

# material
mtllib models_for_game3-0.mtl
usemtl palette

# normals
vn 0 0 -1
vn 0 0 1
vn -1 0 0
vn 1 0 0
vn 0 -1 0
vn 0 1 0

# texcoords
vt 0.376953 0.5
vt 0.400391 0.5
vt 0.876953 0.5
vt 0.884766 0.5
vt 0.892578 0.5
vt 0.990234 0.5

# verts
v 0 0 0
v 1.1 0 0
v 0.1 0.1 0
v 1 0.1 0
v 0.4 0.3 0
v 0.6 0.3 0
v 0.4 0.4 0
v 0.6 0.4 0
v 0.3 0.6 0
v 0.4 0.6 0
v 0.7 0.6 0
v 0.8 0.6 0
v 0.3 0.9 0
v 0.4 0.9 0
v 0.7 0.9 0
v 0.8 0.9 0
v 0.1 1 0
v 1 1 0
v 0 1.1 0
v 1.1 1.1 0
v 0 0 1.1
v 1.1 0 1.1
v 0.1 0.1 1.1
v 1 0.1 1.1
v 0.5 0.2 1.1
v 0.8 0.2 1.1
v 0.5 0.3 1.1
v 0.8 0.3 1.1
v 0.3 0.5 1.1
v 0.7 0.5 1.1
v 0.3 0.6 1.1
v 0.7 0.6 1.1
v 0.2 0.8 1.1
v 0.4 0.8 1.1
v 0.6 0.8 1.1
v 0.9 0.8 1.1
v 0.2 0.9 1.1
v 0.4 0.9 1.1
v 0.6 0.9 1.1
v 0.9 0.9 1.1
v 0.1 1 1.1
v 1 1 1.1
v 0 1.1 1.1
v 1.1 1.1 1.1
v 0 0 0
v 0 1.1 0
v 0 0.1 0.1
v 0 1 0.1
v 0 0.8 0.2
v 0 0.9 0.2
v 0 0.5 0.3
v 0 0.6 0.3
v 0 0.5 0.5
v 0 0.6 0.5
v 0 0.8 0.5
v 0 0.9 0.5
v 0 0.2 0.6
v 0 0.3 0.6
v 0 0.4 0.7
v 0 0.5 0.7
v 0 0.4 0.8
v 0 0.5 0.8
v 0 0.2 0.9
v 0 0.3 0.9
v 0 0.1 1
v 0 1 1
v 0 0 1.1
v 0 1.1 1.1
v 1.1 0 0
v 1.1 1.1 0
v 1.1 0.1 0.1
v 1.1 1 0.1
v 1.1 0.2 0.2
v 1.1 0.3 0.2
v 1.1 0.7 0.2
v 1.1 0.8 0.2
v 1.1 0.5 0.5
v 1.1 0.6 0.5
v 1.1 0.7 0.5
v 1.1 0.8 0.5
v 1.1 0.2 0.6
v 1.1 0.3 0.6
v 1.1 0.8 0.7
v 1.1 0.9 0.7
v 1.1 0.5 0.8
v 1.1 0.6 0.8
v 1.1 0.8 0.9
v 1.1 0.9 0.9
v 1.1 0.1 1
v 1.1 1 1
v 1.1 0 1.1
v 1.1 1.1 1.1
v 0 0 0
v 0 0 1.1
v 0.1 0 0.1
v 0.1 0 1
v 0.2 0 0.7
v 0.2 0 0.8
v 0.4 0 0.5
v 0.4 0 0.6
v 0.5 0 0.7
v 0.5 0 0.8
v 0.6 0 0.3
v 0.6 0 0.4
v 0.6 0 0.5
v 0.6 0 0.6
v 0.7 0 0.8
v 0.7 0 0.9
v 0.8 0 0.3
v 0.8 0 0.4
v 0.9 0 0.8
v 0.9 0 0.9
v 1 0 0.1
v 1 0 1
v 1.1 0 0
v 1.1 0 1.1
v 0 1.1 0
v 0 1.1 1.1
v 0.1 1.1 0.1
v 0.1 1.1 1
v 0.2 1.1 0.6
v 0.2 1.1 0.7
v 0.4 1.1 0.3
v 0.4 1.1 0.4
v 0.6 1.1 0.6
v 0.6 1.1 0.7
v 0.7 1.1 0.8
v 0.7 1.1 0.9
v 0.8 1.1 0.3
v 0.8 1.1 0.4
v 0.9 1.1 0.8
v 0.9 1.1 0.9
v 1 1.1 0.1
v 1 1.1 1
v 1.1 1.1 0
v 1.1 1.1 1.1

# faces
f 3/6/1 2/6/1 1/6/1
f 4/6/1 2/6/1 3/6/1
f 5/2/1 4/2/1 3/2/1
f 6/2/1 4/2/1 5/2/1
f 7/2/1 5/2/1 3/2/1
f 7/6/1 6/6/1 5/6/1
f 8/2/1 4/2/1 6/2/1
f 8/6/1 6/6/1 7/6/1
f 9/2/1 7/2/1 3/2/1
f 9/2/1 8/2/1 7/2/1
f 10/2/1 8/2/1 9/2/1
f 11/2/1 4/2/1 8/2/1
f 11/2/1 8/2/1 10/2/1
f 12/2/1 4/2/1 11/2/1
f 13/3/1 10/3/1 9/3/1
f 13/2/1 9/2/1 3/2/1
f 14/2/1 11/2/1 10/2/1
f 14/3/1 10/3/1 13/3/1
f 15/3/1 12/3/1 11/3/1
f 15/2/1 11/2/1 14/2/1
f 16/2/1 4/2/1 12/2/1
f 16/3/1 12/3/1 15/3/1
f 17/6/1 3/6/1 1/6/1
f 17/2/1 15/2/1 14/2/1
f 17/2/1 16/2/1 15/2/1
f 17/2/1 13/2/1 3/2/1
f 17/2/1 14/2/1 13/2/1
f 18/2/1 4/2/1 16/2/1
f 18/2/1 16/2/1 17/2/1
f 18/6/1 2/6/1 4/6/1
f 19/6/1 17/6/1 1/6/1
f 19/6/1 18/6/1 17/6/1
f 20/6/1 2/6/1 18/6/1
f 20/6/1 18/6/1 19/6/1
f 21/6/2 22/6/2 23/6/2
f 23/6/2 22/6/2 24/6/2
f 23/2/2 24/2/2 25/2/2
f 25/2/2 24/2/2 26/2/2
f 23/2/2 25/2/2 27/2/2
f 25/1/2 26/1/2 27/1/2
f 26/2/2 24/2/2 28/2/2
f 27/1/2 26/1/2 28/1/2
f 23/2/2 27/2/2 29/2/2
f 27/2/2 28/2/2 29/2/2
f 29/2/2 28/2/2 30/2/2
f 23/2/2 29/2/2 31/2/2
f 29/1/2 30/1/2 31/1/2
f 30/2/2 28/2/2 32/2/2
f 31/1/2 30/1/2 32/1/2
f 23/2/2 31/2/2 33/2/2
f 31/2/2 32/2/2 33/2/2
f 33/2/2 32/2/2 34/2/2
f 34/2/2 32/2/2 35/2/2
f 28/2/2 24/2/2 36/2/2
f 35/2/2 32/2/2 36/2/2
f 32/2/2 28/2/2 36/2/2
f 33/1/2 34/1/2 37/1/2
f 23/2/2 33/2/2 37/2/2
f 34/2/2 35/2/2 38/2/2
f 37/1/2 34/1/2 38/1/2
f 35/1/2 36/1/2 39/1/2
f 38/2/2 35/2/2 39/2/2
f 36/2/2 24/2/2 40/2/2
f 39/1/2 36/1/2 40/1/2
f 21/6/2 23/6/2 41/6/2
f 23/2/2 37/2/2 41/2/2
f 39/2/2 40/2/2 41/2/2
f 37/2/2 38/2/2 41/2/2
f 38/2/2 39/2/2 41/2/2
f 40/2/2 24/2/2 42/2/2
f 41/2/2 40/2/2 42/2/2
f 24/6/2 22/6/2 42/6/2
f 21/6/2 41/6/2 43/6/2
f 41/6/2 42/6/2 43/6/2
f 42/6/2 22/6/2 44/6/2
f 43/6/2 42/6/2 44/6/2
f 47/6/3 46/6/3 45/6/3
f 48/6/3 46/6/3 47/6/3
f 49/2/3 48/2/3 47/2/3
f 50/2/3 48/2/3 49/2/3
f 51/2/3 49/2/3 47/2/3
f 52/2/3 49/2/3 51/2/3
f 53/2/3 51/2/3 47/2/3
f 53/1/3 52/1/3 51/1/3
f 54/2/3 49/2/3 52/2/3
f 54/1/3 52/1/3 53/1/3
f 55/1/3 50/1/3 49/1/3
f 55/2/3 49/2/3 54/2/3
f 56/2/3 48/2/3 50/2/3
f 56/1/3 50/1/3 55/1/3
f 57/2/3 55/2/3 54/2/3
f 57/2/3 54/2/3 53/2/3
f 57/2/3 56/2/3 55/2/3
f 57/2/3 53/2/3 47/2/3
f 58/2/3 56/2/3 57/2/3
f 59/2/3 56/2/3 58/2/3
f 60/2/3 56/2/3 59/2/3
f 61/2/3 59/2/3 58/2/3
f 61/1/3 60/1/3 59/1/3
f 62/2/3 56/2/3 60/2/3
f 62/1/3 60/1/3 61/1/3
f 63/2/3 57/2/3 47/2/3
f 63/1/3 58/1/3 57/1/3
f 64/2/3 62/2/3 61/2/3
f 64/1/3 58/1/3 63/1/3
f 64/2/3 61/2/3 58/2/3
f 65/6/3 47/6/3 45/6/3
f 65/2/3 63/2/3 47/2/3
f 65/2/3 64/2/3 63/2/3
f 66/2/3 62/2/3 64/2/3
f 66/2/3 64/2/3 65/2/3
f 66/6/3 46/6/3 48/6/3
f 66/2/3 56/2/3 62/2/3
f 66/2/3 48/2/3 56/2/3
f 67/6/3 65/6/3 45/6/3
f 67/6/3 66/6/3 65/6/3
f 68/6/3 46/6/3 66/6/3
f 68/6/3 66/6/3 67/6/3
f 69/6/4 70/6/4 71/6/4
f 71/6/4 70/6/4 72/6/4
f 71/2/4 72/2/4 73/2/4
f 73/2/4 72/2/4 74/2/4
f 74/2/4 72/2/4 75/2/4
f 75/2/4 72/2/4 76/2/4
f 74/2/4 75/2/4 77/2/4
f 77/2/4 75/2/4 78/2/4
f 75/1/4 76/1/4 79/1/4
f 78/2/4 75/2/4 79/2/4
f 76/2/4 72/2/4 80/2/4
f 79/1/4 76/1/4 80/1/4
f 71/2/4 73/2/4 81/2/4
f 73/1/4 74/1/4 81/1/4
f 74/2/4 77/2/4 82/2/4
f 81/1/4 74/1/4 82/1/4
f 80/2/4 72/2/4 83/2/4
f 79/2/4 80/2/4 83/2/4
f 78/2/4 79/2/4 83/2/4
f 83/2/4 72/2/4 84/2/4
f 82/2/4 77/2/4 85/2/4
f 81/2/4 82/2/4 85/2/4
f 77/1/4 78/1/4 85/1/4
f 78/2/4 83/2/4 86/2/4
f 85/1/4 78/1/4 86/1/4
f 83/1/4 84/1/4 87/1/4
f 86/2/4 83/2/4 87/2/4
f 85/2/4 86/2/4 87/2/4
f 84/2/4 72/2/4 88/2/4
f 87/1/4 84/1/4 88/1/4
f 69/6/4 71/6/4 89/6/4
f 85/2/4 87/2/4 89/2/4
f 87/2/4 88/2/4 89/2/4
f 71/2/4 81/2/4 89/2/4
f 81/2/4 85/2/4 89/2/4
f 88/2/4 72/2/4 90/2/4
f 89/2/4 88/2/4 90/2/4
f 72/6/4 70/6/4 90/6/4
f 69/6/4 89/6/4 91/6/4
f 89/6/4 90/6/4 91/6/4
f 90/6/4 70/6/4 92/6/4
f 91/6/4 90/6/4 92/6/4
f 95/6/5 94/6/5 93/6/5
f 96/6/5 94/6/5 95/6/5
f 97/2/5 96/2/5 95/2/5
f 98/2/5 96/2/5 97/2/5
f 99/2/5 97/2/5 95/2/5
f 100/2/5 97/2/5 99/2/5
f 101/1/5 98/1/5 97/1/5
f 101/2/5 97/2/5 100/2/5
f 102/2/5 96/2/5 98/2/5
f 102/1/5 98/1/5 101/1/5
f 103/2/5 99/2/5 95/2/5
f 104/2/5 99/2/5 103/2/5
f 105/1/5 100/1/5 99/1/5
f 105/2/5 99/2/5 104/2/5
f 106/2/5 101/2/5 100/2/5
f 106/1/5 100/1/5 105/1/5
f 106/2/5 102/2/5 101/2/5
f 107/2/5 105/2/5 104/2/5
f 107/2/5 102/2/5 106/2/5
f 107/2/5 106/2/5 105/2/5
f 107/2/5 96/2/5 102/2/5
f 108/2/5 96/2/5 107/2/5
f 109/2/5 103/2/5 95/2/5
f 109/1/5 104/1/5 103/1/5
f 110/2/5 107/2/5 104/2/5
f 110/1/5 104/1/5 109/1/5
f 111/1/5 108/1/5 107/1/5
f 111/2/5 107/2/5 110/2/5
f 111/2/5 110/2/5 109/2/5
f 112/2/5 96/2/5 108/2/5
f 112/1/5 108/1/5 111/1/5
f 113/6/5 95/6/5 93/6/5
f 113/2/5 111/2/5 109/2/5
f 113/2/5 112/2/5 111/2/5
f 113/2/5 109/2/5 95/2/5
f 114/2/5 96/2/5 112/2/5
f 114/2/5 112/2/5 113/2/5
f 114/6/5 94/6/5 96/6/5
f 115/6/5 113/6/5 93/6/5
f 115/6/5 114/6/5 113/6/5
f 116/6/5 94/6/5 114/6/5
f 116/6/5 114/6/5 115/6/5
f 117/6/6 118/6/6 119/6/6
f 119/6/6 118/6/6 120/6/6
f 119/2/6 120/2/6 121/2/6
f 121/2/6 120/2/6 122/2/6
f 119/2/6 121/2/6 123/2/6
f 123/2/6 121/2/6 124/2/6
f 121/1/6 122/1/6 125/1/6
f 124/2/6 121/2/6 125/2/6
f 122/2/6 120/2/6 126/2/6
f 125/1/6 122/1/6 126/1/6
f 125/2/6 126/2/6 127/2/6
f 126/2/6 120/2/6 127/2/6
f 127/2/6 120/2/6 128/2/6
f 123/1/6 124/1/6 129/1/6
f 119/2/6 123/2/6 129/2/6
f 124/2/6 125/2/6 130/2/6
f 129/1/6 124/1/6 130/1/6
f 125/2/6 127/2/6 130/2/6
f 127/1/6 128/1/6 131/1/6
f 130/2/6 127/2/6 131/2/6
f 129/2/6 130/2/6 131/2/6
f 128/2/6 120/2/6 132/2/6
f 131/1/6 128/1/6 132/1/6
f 117/6/6 119/6/6 133/6/6
f 119/2/6 129/2/6 133/2/6
f 131/2/6 132/2/6 133/2/6
f 129/2/6 131/2/6 133/2/6
f 132/2/6 120/2/6 134/2/6
f 133/2/6 132/2/6 134/2/6
f 120/6/6 118/6/6 134/6/6
f 117/6/6 133/6/6 135/6/6
f 133/6/6 134/6/6 135/6/6
f 134/6/6 118/6/6 136/6/6
f 135/6/6 134/6/6 136/6/6
