# MagicaVoxel @ Ephtracy

# group
o 

# material
mtllib Trolley-0.mtl
usemtl palette

# normals
vn -1 0 0
vn 1 0 0
vn 0 0 1
vn 0 0 -1
vn 0 -1 0
vn 0 1 0

# texcoords
vt 0.962891 0.5
vt 0.966797 0.5
vt 0.990234 0.5

# verts
v -0.4 0.4 0.6
v -0.4 0.4 -0.1
v -0.4 0.4 -0.4
v -0.4 0.4 -0.6
v -0.4 0.5 0.5
v -0.4 0.5 0.2
v -0.4 0.5 -0.1
v -0.4 0.5 -0.4
v -0.4 0.6 0.5
v -0.4 0.6 0.2
v -0.4 0.7 0.6
v -0.4 0.7 0.5
v -0.4 0.7 -0.3
v -0.4 0.7 -0.6
v -0.4 0.8 0.6
v -0.4 0.8 0.5
v -0.4 0.8 -0.3
v -0.4 0.8 -0.6
v -0.4 1 0.6
v -0.4 1 -0.6
v -0.3 0.3 0.6
v -0.3 0.3 -0.6
v -0.3 0.4 0.6
v -0.3 0.4 -0.1
v -0.3 0.4 -0.4
v -0.3 0.4 -0.6
v -0.2 0.8 0.5
v -0.2 0.8 0.3
v -0.2 0.8 -0.1
v -0.2 0.8 -0.3
v -0.2 0.9 0.5
v -0.2 0.9 0.3
v -0.2 0.9 0.1
v -0.2 0.9 -0.1
v -0.2 0.9 -0.2
v -0.2 0.9 -0.3
v -0.2 1 0.1
v -0.2 1 -0.2
v -0.1 0.8 0.3
v -0.1 0.8 0.1
v -0.1 0.8 -0.3
v -0.1 0.8 -0.4
v -0.1 0.9 0.3
v -0.1 0.9 0.1
v -0.1 0.9 -0.2
v -0.1 0.9 -0.3
v -0.1 0.9 -0.4
v -0.1 1 -0.2
v -0.1 1 -0.3
v 0 0.8 -0.4
v 0 0.8 -0.5
v 0 0.9 0.3
v 0 0.9 0.1
v 0 0.9 -0.4
v 0 0.9 -0.5
v 0 1 0.3
v 0 1 0.1
v 0.1 0.8 0.4
v 0.1 0.8 0.3
v 0.1 0.9 0.4
v 0.1 0.9 0.3
v 0.3 0.4 0.5
v 0.3 0.4 -0.2
v 0.3 0.4 -0.4
v 0.3 0.4 -0.5
v 0.3 0.5 0.5
v 0.3 0.5 5.96046e-08
v 0.3 0.5 -0.2
v 0.3 0.5 -0.4
v 0.3 0.5 -0.5
v 0.3 0.6 5.96046e-08
v 0.3 0.6 -0.2
v 0.3 0.6 -0.5
v 0.3 0.7 0.5
v 0.3 0.7 -0.5
v 0.3 0.8 0.5
v 0.3 0.8 0.4
v 0.3 0.8 0.2
v 0.3 0.8 -0.5
v 0.3 0.9 0.4
v 0.3 0.9 0.2
v 0.3 0.9 -0.5
v 0.3 1 0.5
v 0.3 1 -0.5
v -0.3 0.4 0.5
v -0.3 0.4 -0.1
v -0.3 0.4 -0.4
v -0.3 0.4 -0.5
v -0.3 0.5 0.5
v -0.3 0.5 0.2
v -0.3 0.5 -0.1
v -0.3 0.5 -0.4
v -0.3 0.6 0.5
v -0.3 0.6 0.2
v -0.3 0.7 0.5
v -0.3 0.7 -0.5
v -0.3 0.8 0.5
v -0.3 0.8 0.1
v -0.3 0.8 -0.1
v -0.3 0.8 -0.5
v -0.3 0.9 0.1
v -0.3 0.9 -0.1
v -0.3 1 0.5
v -0.3 1 -0.5
v 0 0.8 0.5
v 0 0.8 0.3
v 0 0.9 0.5
v 0 0.9 0.3
v 0 0.9 0.1
v 0 0.9 5.96046e-08
v 0 1 0.1
v 0 1 5.96046e-08
v 0.1 0.8 -0.1
v 0.1 0.8 -0.3
v 0.1 0.9 5.96046e-08
v 0.1 0.9 -0.1
v 0.1 0.9 -0.3
v 0.1 1 5.96046e-08
v 0.1 1 -0.3
v 0.2 0.8 0.2
v 0.2 0.8 -0.1
v 0.2 0.8 -0.3
v 0.2 0.8 -0.5
v 0.2 0.9 0.3
v 0.2 0.9 0.2
v 0.2 0.9 0.1
v 0.2 0.9 -0.1
v 0.2 0.9 -0.3
v 0.2 0.9 -0.5
v 0.2 1 0.3
v 0.2 1 0.1
v 0.3 0.3 0.6
v 0.3 0.3 -0.6
v 0.3 0.4 0.6
v 0.3 0.4 0.5
v 0.3 0.4 -0.2
v 0.3 0.4 -0.4
v 0.3 0.4 -0.6
v 0.4 0.4 0.6
v 0.4 0.4 0.5
v 0.4 0.4 -0.2
v 0.4 0.4 -0.4
v 0.4 0.4 -0.6
v 0.4 0.5 0.6
v 0.4 0.5 0.5
v 0.4 0.5 5.96046e-08
v 0.4 0.5 -0.2
v 0.4 0.5 -0.4
v 0.4 0.5 -0.5
v 0.4 0.5 -0.6
v 0.4 0.6 5.96046e-08
v 0.4 0.6 -0.2
v 0.4 0.6 -0.5
v 0.4 0.6 -0.6
v 0.4 0.7 0.5
v 0.4 0.7 5.96046e-08
v 0.4 0.7 -0.3
v 0.4 0.7 -0.5
v 0.4 0.8 0.5
v 0.4 0.8 5.96046e-08
v 0.4 0.8 -0.3
v 0.4 0.8 -0.5
v 0.4 1 0.6
v 0.4 1 -0.6
v -0.4 0.4 0.6
v -0.4 0.7 0.6
v -0.4 0.8 0.6
v -0.4 1 0.6
v -0.3 0.3 0.6
v -0.3 0.4 0.6
v -0.2 0.6 0.6
v -0.2 0.7 0.6
v -0.2 0.8 0.6
v 0.1 0.6 0.6
v 0.1 0.7 0.6
v 0.2 0.4 0.6
v 0.2 0.5 0.6
v 0.3 0.3 0.6
v 0.3 0.4 0.6
v 0.4 0.4 0.6
v 0.4 0.5 0.6
v 0.4 1 0.6
v 0.1 0.8 0.4
v 0.1 0.9 0.4
v 0.3 0.8 0.4
v 0.3 0.9 0.4
v 0 0.8 0.3
v 0 0.9 0.3
v 0 1 0.3
v 0.1 0.8 0.3
v 0.1 0.9 0.3
v 0.2 0.9 0.3
v 0.2 1 0.3
v -0.3 0.8 0.1
v -0.3 0.9 0.1
v -0.2 0.9 0.1
v -0.2 1 0.1
v -0.1 0.8 0.1
v -0.1 0.9 0.1
v 0 0.9 0.1
v 0 1 0.1
v 0 0.9 5.96046e-08
v 0 1 5.96046e-08
v 0.1 0.9 5.96046e-08
v 0.1 1 5.96046e-08
v 0.1 0.8 -0.3
v 0.1 0.9 -0.3
v 0.2 0.8 -0.3
v 0.2 0.9 -0.3
v -0.3 0.4 -0.5
v -0.3 0.7 -0.5
v -0.3 0.8 -0.5
v -0.3 1 -0.5
v 0 0.8 -0.5
v 0 0.9 -0.5
v 0.1 0.5 -0.5
v 0.1 0.6 -0.5
v 0.2 0.8 -0.5
v 0.2 0.9 -0.5
v 0.3 0.4 -0.5
v 0.3 0.5 -0.5
v 0.3 0.6 -0.5
v 0.3 0.7 -0.5
v 0.3 0.8 -0.5
v 0.3 0.9 -0.5
v 0.3 1 -0.5
v -0.3 0.4 0.5
v -0.3 0.5 0.5
v -0.3 0.6 0.5
v -0.3 0.7 0.5
v -0.3 0.8 0.5
v -0.3 1 0.5
v -0.2 0.6 0.5
v -0.2 0.7 0.5
v -0.2 0.8 0.5
v -0.2 0.9 0.5
v 0 0.8 0.5
v 0 0.9 0.5
v 0.1 0.6 0.5
v 0.1 0.7 0.5
v 0.2 0.4 0.5
v 0.2 0.5 0.5
v 0.3 0.4 0.5
v 0.3 0.5 0.5
v 0.3 0.7 0.5
v 0.3 0.8 0.5
v 0.3 1 0.5
v -0.2 0.8 0.3
v -0.2 0.9 0.3
v -0.1 0.8 0.3
v -0.1 0.9 0.3
v 0.2 0.8 0.2
v 0.2 0.9 0.2
v 0.3 0.8 0.2
v 0.3 0.9 0.2
v 0 0.9 0.1
v 0 1 0.1
v 0.2 0.9 0.1
v 0.2 1 0.1
v -0.3 0.8 -0.1
v -0.3 0.9 -0.1
v -0.2 0.8 -0.1
v -0.2 0.9 -0.1
v 0.1 0.8 -0.1
v 0.1 0.9 -0.1
v 0.2 0.8 -0.1
v 0.2 0.9 -0.1
v -0.2 0.9 -0.2
v -0.2 1 -0.2
v -0.1 0.9 -0.2
v -0.1 1 -0.2
v -0.2 0.8 -0.3
v -0.2 0.9 -0.3
v -0.1 0.8 -0.3
v -0.1 0.9 -0.3
v -0.1 1 -0.3
v 0.1 0.9 -0.3
v 0.1 1 -0.3
v -0.1 0.8 -0.4
v -0.1 0.9 -0.4
v 0 0.8 -0.4
v 0 0.9 -0.4
v -0.4 0.4 -0.6
v -0.4 0.7 -0.6
v -0.4 0.8 -0.6
v -0.4 1 -0.6
v -0.3 0.3 -0.6
v -0.3 0.4 -0.6
v -0.3 0.7 -0.6
v -0.3 0.8 -0.6
v 0 0.8 -0.6
v 0 0.9 -0.6
v 0.1 0.5 -0.6
v 0.1 0.6 -0.6
v 0.3 0.3 -0.6
v 0.3 0.4 -0.6
v 0.3 0.8 -0.6
v 0.3 0.9 -0.6
v 0.4 0.4 -0.6
v 0.4 0.5 -0.6
v 0.4 0.6 -0.6
v 0.4 1 -0.6
v -0.3 0.3 0.6
v 0.3 0.3 0.6
v -0.3 0.3 -0.6
v 0.3 0.3 -0.6
v -0.4 0.4 0.6
v -0.3 0.4 0.6
v 0.3 0.4 0.6
v 0.4 0.4 0.6
v 0.3 0.4 0.5
v 0.4 0.4 0.5
v -0.4 0.4 -0.1
v -0.3 0.4 -0.1
v 0.3 0.4 -0.2
v 0.4 0.4 -0.2
v -0.4 0.4 -0.4
v -0.3 0.4 -0.4
v 0.3 0.4 -0.4
v 0.4 0.4 -0.4
v -0.4 0.4 -0.6
v -0.3 0.4 -0.6
v 0.3 0.4 -0.6
v 0.4 0.4 -0.6
v -0.3 0.7 0.5
v -0.2 0.7 0.5
v 0.1 0.7 0.5
v 0.3 0.7 0.5
v -0.3 0.7 -0.5
v 0.3 0.7 -0.5
v -0.3 0.4 0.5
v 0.2 0.4 0.5
v 0.3 0.4 0.5
v -0.3 0.4 -0.1
v 0.3 0.4 -0.2
v -0.3 0.4 -0.4
v 0.3 0.4 -0.4
v -0.3 0.4 -0.5
v 0.3 0.4 -0.5
v -0.3 0.8 0.5
v -0.2 0.8 0.5
v 0 0.8 0.5
v 0.3 0.8 0.5
v 0.1 0.8 0.4
v 0.3 0.8 0.4
v -0.2 0.8 0.3
v -0.1 0.8 0.3
v 0 0.8 0.3
v 0.1 0.8 0.3
v 0.2 0.8 0.2
v 0.3 0.8 0.2
v -0.3 0.8 0.1
v -0.1 0.8 0.1
v -0.3 0.8 -0.1
v -0.2 0.8 -0.1
v 0.1 0.8 -0.1
v 0.2 0.8 -0.1
v -0.2 0.8 -0.3
v -0.1 0.8 -0.3
v 0.1 0.8 -0.3
v 0.2 0.8 -0.3
v -0.1 0.8 -0.4
v 0 0.8 -0.4
v -0.3 0.8 -0.5
v 0 0.8 -0.5
v 0.2 0.8 -0.5
v 0.3 0.8 -0.5
v -0.2 0.9 0.5
v 0 0.9 0.5
v 0.1 0.9 0.4
v 0.3 0.9 0.4
v -0.2 0.9 0.3
v -0.1 0.9 0.3
v 0 0.9 0.3
v 0.1 0.9 0.3
v 0.2 0.9 0.3
v 0.2 0.9 0.2
v 0.3 0.9 0.2
v -0.3 0.9 0.1
v -0.2 0.9 0.1
v -0.1 0.9 0.1
v 0 0.9 0.1
v 0.2 0.9 0.1
v 0 0.9 5.96046e-08
v 0.1 0.9 5.96046e-08
v -0.3 0.9 -0.1
v -0.2 0.9 -0.1
v 0.1 0.9 -0.1
v 0.2 0.9 -0.1
v -0.2 0.9 -0.2
v -0.1 0.9 -0.2
v -0.2 0.9 -0.3
v -0.1 0.9 -0.3
v 0.1 0.9 -0.3
v 0.2 0.9 -0.3
v -0.1 0.9 -0.4
v 0 0.9 -0.4
v 0 0.9 -0.5
v 0.2 0.9 -0.5
v -0.4 1 0.6
v 0.4 1 0.6
v -0.3 1 0.5
v 0.3 1 0.5
v 0 1 0.3
v 0.2 1 0.3
v -0.2 1 0.1
v 0 1 0.1
v 0.2 1 0.1
v 0 1 5.96046e-08
v 0.1 1 5.96046e-08
v -0.2 1 -0.2
v -0.1 1 -0.2
v -0.1 1 -0.3
v 0.1 1 -0.3
v -0.3 1 -0.5
v 0.3 1 -0.5
v -0.4 1 -0.6
v 0.4 1 -0.6

# faces
f 5/2/1 2/2/1 1/2/1
f 6/2/1 2/2/1 5/2/1
f 7/1/1 3/1/1 2/1/1
f 7/2/1 2/2/1 6/2/1
f 8/2/1 4/2/1 3/2/1
f 8/1/1 3/1/1 7/1/1
f 9/1/1 6/1/1 5/1/1
f 9/2/1 5/2/1 1/2/1
f 10/2/1 7/2/1 6/2/1
f 10/1/1 6/1/1 9/1/1
f 10/2/1 8/2/1 7/2/1
f 11/2/1 9/2/1 1/2/1
f 11/2/1 10/2/1 9/2/1
f 12/2/1 10/2/1 11/2/1
f 13/2/1 8/2/1 10/2/1
f 13/2/1 10/2/1 12/2/1
f 14/2/1 4/2/1 8/2/1
f 14/2/1 8/2/1 13/2/1
f 15/1/1 12/1/1 11/1/1
f 16/2/1 13/2/1 12/2/1
f 16/1/1 12/1/1 15/1/1
f 17/1/1 14/1/1 13/1/1
f 17/2/1 13/2/1 16/2/1
f 18/1/1 14/1/1 17/1/1
f 19/2/1 16/2/1 15/2/1
f 19/2/1 17/2/1 16/2/1
f 19/2/1 18/2/1 17/2/1
f 20/2/1 18/2/1 19/2/1
f 23/2/1 22/2/1 21/2/1
f 24/2/1 22/2/1 23/2/1
f 25/2/1 22/2/1 24/2/1
f 26/2/1 22/2/1 25/2/1
f 31/3/1 28/3/1 27/3/1
f 32/3/1 28/3/1 31/3/1
f 34/3/1 30/3/1 29/3/1
f 35/3/1 30/3/1 34/3/1
f 36/3/1 30/3/1 35/3/1
f 37/3/1 34/3/1 33/3/1
f 37/3/1 35/3/1 34/3/1
f 38/3/1 35/3/1 37/3/1
f 43/3/1 40/3/1 39/3/1
f 44/3/1 40/3/1 43/3/1
f 46/3/1 42/3/1 41/3/1
f 47/3/1 42/3/1 46/3/1
f 48/3/1 46/3/1 45/3/1
f 49/3/1 46/3/1 48/3/1
f 54/3/1 51/3/1 50/3/1
f 55/3/1 51/3/1 54/3/1
f 56/3/1 53/3/1 52/3/1
f 57/3/1 53/3/1 56/3/1
f 60/3/1 59/3/1 58/3/1
f 61/3/1 59/3/1 60/3/1
f 66/2/1 63/2/1 62/2/1
f 67/2/1 63/2/1 66/2/1
f 68/1/1 64/1/1 63/1/1
f 68/2/1 63/2/1 67/2/1
f 69/2/1 65/2/1 64/2/1
f 69/1/1 64/1/1 68/1/1
f 70/2/1 65/2/1 69/2/1
f 71/1/1 68/1/1 67/1/1
f 71/2/1 67/2/1 66/2/1
f 72/2/1 70/2/1 69/2/1
f 72/1/1 68/1/1 71/1/1
f 72/2/1 69/2/1 68/2/1
f 73/2/1 70/2/1 72/2/1
f 74/2/1 71/2/1 66/2/1
f 74/2/1 72/2/1 71/2/1
f 74/2/1 73/2/1 72/2/1
f 75/2/1 73/2/1 74/2/1
f 80/2/1 77/2/1 76/2/1
f 81/2/1 79/2/1 78/2/1
f 82/2/1 79/2/1 81/2/1
f 83/2/1 80/2/1 76/2/1
f 83/2/1 81/2/1 80/2/1
f 83/2/1 82/2/1 81/2/1
f 84/2/1 82/2/1 83/2/1
f 85/2/2 86/2/2 89/2/2
f 89/2/2 86/2/2 90/2/2
f 86/1/2 87/1/2 91/1/2
f 90/2/2 86/2/2 91/2/2
f 87/2/2 88/2/2 92/2/2
f 91/1/2 87/1/2 92/1/2
f 89/1/2 90/1/2 93/1/2
f 90/2/2 91/2/2 94/2/2
f 93/1/2 90/1/2 94/1/2
f 91/2/2 92/2/2 94/2/2
f 93/2/2 94/2/2 95/2/2
f 92/2/2 88/2/2 96/2/2
f 95/2/2 94/2/2 96/2/2
f 94/2/2 92/2/2 96/2/2
f 97/2/2 98/2/2 101/2/2
f 99/2/2 100/2/2 102/2/2
f 97/2/2 101/2/2 103/2/2
f 101/2/2 102/2/2 103/2/2
f 102/2/2 100/2/2 104/2/2
f 103/2/2 102/2/2 104/2/2
f 105/3/2 106/3/2 107/3/2
f 107/3/2 106/3/2 108/3/2
f 109/3/2 110/3/2 111/3/2
f 111/3/2 110/3/2 112/3/2
f 113/3/2 114/3/2 116/3/2
f 116/3/2 114/3/2 117/3/2
f 115/3/2 116/3/2 118/3/2
f 116/3/2 117/3/2 118/3/2
f 118/3/2 117/3/2 119/3/2
f 120/3/2 121/3/2 125/3/2
f 125/3/2 121/3/2 126/3/2
f 126/3/2 121/3/2 127/3/2
f 122/3/2 123/3/2 128/3/2
f 128/3/2 123/3/2 129/3/2
f 124/3/2 125/3/2 130/3/2
f 125/3/2 126/3/2 130/3/2
f 130/3/2 126/3/2 131/3/2
f 132/2/2 133/2/2 134/2/2
f 134/2/2 133/2/2 135/2/2
f 135/2/2 133/2/2 136/2/2
f 136/2/2 133/2/2 137/2/2
f 137/2/2 133/2/2 138/2/2
f 139/1/2 140/1/2 144/1/2
f 140/2/2 141/2/2 145/2/2
f 144/1/2 140/1/2 145/1/2
f 145/2/2 141/2/2 146/2/2
f 141/1/2 142/1/2 147/1/2
f 146/2/2 141/2/2 147/2/2
f 142/2/2 143/2/2 148/2/2
f 147/1/2 142/1/2 148/1/2
f 148/2/2 143/2/2 149/2/2
f 149/2/2 143/2/2 150/2/2
f 146/1/2 147/1/2 151/1/2
f 145/2/2 146/2/2 151/2/2
f 144/2/2 145/2/2 151/2/2
f 148/2/2 149/2/2 152/2/2
f 151/1/2 147/1/2 152/1/2
f 147/2/2 148/2/2 152/2/2
f 149/1/2 150/1/2 153/1/2
f 152/2/2 149/2/2 153/2/2
f 153/1/2 150/1/2 154/1/2
f 151/2/2 152/2/2 155/2/2
f 144/2/2 151/2/2 155/2/2
f 153/2/2 154/2/2 155/2/2
f 152/2/2 153/2/2 155/2/2
f 155/2/2 154/2/2 156/2/2
f 156/2/2 154/2/2 157/2/2
f 157/2/2 154/2/2 158/2/2
f 144/2/2 155/2/2 159/2/2
f 155/1/2 156/1/2 159/1/2
f 156/2/2 157/2/2 160/2/2
f 159/1/2 156/1/2 160/1/2
f 157/1/2 158/1/2 161/1/2
f 160/2/2 157/2/2 161/2/2
f 158/2/2 154/2/2 162/2/2
f 161/1/2 158/1/2 162/1/2
f 160/2/2 161/2/2 163/2/2
f 159/2/2 160/2/2 163/2/2
f 161/2/2 162/2/2 163/2/2
f 144/2/2 159/2/2 163/2/2
f 162/2/2 154/2/2 164/2/2
f 163/2/2 162/2/2 164/2/2
f 170/2/3 166/2/3 165/2/3
f 171/2/3 166/2/3 170/2/3
f 171/2/3 170/2/3 169/2/3
f 172/1/3 167/1/3 166/1/3
f 172/2/3 166/2/3 171/2/3
f 173/2/3 168/2/3 167/2/3
f 173/1/3 167/1/3 172/1/3
f 174/1/3 172/1/3 171/1/3
f 174/2/3 171/2/3 169/2/3
f 175/2/3 173/2/3 172/2/3
f 175/1/3 172/1/3 174/1/3
f 176/2/3 174/2/3 169/2/3
f 176/2/3 175/2/3 174/2/3
f 177/2/3 175/2/3 176/2/3
f 178/2/3 176/2/3 169/2/3
f 179/1/3 177/1/3 176/1/3
f 179/2/3 176/2/3 178/2/3
f 180/1/3 177/1/3 179/1/3
f 181/2/3 175/2/3 177/2/3
f 181/1/3 177/1/3 180/1/3
f 182/2/3 168/2/3 173/2/3
f 182/2/3 175/2/3 181/2/3
f 182/2/3 173/2/3 175/2/3
f 185/3/3 184/3/3 183/3/3
f 186/3/3 184/3/3 185/3/3
f 190/3/3 188/3/3 187/3/3
f 190/3/3 189/3/3 188/3/3
f 191/3/3 189/3/3 190/3/3
f 192/3/3 189/3/3 191/3/3
f 193/3/3 189/3/3 192/3/3
f 196/3/3 195/3/3 194/3/3
f 198/3/3 196/3/3 194/3/3
f 198/3/3 197/3/3 196/3/3
f 199/3/3 197/3/3 198/3/3
f 200/3/3 197/3/3 199/3/3
f 201/3/3 197/3/3 200/3/3
f 204/3/3 203/3/3 202/3/3
f 205/3/3 203/3/3 204/3/3
f 208/3/3 207/3/3 206/3/3
f 209/3/3 207/3/3 208/3/3
f 214/2/3 213/2/3 212/2/3
f 215/2/3 213/2/3 214/2/3
f 216/2/3 211/2/3 210/2/3
f 217/2/3 211/2/3 216/2/3
f 219/2/3 213/2/3 215/2/3
f 220/2/3 216/2/3 210/2/3
f 221/1/3 217/1/3 216/1/3
f 221/2/3 216/2/3 220/2/3
f 222/2/3 211/2/3 217/2/3
f 222/1/3 217/1/3 221/1/3
f 223/2/3 211/2/3 222/2/3
f 224/1/3 219/1/3 218/1/3
f 225/2/3 213/2/3 219/2/3
f 225/1/3 219/1/3 224/1/3
f 226/2/3 213/2/3 225/2/3
f 227/2/4 228/2/4 233/2/4
f 228/2/4 229/2/4 233/2/4
f 229/2/4 230/2/4 233/2/4
f 233/2/4 230/2/4 234/2/4
f 231/2/4 232/2/4 235/2/4
f 235/2/4 232/2/4 236/2/4
f 236/2/4 232/2/4 238/2/4
f 233/1/4 234/1/4 239/1/4
f 227/2/4 233/2/4 239/2/4
f 239/1/4 234/1/4 240/1/4
f 227/2/4 239/2/4 241/2/4
f 239/2/4 240/2/4 241/2/4
f 241/2/4 240/2/4 242/2/4
f 241/1/4 242/1/4 243/1/4
f 242/2/4 240/2/4 244/2/4
f 243/1/4 242/1/4 244/1/4
f 244/2/4 240/2/4 245/2/4
f 237/2/4 238/2/4 246/2/4
f 238/2/4 232/2/4 247/2/4
f 246/2/4 238/2/4 247/2/4
f 248/3/4 249/3/4 250/3/4
f 250/3/4 249/3/4 251/3/4
f 252/3/4 253/3/4 254/3/4
f 254/3/4 253/3/4 255/3/4
f 256/3/4 257/3/4 258/3/4
f 258/3/4 257/3/4 259/3/4
f 260/3/4 261/3/4 262/3/4
f 262/3/4 261/3/4 263/3/4
f 264/3/4 265/3/4 266/3/4
f 266/3/4 265/3/4 267/3/4
f 268/3/4 269/3/4 270/3/4
f 270/3/4 269/3/4 271/3/4
f 272/3/4 273/3/4 274/3/4
f 274/3/4 273/3/4 275/3/4
f 275/3/4 276/3/4 277/3/4
f 277/3/4 276/3/4 278/3/4
f 279/3/4 280/3/4 281/3/4
f 281/3/4 280/3/4 282/3/4
f 283/2/4 284/2/4 288/2/4
f 284/1/4 285/1/4 289/1/4
f 288/2/4 284/2/4 289/2/4
f 285/2/4 286/2/4 290/2/4
f 289/1/4 285/1/4 290/1/4
f 288/2/4 289/2/4 291/2/4
f 290/2/4 286/2/4 291/2/4
f 289/2/4 290/2/4 291/2/4
f 287/2/4 288/2/4 291/2/4
f 291/2/4 286/2/4 292/2/4
f 287/2/4 291/2/4 293/2/4
f 293/2/4 291/2/4 294/2/4
f 287/2/4 293/2/4 295/2/4
f 295/2/4 293/2/4 296/2/4
f 291/1/4 292/1/4 297/1/4
f 294/2/4 291/2/4 297/2/4
f 292/2/4 286/2/4 298/2/4
f 297/1/4 292/1/4 298/1/4
f 296/2/4 293/2/4 299/2/4
f 293/1/4 294/1/4 300/1/4
f 299/2/4 293/2/4 300/2/4
f 294/2/4 297/2/4 301/2/4
f 300/1/4 294/1/4 301/1/4
f 297/2/4 298/2/4 301/2/4
f 298/2/4 286/2/4 302/2/4
f 301/2/4 298/2/4 302/2/4
f 305/2/5 304/2/5 303/2/5
f 306/2/5 304/2/5 305/2/5
f 311/1/5 310/1/5 309/1/5
f 312/1/5 310/1/5 311/1/5
f 313/2/5 308/2/5 307/2/5
f 314/2/5 308/2/5 313/2/5
f 315/2/5 312/2/5 311/2/5
f 316/2/5 312/2/5 315/2/5
f 317/1/5 314/1/5 313/1/5
f 318/1/5 314/1/5 317/1/5
f 319/1/5 316/1/5 315/1/5
f 320/1/5 316/1/5 319/1/5
f 321/2/5 318/2/5 317/2/5
f 322/2/5 318/2/5 321/2/5
f 323/2/5 320/2/5 319/2/5
f 324/2/5 320/2/5 323/2/5
f 329/3/5 326/3/5 325/3/5
f 329/3/5 328/3/5 327/3/5
f 329/3/5 327/3/5 326/3/5
f 330/3/5 328/3/5 329/3/5
f 331/2/6 332/2/6 334/2/6
f 332/2/6 333/2/6 334/2/6
f 334/2/6 333/2/6 335/2/6
f 334/2/6 335/2/6 336/2/6
f 336/2/6 335/2/6 337/2/6
f 336/2/6 337/2/6 338/2/6
f 338/2/6 337/2/6 339/2/6
f 342/3/6 343/3/6 344/3/6
f 344/3/6 343/3/6 345/3/6
f 340/3/6 341/3/6 346/3/6
f 342/3/6 344/3/6 348/3/6
f 348/3/6 344/3/6 349/3/6
f 346/3/6 347/3/6 352/3/6
f 340/3/6 346/3/6 352/3/6
f 352/3/6 347/3/6 353/3/6
f 350/3/6 351/3/6 357/3/6
f 354/3/6 355/3/6 358/3/6
f 356/3/6 357/3/6 360/3/6
f 357/3/6 351/3/6 361/3/6
f 360/3/6 357/3/6 361/3/6
f 358/3/6 359/3/6 362/3/6
f 354/3/6 358/3/6 364/3/6
f 362/3/6 363/3/6 364/3/6
f 358/3/6 362/3/6 364/3/6
f 364/3/6 363/3/6 365/3/6
f 361/3/6 351/3/6 366/3/6
f 366/3/6 351/3/6 367/3/6
f 368/3/6 369/3/6 372/3/6
f 372/3/6 369/3/6 373/3/6
f 373/3/6 369/3/6 374/3/6
f 370/3/6 371/3/6 375/3/6
f 375/3/6 371/3/6 376/3/6
f 376/3/6 371/3/6 377/3/6
f 377/3/6 371/3/6 378/3/6
f 373/3/6 374/3/6 381/3/6
f 381/3/6 374/3/6 382/3/6
f 382/3/6 383/3/6 384/3/6
f 384/3/6 383/3/6 385/3/6
f 379/3/6 380/3/6 386/3/6
f 386/3/6 380/3/6 387/3/6
f 385/3/6 383/3/6 388/3/6
f 388/3/6 383/3/6 389/3/6
f 390/3/6 391/3/6 392/3/6
f 392/3/6 391/3/6 393/3/6
f 394/3/6 395/3/6 396/3/6
f 393/3/6 394/3/6 396/3/6
f 396/3/6 395/3/6 397/3/6
f 397/3/6 395/3/6 398/3/6
f 398/3/6 395/3/6 399/3/6
f 400/2/6 401/2/6 402/2/6
f 402/2/6 401/2/6 403/2/6
f 404/3/6 405/3/6 407/3/6
f 407/3/6 405/3/6 408/3/6
f 406/3/6 407/3/6 409/3/6
f 406/3/6 409/3/6 411/3/6
f 409/3/6 410/3/6 411/3/6
f 411/3/6 410/3/6 412/3/6
f 412/3/6 410/3/6 413/3/6
f 413/3/6 410/3/6 414/3/6
f 400/2/6 402/2/6 415/2/6
f 403/2/6 401/2/6 416/2/6
f 400/2/6 415/2/6 417/2/6
f 415/2/6 416/2/6 417/2/6
f 416/2/6 401/2/6 418/2/6
f 417/2/6 416/2/6 418/2/6
