# MagicaVoxel @ Ephtracy

# group
o 

# material
mtllib models_for_game4-0.mtl
usemtl palette

# normals
vn 0 0 -1
vn 0 0 1
vn -1 0 0
vn 1 0 0
vn 0 -1 0
vn 0 1 0

# texcoords
vt 0.876953 0.5
vt 0.884766 0.5
vt 0.892578 0.5
vt 0.974609 0.5
vt 0.982422 0.5
vt 0.986328 0.5

# verts
v 0 0 0
v 1.1 0 0
v 0.1 0.1 0
v 1 0.1 0
v 0.4 0.3 0
v 0.6 0.3 0
v 0.4 0.4 0
v 0.6 0.4 0
v 0.3 0.6 0
v 0.4 0.6 0
v 0.7 0.6 0
v 0.8 0.6 0
v 0.3 0.9 0
v 0.4 0.9 0
v 0.7 0.9 0
v 0.8 0.9 0
v 0.1 1 0
v 1 1 0
v 0 1.1 0
v 1.1 1.1 0
v 0 0 1.1
v 1.1 0 1.1
v 0.1 0.1 1.1
v 1 0.1 1.1
v 0.5 0.2 1.1
v 0.8 0.2 1.1
v 0.5 0.3 1.1
v 0.8 0.3 1.1
v 0.3 0.5 1.1
v 0.7 0.5 1.1
v 0.3 0.6 1.1
v 0.7 0.6 1.1
v 0.2 0.8 1.1
v 0.4 0.8 1.1
v 0.6 0.8 1.1
v 0.9 0.8 1.1
v 0.2 0.9 1.1
v 0.4 0.9 1.1
v 0.6 0.9 1.1
v 0.9 0.9 1.1
v 0.1 1 1.1
v 1 1 1.1
v 0 1.1 1.1
v 1.1 1.1 1.1
v 0 0 0
v 0 1.1 0
v 0 0.1 0.1
v 0 1 0.1
v 0 0.8 0.2
v 0 0.9 0.2
v 0 0.5 0.3
v 0 0.6 0.3
v 0 0.5 0.5
v 0 0.6 0.5
v 0 0.8 0.5
v 0 0.9 0.5
v 0 0.2 0.6
v 0 0.3 0.6
v 0 0.4 0.7
v 0 0.5 0.7
v 0 0.4 0.8
v 0 0.5 0.8
v 0 0.2 0.9
v 0 0.3 0.9
v 0 0.1 1
v 0 1 1
v 0 0 1.1
v 0 1.1 1.1
v 1.1 0 0
v 1.1 1.1 0
v 1.1 0.1 0.1
v 1.1 1 0.1
v 1.1 0.2 0.2
v 1.1 0.3 0.2
v 1.1 0.7 0.2
v 1.1 0.8 0.2
v 1.1 0.5 0.5
v 1.1 0.6 0.5
v 1.1 0.7 0.5
v 1.1 0.8 0.5
v 1.1 0.2 0.6
v 1.1 0.3 0.6
v 1.1 0.8 0.7
v 1.1 0.9 0.7
v 1.1 0.5 0.8
v 1.1 0.6 0.8
v 1.1 0.8 0.9
v 1.1 0.9 0.9
v 1.1 0.1 1
v 1.1 1 1
v 1.1 0 1.1
v 1.1 1.1 1.1
v 0 0 0
v 0 0 1.1
v 0.1 0 0.1
v 0.1 0 1
v 0.2 0 0.7
v 0.2 0 0.8
v 0.4 0 0.5
v 0.4 0 0.6
v 0.5 0 0.7
v 0.5 0 0.8
v 0.6 0 0.3
v 0.6 0 0.4
v 0.6 0 0.5
v 0.6 0 0.6
v 0.7 0 0.8
v 0.7 0 0.9
v 0.8 0 0.3
v 0.8 0 0.4
v 0.9 0 0.8
v 0.9 0 0.9
v 1 0 0.1
v 1 0 1
v 1.1 0 0
v 1.1 0 1.1
v 0 1.1 0
v 0 1.1 1.1
v 0.1 1.1 0.1
v 0.1 1.1 1
v 0.2 1.1 0.6
v 0.2 1.1 0.7
v 0.4 1.1 0.3
v 0.4 1.1 0.4
v 0.6 1.1 0.6
v 0.6 1.1 0.7
v 0.7 1.1 0.8
v 0.7 1.1 0.9
v 0.8 1.1 0.3
v 0.8 1.1 0.4
v 0.9 1.1 0.8
v 0.9 1.1 0.9
v 1 1.1 0.1
v 1 1.1 1
v 1.1 1.1 0
v 1.1 1.1 1.1

# faces
f 3/5/1 2/5/1 1/5/1
f 4/5/1 2/5/1 3/5/1
f 5/4/1 4/4/1 3/4/1
f 6/4/1 4/4/1 5/4/1
f 7/4/1 5/4/1 3/4/1
f 7/6/1 6/6/1 5/6/1
f 8/4/1 4/4/1 6/4/1
f 8/6/1 6/6/1 7/6/1
f 9/4/1 7/4/1 3/4/1
f 9/4/1 8/4/1 7/4/1
f 10/4/1 8/4/1 9/4/1
f 11/4/1 4/4/1 8/4/1
f 11/4/1 8/4/1 10/4/1
f 12/4/1 4/4/1 11/4/1
f 13/1/1 10/1/1 9/1/1
f 13/4/1 9/4/1 3/4/1
f 14/4/1 11/4/1 10/4/1
f 14/1/1 10/1/1 13/1/1
f 15/1/1 12/1/1 11/1/1
f 15/4/1 11/4/1 14/4/1
f 16/4/1 4/4/1 12/4/1
f 16/1/1 12/1/1 15/1/1
f 17/5/1 3/5/1 1/5/1
f 17/4/1 15/4/1 14/4/1
f 17/4/1 16/4/1 15/4/1
f 17/4/1 13/4/1 3/4/1
f 17/4/1 14/4/1 13/4/1
f 18/4/1 4/4/1 16/4/1
f 18/4/1 16/4/1 17/4/1
f 18/5/1 2/5/1 4/5/1
f 19/5/1 17/5/1 1/5/1
f 19/5/1 18/5/1 17/5/1
f 20/5/1 2/5/1 18/5/1
f 20/5/1 18/5/1 19/5/1
f 21/5/2 22/5/2 23/5/2
f 23/5/2 22/5/2 24/5/2
f 23/4/2 24/4/2 25/4/2
f 25/4/2 24/4/2 26/4/2
f 23/4/2 25/4/2 27/4/2
f 25/5/2 26/5/2 27/5/2
f 26/4/2 24/4/2 28/4/2
f 27/5/2 26/5/2 28/5/2
f 23/4/2 27/4/2 29/4/2
f 27/4/2 28/4/2 29/4/2
f 29/4/2 28/4/2 30/4/2
f 23/4/2 29/4/2 31/4/2
f 29/5/2 30/5/2 31/5/2
f 30/4/2 28/4/2 32/4/2
f 31/5/2 30/5/2 32/5/2
f 23/4/2 31/4/2 33/4/2
f 31/4/2 32/4/2 33/4/2
f 33/4/2 32/4/2 34/4/2
f 34/4/2 32/4/2 35/4/2
f 28/4/2 24/4/2 36/4/2
f 35/4/2 32/4/2 36/4/2
f 32/4/2 28/4/2 36/4/2
f 33/5/2 34/5/2 37/5/2
f 23/4/2 33/4/2 37/4/2
f 34/4/2 35/4/2 38/4/2
f 37/5/2 34/5/2 38/5/2
f 35/5/2 36/5/2 39/5/2
f 38/4/2 35/4/2 39/4/2
f 36/4/2 24/4/2 40/4/2
f 39/5/2 36/5/2 40/5/2
f 21/5/2 23/5/2 41/5/2
f 23/4/2 37/4/2 41/4/2
f 39/4/2 40/4/2 41/4/2
f 37/4/2 38/4/2 41/4/2
f 38/4/2 39/4/2 41/4/2
f 40/4/2 24/4/2 42/4/2
f 41/4/2 40/4/2 42/4/2
f 24/5/2 22/5/2 42/5/2
f 21/5/2 41/5/2 43/5/2
f 41/5/2 42/5/2 43/5/2
f 42/5/2 22/5/2 44/5/2
f 43/5/2 42/5/2 44/5/2
f 47/5/3 46/5/3 45/5/3
f 48/5/3 46/5/3 47/5/3
f 49/4/3 48/4/3 47/4/3
f 50/4/3 48/4/3 49/4/3
f 51/4/3 49/4/3 47/4/3
f 52/4/3 49/4/3 51/4/3
f 53/4/3 51/4/3 47/4/3
f 53/5/3 52/5/3 51/5/3
f 54/4/3 49/4/3 52/4/3
f 54/5/3 52/5/3 53/5/3
f 55/5/3 50/5/3 49/5/3
f 55/4/3 49/4/3 54/4/3
f 56/4/3 48/4/3 50/4/3
f 56/5/3 50/5/3 55/5/3
f 57/4/3 55/4/3 54/4/3
f 57/4/3 54/4/3 53/4/3
f 57/4/3 56/4/3 55/4/3
f 57/4/3 53/4/3 47/4/3
f 58/4/3 56/4/3 57/4/3
f 59/4/3 56/4/3 58/4/3
f 60/4/3 56/4/3 59/4/3
f 61/4/3 59/4/3 58/4/3
f 61/5/3 60/5/3 59/5/3
f 62/4/3 56/4/3 60/4/3
f 62/5/3 60/5/3 61/5/3
f 63/4/3 57/4/3 47/4/3
f 63/5/3 58/5/3 57/5/3
f 64/4/3 62/4/3 61/4/3
f 64/5/3 58/5/3 63/5/3
f 64/4/3 61/4/3 58/4/3
f 65/5/3 47/5/3 45/5/3
f 65/4/3 63/4/3 47/4/3
f 65/4/3 64/4/3 63/4/3
f 66/4/3 62/4/3 64/4/3
f 66/4/3 64/4/3 65/4/3
f 66/5/3 46/5/3 48/5/3
f 66/4/3 56/4/3 62/4/3
f 66/4/3 48/4/3 56/4/3
f 67/5/3 65/5/3 45/5/3
f 67/5/3 66/5/3 65/5/3
f 68/5/3 46/5/3 66/5/3
f 68/5/3 66/5/3 67/5/3
f 69/5/4 70/5/4 71/5/4
f 71/5/4 70/5/4 72/5/4
f 71/4/4 72/4/4 73/4/4
f 73/4/4 72/4/4 74/4/4
f 74/4/4 72/4/4 75/4/4
f 75/4/4 72/4/4 76/4/4
f 74/4/4 75/4/4 77/4/4
f 77/4/4 75/4/4 78/4/4
f 75/5/4 76/5/4 79/5/4
f 78/4/4 75/4/4 79/4/4
f 76/4/4 72/4/4 80/4/4
f 79/5/4 76/5/4 80/5/4
f 71/4/4 73/4/4 81/4/4
f 73/5/4 74/5/4 81/5/4
f 74/4/4 77/4/4 82/4/4
f 81/5/4 74/5/4 82/5/4
f 80/4/4 72/4/4 83/4/4
f 79/4/4 80/4/4 83/4/4
f 78/4/4 79/4/4 83/4/4
f 83/4/4 72/4/4 84/4/4
f 82/4/4 77/4/4 85/4/4
f 81/4/4 82/4/4 85/4/4
f 77/5/4 78/5/4 85/5/4
f 78/4/4 83/4/4 86/4/4
f 85/5/4 78/5/4 86/5/4
f 83/5/4 84/5/4 87/5/4
f 86/4/4 83/4/4 87/4/4
f 85/4/4 86/4/4 87/4/4
f 84/4/4 72/4/4 88/4/4
f 87/5/4 84/5/4 88/5/4
f 69/5/4 71/5/4 89/5/4
f 85/4/4 87/4/4 89/4/4
f 87/4/4 88/4/4 89/4/4
f 71/4/4 81/4/4 89/4/4
f 81/4/4 85/4/4 89/4/4
f 88/4/4 72/4/4 90/4/4
f 89/4/4 88/4/4 90/4/4
f 72/5/4 70/5/4 90/5/4
f 69/5/4 89/5/4 91/5/4
f 89/5/4 90/5/4 91/5/4
f 90/5/4 70/5/4 92/5/4
f 91/5/4 90/5/4 92/5/4
f 95/5/5 94/5/5 93/5/5
f 96/5/5 94/5/5 95/5/5
f 97/4/5 96/4/5 95/4/5
f 98/4/5 96/4/5 97/4/5
f 99/4/5 97/4/5 95/4/5
f 100/4/5 97/4/5 99/4/5
f 101/5/5 98/5/5 97/5/5
f 101/4/5 97/4/5 100/4/5
f 102/4/5 96/4/5 98/4/5
f 102/5/5 98/5/5 101/5/5
f 103/4/5 99/4/5 95/4/5
f 104/4/5 99/4/5 103/4/5
f 105/5/5 100/5/5 99/5/5
f 105/4/5 99/4/5 104/4/5
f 106/4/5 101/4/5 100/4/5
f 106/5/5 100/5/5 105/5/5
f 106/4/5 102/4/5 101/4/5
f 107/4/5 105/4/5 104/4/5
f 107/4/5 102/4/5 106/4/5
f 107/4/5 106/4/5 105/4/5
f 107/4/5 96/4/5 102/4/5
f 108/4/5 96/4/5 107/4/5
f 109/4/5 103/4/5 95/4/5
f 109/5/5 104/5/5 103/5/5
f 110/4/5 107/4/5 104/4/5
f 110/5/5 104/5/5 109/5/5
f 111/5/5 108/5/5 107/5/5
f 111/4/5 107/4/5 110/4/5
f 111/4/5 110/4/5 109/4/5
f 112/4/5 96/4/5 108/4/5
f 112/5/5 108/5/5 111/5/5
f 113/5/5 95/5/5 93/5/5
f 113/4/5 111/4/5 109/4/5
f 113/4/5 112/4/5 111/4/5
f 113/4/5 109/4/5 95/4/5
f 114/4/5 96/4/5 112/4/5
f 114/4/5 112/4/5 113/4/5
f 114/5/5 94/5/5 96/5/5
f 115/5/5 113/5/5 93/5/5
f 115/5/5 114/5/5 113/5/5
f 116/5/5 94/5/5 114/5/5
f 116/5/5 114/5/5 115/5/5
f 117/5/6 118/5/6 119/5/6
f 119/5/6 118/5/6 120/5/6
f 119/4/6 120/4/6 121/4/6
f 121/4/6 120/4/6 122/4/6
f 119/4/6 121/4/6 123/4/6
f 123/4/6 121/4/6 124/4/6
f 121/5/6 122/5/6 125/5/6
f 124/4/6 121/4/6 125/4/6
f 122/4/6 120/4/6 126/4/6
f 125/5/6 122/5/6 126/5/6
f 125/4/6 126/4/6 127/4/6
f 126/4/6 120/4/6 127/4/6
f 127/4/6 120/4/6 128/4/6
f 123/5/6 124/5/6 129/5/6
f 119/4/6 123/4/6 129/4/6
f 124/4/6 125/4/6 130/4/6
f 129/5/6 124/5/6 130/5/6
f 125/4/6 127/4/6 130/4/6
f 127/5/6 128/5/6 131/5/6
f 130/4/6 127/4/6 131/4/6
f 129/4/6 130/4/6 131/4/6
f 128/4/6 120/4/6 132/4/6
f 131/5/6 128/5/6 132/5/6
f 117/5/6 119/5/6 133/5/6
f 119/4/6 129/4/6 133/4/6
f 131/4/6 132/4/6 133/4/6
f 129/4/6 131/4/6 133/4/6
f 132/4/6 120/4/6 134/4/6
f 133/4/6 132/4/6 134/4/6
f 120/5/6 118/5/6 134/5/6
f 117/5/6 133/5/6 135/5/6
f 133/5/6 134/5/6 135/5/6
f 134/5/6 118/5/6 136/5/6
f 135/5/6 134/5/6 136/5/6
