# MagicaVoxel @ Ephtracy

# group
o 

# material
mtllib ChestTop-0.mtl
usemtl palette

# normals
vn -1 0 0
vn 1 0 0
vn 0 0 1
vn 0 0 -1
vn 0 -1 0
vn 0 1 0

# texcoords
vt 0.533203 0.5
vt 0.537109 0.5
vt 0.974609 0.5
vt 0.978516 0.5

# verts
v -1.1 0 0.5
v -1.1 0 0.3
v -1.1 0 -0.3
v -1.1 0 -0.5
v -1.1 0.1 0.5
v -1.1 0.1 0.4
v -1.1 0.1 -0.3
v -1.1 0.1 -0.4
v -1.1 0.2 0.5
v -1.1 0.2 0.4
v -1.1 0.2 0.3
v -1.1 0.2 -0.3
v -1.1 0.2 -0.4
v -1.1 0.2 -0.5
v -1 0.2 0.5
v -1 0.2 0.4
v -1 0.2 0.3
v -1 0.2 -0.3
v -1 0.2 -0.4
v -1 0.2 -0.5
v -1 0.3 0.4
v -1 0.3 0.3
v -1 0.4 0.5
v -1 0.4 0.3
v -1 0.4 -0.3
v -1 0.4 -0.5
v -1 0.5 0.5
v -1 0.5 0.3
v -1 0.5 -0.3
v -1 0.5 -0.5
v -0.9 0.1 0.6
v -0.9 0.1 0.5
v -0.9 0.1 0.3
v -0.9 0.1 -0.3
v -0.9 0.1 -0.5
v -0.9 0.1 -0.6
v -0.9 0.2 0.5
v -0.9 0.2 0.3
v -0.9 0.2 -0.3
v -0.9 0.3 0.3
v -0.9 0.3 -0.3
v -0.9 0.4 0.6
v -0.9 0.4 0.5
v -0.9 0.4 0.3
v -0.9 0.4 -0.3
v -0.9 0.4 -0.5
v -0.9 0.4 -0.6
v -0.2 0.1 0.5
v -0.2 0.1 -0.5
v -0.2 0.2 0.5
v -0.2 0.2 -0.5
v -0.2 0.3 0.5
v -0.2 0.3 -0.5
v -0.1 0 0.5
v -0.1 0 0.3
v -0.1 0 -0.3
v -0.1 0 -0.5
v -0.1 0.1 0.5
v -0.1 0.1 0.3
v -0.1 0.1 -0.3
v -0.1 0.1 -0.5
v -1 0 0.5
v -1 0 0.3
v -1 0 -0.3
v -1 0 -0.5
v -1 0.1 0.5
v -1 0.1 0.3
v -1 0.1 -0.3
v -1 0.1 -0.5
v -0.8 0.1 0.5
v -0.8 0.1 -0.5
v -0.8 0.2 0.5
v -0.8 0.2 -0.5
v -0.8 0.3 0.5
v -0.8 0.3 -0.5
v -0.1 0.1 0.6
v -0.1 0.1 0.5
v -0.1 0.1 0.3
v -0.1 0.1 -0.3
v -0.1 0.1 -0.5
v -0.1 0.1 -0.6
v -0.1 0.2 0.3
v -0.1 0.2 -0.3
v -0.1 0.3 0.5
v -0.1 0.3 0.3
v -0.1 0.3 -0.3
v -0.1 0.4 0.6
v -0.1 0.4 0.5
v -0.1 0.4 0.3
v -0.1 0.4 -0.3
v -0.1 0.4 -0.5
v -0.1 0.4 -0.6
v 0 0 0.5
v 0 0 0.3
v 0 0 -0.3
v 0 0 -0.5
v 0 0.2 0.4
v 0 0.2 0.3
v 0 0.3 0.5
v 0 0.3 0.4
v 0 0.3 -0.3
v 0 0.3 -0.4
v 0 0.4 -0.4
v 0 0.4 -0.5
v 0 0.5 0.5
v 0 0.5 0.3
v 0 0.5 -0.3
v 0 0.5 -0.5
v -0.9 0.1 0.6
v -0.9 0.4 0.6
v -0.8 0.2 0.6
v -0.8 0.3 0.6
v -0.2 0.2 0.6
v -0.2 0.3 0.6
v -0.1 0.1 0.6
v -0.1 0.4 0.6
v -1.1 0 0.5
v -1.1 0.1 0.5
v -1.1 0.2 0.5
v -1 0 0.5
v -1 0.1 0.5
v -1 0.2 0.5
v -1 0.4 0.5
v -1 0.5 0.5
v -0.9 0.1 0.5
v -0.9 0.2 0.5
v -0.9 0.4 0.5
v -0.7 0.4 0.5
v -0.7 0.5 0.5
v -0.4 0.4 0.5
v -0.4 0.5 0.5
v -0.1 0 0.5
v -0.1 0.1 0.5
v -0.1 0.3 0.5
v -0.1 0.4 0.5
v 0 0 0.5
v 0 0.3 0.5
v 0 0.5 0.5
v -1.1 0 -0.3
v -1.1 0.1 -0.3
v -1.1 0.2 -0.3
v -1 0 -0.3
v -1 0.1 -0.3
v -1 0.2 -0.3
v -1 0.4 -0.3
v -1 0.5 -0.3
v -0.9 0.1 -0.3
v -0.9 0.2 -0.3
v -0.9 0.3 -0.3
v -0.9 0.4 -0.3
v -0.8 0.4 -0.3
v -0.7 0.4 -0.3
v -0.7 0.5 -0.3
v -0.2 0.4 -0.3
v -0.2 0.5 -0.3
v -0.1 0 -0.3
v -0.1 0.1 -0.3
v -0.1 0.2 -0.3
v -0.1 0.3 -0.3
v -0.1 0.4 -0.3
v 0 0 -0.3
v 0 0.3 -0.3
v 0 0.5 -0.3
v -0.8 0.1 -0.5
v -0.8 0.2 -0.5
v -0.8 0.3 -0.5
v -0.2 0.1 -0.5
v -0.2 0.2 -0.5
v -0.2 0.3 -0.5
v -0.8 0.1 0.5
v -0.8 0.2 0.5
v -0.8 0.3 0.5
v -0.2 0.1 0.5
v -0.2 0.2 0.5
v -0.2 0.3 0.5
v -1.1 0 0.3
v -1.1 0.2 0.3
v -1 0 0.3
v -1 0.1 0.3
v -1 0.2 0.3
v -1 0.3 0.3
v -1 0.4 0.3
v -1 0.5 0.3
v -0.9 0.1 0.3
v -0.9 0.2 0.3
v -0.9 0.3 0.3
v -0.9 0.4 0.3
v -0.8 0.4 0.3
v -0.5 0.4 0.3
v -0.5 0.5 0.3
v -0.3 0.4 0.3
v -0.3 0.5 0.3
v -0.2 0.4 0.3
v -0.1 0 0.3
v -0.1 0.1 0.3
v -0.1 0.2 0.3
v -0.1 0.3 0.3
v -0.1 0.4 0.3
v 0 0 0.3
v 0 0.2 0.3
v 0 0.5 0.3
v -1.1 0 -0.5
v -1.1 0.2 -0.5
v -1 0 -0.5
v -1 0.1 -0.5
v -1 0.2 -0.5
v -1 0.4 -0.5
v -1 0.5 -0.5
v -0.9 0.1 -0.5
v -0.9 0.4 -0.5
v -0.5 0.4 -0.5
v -0.5 0.5 -0.5
v -0.2 0.4 -0.5
v -0.2 0.5 -0.5
v -0.1 0 -0.5
v -0.1 0.1 -0.5
v -0.1 0.4 -0.5
v 0 0 -0.5
v 0 0.4 -0.5
v 0 0.5 -0.5
v -0.9 0.1 -0.6
v -0.9 0.4 -0.6
v -0.8 0.2 -0.6
v -0.8 0.3 -0.6
v -0.2 0.2 -0.6
v -0.2 0.3 -0.6
v -0.1 0.1 -0.6
v -0.1 0.4 -0.6
v -1.1 0 0.5
v -1 0 0.5
v -0.1 0 0.5
v 0 0 0.5
v -1.1 0 0.3
v -1 0 0.3
v -0.1 0 0.3
v 0 0 0.3
v -1.1 0 -0.3
v -1 0 -0.3
v -0.1 0 -0.3
v 0 0 -0.3
v -1.1 0 -0.5
v -1 0 -0.5
v -0.1 0 -0.5
v 0 0 -0.5
v -0.9 0.1 0.6
v -0.1 0.1 0.6
v -1 0.1 0.5
v -0.9 0.1 0.5
v -0.8 0.1 0.5
v -0.2 0.1 0.5
v -0.1 0.1 0.5
v -1 0.1 0.3
v -0.9 0.1 0.3
v -0.1 0.1 0.3
v -1 0.1 -0.3
v -0.9 0.1 -0.3
v -0.1 0.1 -0.3
v -1 0.1 -0.5
v -0.9 0.1 -0.5
v -0.8 0.1 -0.5
v -0.2 0.1 -0.5
v -0.1 0.1 -0.5
v -0.9 0.1 -0.6
v -0.1 0.1 -0.6
v -0.8 0.3 0.5
v -0.2 0.3 0.5
v -0.8 0.3 -0.5
v -0.2 0.3 -0.5
v -1.1 0.2 0.5
v -1 0.2 0.5
v -1.1 0.2 0.4
v -1 0.2 0.4
v -1.1 0.2 0.3
v -1 0.2 0.3
v -1.1 0.2 -0.3
v -1 0.2 -0.3
v -1.1 0.2 -0.4
v -1 0.2 -0.4
v -1.1 0.2 -0.5
v -1 0.2 -0.5
v -0.9 0.4 0.6
v -0.1 0.4 0.6
v -0.9 0.4 0.5
v -0.7 0.4 0.5
v -0.4 0.4 0.5
v -0.1 0.4 0.5
v -0.9 0.4 0.3
v -0.8 0.4 0.3
v -0.5 0.4 0.3
v -0.3 0.4 0.3
v -0.2 0.4 0.3
v -0.1 0.4 0.3
v -0.9 0.4 -0.3
v -0.8 0.4 -0.3
v -0.7 0.4 -0.3
v -0.2 0.4 -0.3
v -0.1 0.4 -0.3
v -0.9 0.4 -0.5
v -0.5 0.4 -0.5
v -0.2 0.4 -0.5
v -0.1 0.4 -0.5
v -0.9 0.4 -0.6
v -0.1 0.4 -0.6
v -1 0.5 0.5
v -0.7 0.5 0.5
v -0.4 0.5 0.5
v 0 0.5 0.5
v -0.7 0.5 0.4
v -0.5 0.5 0.4
v -0.4 0.5 0.4
v -0.3 0.5 0.4
v -1 0.5 0.3
v -0.5 0.5 0.3
v -0.3 0.5 0.3
v 0 0.5 0.3
v -1 0.5 -0.3
v -0.7 0.5 -0.3
v -0.2 0.5 -0.3
v 0 0.5 -0.3
v -0.7 0.5 -0.4
v -0.5 0.5 -0.4
v -1 0.5 -0.5
v -0.5 0.5 -0.5
v -0.2 0.5 -0.5
v 0 0.5 -0.5

# faces
f 5/4/1 2/4/1 1/4/1
f 6/4/1 2/4/1 5/4/1
f 7/3/1 4/3/1 3/3/1
f 8/3/1 4/3/1 7/3/1
f 9/3/1 6/3/1 5/3/1
f 10/4/1 2/4/1 6/4/1
f 10/3/1 6/3/1 9/3/1
f 11/4/1 2/4/1 10/4/1
f 12/4/1 8/4/1 7/4/1
f 13/3/1 4/3/1 8/3/1
f 13/4/1 8/4/1 12/4/1
f 14/3/1 4/3/1 13/3/1
f 21/3/1 16/3/1 15/3/1
f 21/4/1 17/4/1 16/4/1
f 22/4/1 17/4/1 21/4/1
f 23/3/1 21/3/1 15/3/1
f 23/3/1 22/3/1 21/3/1
f 24/3/1 22/3/1 23/3/1
f 25/4/1 20/4/1 19/4/1
f 25/4/1 19/4/1 18/4/1
f 26/4/1 20/4/1 25/4/1
f 27/4/1 24/4/1 23/4/1
f 28/4/1 24/4/1 27/4/1
f 29/3/1 26/3/1 25/3/1
f 30/3/1 26/3/1 29/3/1
f 37/2/1 32/2/1 31/2/1
f 38/2/1 34/2/1 33/2/1
f 39/2/1 34/2/1 38/2/1
f 40/1/1 39/1/1 38/1/1
f 41/1/1 39/1/1 40/1/1
f 42/2/1 37/2/1 31/2/1
f 43/2/1 37/2/1 42/2/1
f 44/2/1 41/2/1 40/2/1
f 45/2/1 41/2/1 44/2/1
f 46/2/1 36/2/1 35/2/1
f 47/2/1 36/2/1 46/2/1
f 50/2/1 49/2/1 48/2/1
f 51/2/1 49/2/1 50/2/1
f 52/1/1 51/1/1 50/1/1
f 53/1/1 51/1/1 52/1/1
f 58/3/1 55/3/1 54/3/1
f 59/3/1 55/3/1 58/3/1
f 60/4/1 57/4/1 56/4/1
f 61/4/1 57/4/1 60/4/1
f 62/4/2 63/4/2 66/4/2
f 66/4/2 63/4/2 67/4/2
f 64/3/2 65/3/2 68/3/2
f 68/3/2 65/3/2 69/3/2
f 70/2/2 71/2/2 72/2/2
f 72/2/2 71/2/2 73/2/2
f 72/1/2 73/1/2 74/1/2
f 74/1/2 73/1/2 75/1/2
f 78/2/2 79/2/2 82/2/2
f 82/2/2 79/2/2 83/2/2
f 76/2/2 77/2/2 84/2/2
f 82/1/2 83/1/2 85/1/2
f 85/1/2 83/1/2 86/1/2
f 76/2/2 84/2/2 87/2/2
f 87/2/2 84/2/2 88/2/2
f 85/2/2 86/2/2 89/2/2
f 89/2/2 86/2/2 90/2/2
f 80/2/2 81/2/2 91/2/2
f 91/2/2 81/2/2 92/2/2
f 93/3/2 94/3/2 97/3/2
f 97/3/2 94/3/2 98/3/2
f 93/3/2 97/3/2 99/3/2
f 97/4/2 98/4/2 100/4/2
f 99/3/2 97/3/2 100/3/2
f 95/4/2 96/4/2 101/4/2
f 101/4/2 96/4/2 102/4/2
f 101/3/2 102/3/2 103/3/2
f 102/4/2 96/4/2 103/4/2
f 103/4/2 96/4/2 104/4/2
f 99/4/2 100/4/2 105/4/2
f 100/4/2 98/4/2 106/4/2
f 105/4/2 100/4/2 106/4/2
f 101/3/2 103/3/2 107/3/2
f 103/3/2 104/3/2 107/3/2
f 107/3/2 104/3/2 108/3/2
f 111/2/3 110/2/3 109/2/3
f 112/2/3 110/2/3 111/2/3
f 113/2/3 111/2/3 109/2/3
f 113/1/3 112/1/3 111/1/3
f 114/2/3 110/2/3 112/2/3
f 114/1/3 112/1/3 113/1/3
f 115/2/3 113/2/3 109/2/3
f 115/2/3 114/2/3 113/2/3
f 116/2/3 110/2/3 114/2/3
f 116/2/3 114/2/3 115/2/3
f 120/4/3 118/4/3 117/4/3
f 121/3/3 119/3/3 118/3/3
f 121/4/3 118/4/3 120/4/3
f 122/3/3 119/3/3 121/3/3
f 125/4/3 122/4/3 121/4/3
f 126/3/3 123/3/3 122/3/3
f 126/4/3 122/4/3 125/4/3
f 127/4/3 124/4/3 123/4/3
f 127/3/3 123/3/3 126/3/3
f 128/4/3 124/4/3 127/4/3
f 129/4/3 124/4/3 128/4/3
f 130/3/3 129/3/3 128/3/3
f 131/3/3 129/3/3 130/3/3
f 135/4/3 131/4/3 130/4/3
f 136/3/3 134/3/3 133/3/3
f 136/3/3 133/3/3 132/3/3
f 137/4/3 135/4/3 134/4/3
f 137/3/3 134/3/3 136/3/3
f 138/4/3 131/4/3 135/4/3
f 138/4/3 135/4/3 137/4/3
f 142/3/3 140/3/3 139/3/3
f 143/4/3 141/4/3 140/4/3
f 143/3/3 140/3/3 142/3/3
f 144/4/3 141/4/3 143/4/3
f 147/4/3 144/4/3 143/4/3
f 147/4/3 145/4/3 144/4/3
f 148/4/3 145/4/3 147/4/3
f 149/4/3 145/4/3 148/4/3
f 150/3/3 146/3/3 145/3/3
f 150/4/3 145/4/3 149/4/3
f 151/3/3 146/3/3 150/3/3
f 152/3/3 146/3/3 151/3/3
f 153/3/3 146/3/3 152/3/3
f 154/4/3 153/4/3 152/4/3
f 155/4/3 153/4/3 154/4/3
f 160/3/3 155/3/3 154/3/3
f 161/4/3 159/4/3 158/4/3
f 161/4/3 157/4/3 156/4/3
f 161/4/3 158/4/3 157/4/3
f 162/3/3 160/3/3 159/3/3
f 162/4/3 159/4/3 161/4/3
f 163/3/3 155/3/3 160/3/3
f 163/3/3 160/3/3 162/3/3
f 167/2/3 165/2/3 164/2/3
f 168/1/3 166/1/3 165/1/3
f 168/2/3 165/2/3 167/2/3
f 169/1/3 166/1/3 168/1/3
f 170/2/4 171/2/4 173/2/4
f 171/1/4 172/1/4 174/1/4
f 173/2/4 171/2/4 174/2/4
f 174/1/4 172/1/4 175/1/4
f 176/4/4 177/4/4 178/4/4
f 178/4/4 177/4/4 179/4/4
f 179/4/4 177/4/4 180/4/4
f 179/4/4 180/4/4 184/4/4
f 180/4/4 181/4/4 184/4/4
f 184/4/4 181/4/4 185/4/4
f 181/3/4 182/3/4 186/3/4
f 185/4/4 181/4/4 186/4/4
f 182/4/4 183/4/4 187/4/4
f 186/3/4 182/3/4 187/3/4
f 187/4/4 183/4/4 188/4/4
f 188/4/4 183/4/4 189/4/4
f 189/4/4 183/4/4 190/4/4
f 189/3/4 190/3/4 191/3/4
f 191/3/4 190/3/4 192/3/4
f 191/4/4 192/4/4 193/4/4
f 193/4/4 192/4/4 198/4/4
f 194/3/4 195/3/4 199/3/4
f 195/3/4 196/3/4 199/3/4
f 196/4/4 197/4/4 200/4/4
f 199/3/4 196/3/4 200/3/4
f 197/4/4 198/4/4 200/4/4
f 198/4/4 192/4/4 201/4/4
f 200/4/4 198/4/4 201/4/4
f 202/3/4 203/3/4 204/3/4
f 204/3/4 203/3/4 205/3/4
f 205/3/4 203/3/4 206/3/4
f 205/4/4 206/4/4 209/4/4
f 206/4/4 207/4/4 209/4/4
f 207/3/4 208/3/4 210/3/4
f 209/4/4 207/4/4 210/4/4
f 210/3/4 208/3/4 211/3/4
f 211/3/4 208/3/4 212/3/4
f 211/4/4 212/4/4 213/4/4
f 213/4/4 212/4/4 214/4/4
f 213/3/4 214/3/4 217/3/4
f 215/4/4 216/4/4 218/4/4
f 216/4/4 217/4/4 218/4/4
f 217/3/4 214/3/4 219/3/4
f 218/4/4 217/4/4 219/4/4
f 219/3/4 214/3/4 220/3/4
f 221/2/4 222/2/4 223/2/4
f 223/2/4 222/2/4 224/2/4
f 221/2/4 223/2/4 225/2/4
f 223/1/4 224/1/4 225/1/4
f 224/2/4 222/2/4 226/2/4
f 225/1/4 224/1/4 226/1/4
f 221/2/4 225/2/4 227/2/4
f 225/2/4 226/2/4 227/2/4
f 226/2/4 222/2/4 228/2/4
f 227/2/4 226/2/4 228/2/4
f 233/4/5 230/4/5 229/4/5
f 234/4/5 230/4/5 233/4/5
f 235/3/5 232/3/5 231/3/5
f 236/3/5 232/3/5 235/3/5
f 241/3/5 238/3/5 237/3/5
f 242/3/5 238/3/5 241/3/5
f 243/4/5 240/4/5 239/4/5
f 244/4/5 240/4/5 243/4/5
f 248/2/5 246/2/5 245/2/5
f 249/2/5 246/2/5 248/2/5
f 250/2/5 246/2/5 249/2/5
f 251/2/5 246/2/5 250/2/5
f 252/4/5 248/4/5 247/4/5
f 253/2/5 249/2/5 248/2/5
f 253/4/5 248/4/5 252/4/5
f 254/2/5 251/2/5 250/2/5
f 256/2/5 249/2/5 253/2/5
f 257/2/5 254/2/5 250/2/5
f 258/4/5 256/4/5 255/4/5
f 259/2/5 249/2/5 256/2/5
f 259/4/5 256/4/5 258/4/5
f 260/2/5 249/2/5 259/2/5
f 261/2/5 257/2/5 250/2/5
f 262/2/5 257/2/5 261/2/5
f 263/2/5 260/2/5 259/2/5
f 263/2/5 262/2/5 261/2/5
f 263/2/5 261/2/5 260/2/5
f 264/2/5 262/2/5 263/2/5
f 267/1/5 266/1/5 265/1/5
f 268/1/5 266/1/5 267/1/5
f 269/3/6 270/3/6 271/3/6
f 271/3/6 270/3/6 272/3/6
f 271/4/6 272/4/6 273/4/6
f 273/4/6 272/4/6 274/4/6
f 275/4/6 276/4/6 277/4/6
f 277/4/6 276/4/6 278/4/6
f 277/3/6 278/3/6 279/3/6
f 279/3/6 278/3/6 280/3/6
f 281/2/6 282/2/6 283/2/6
f 283/2/6 282/2/6 284/2/6
f 284/2/6 282/2/6 285/2/6
f 285/2/6 282/2/6 286/2/6
f 287/2/6 288/2/6 293/2/6
f 288/1/6 289/1/6 294/1/6
f 293/2/6 288/2/6 294/2/6
f 289/1/6 290/1/6 294/1/6
f 290/1/6 291/1/6 294/1/6
f 294/1/6 291/1/6 295/1/6
f 291/2/6 292/2/6 296/2/6
f 295/1/6 291/1/6 296/1/6
f 296/2/6 292/2/6 297/2/6
f 298/2/6 299/2/6 302/2/6
f 300/2/6 301/2/6 302/2/6
f 299/2/6 300/2/6 302/2/6
f 302/2/6 301/2/6 303/2/6
f 304/4/6 305/4/6 308/4/6
f 305/3/6 306/3/6 308/3/6
f 308/3/6 306/3/6 309/3/6
f 306/4/6 307/4/6 310/4/6
f 309/3/6 306/3/6 310/3/6
f 310/4/6 307/4/6 311/4/6
f 308/4/6 309/4/6 312/4/6
f 304/4/6 308/4/6 312/4/6
f 310/3/6 311/3/6 313/3/6
f 312/4/6 309/4/6 313/4/6
f 309/3/6 310/3/6 313/3/6
f 311/4/6 307/4/6 314/4/6
f 313/3/6 311/3/6 314/3/6
f 314/4/6 307/4/6 315/4/6
f 316/3/6 317/3/6 320/3/6
f 317/4/6 318/4/6 320/4/6
f 320/4/6 318/4/6 321/4/6
f 316/3/6 320/3/6 322/3/6
f 320/3/6 321/3/6 322/3/6
f 321/4/6 318/4/6 323/4/6
f 322/3/6 321/3/6 323/3/6
f 318/3/6 319/3/6 324/3/6
f 323/4/6 318/4/6 324/4/6
f 324/3/6 319/3/6 325/3/6
