# MagicaVoxel @ Ephtracy

# group
o 

# material
mtllib Chest-0.mtl
usemtl palette

# normals
vn -1 0 0
vn 1 0 0
vn 0 0 1
vn 0 0 -1
vn 0 -1 0
vn 0 1 0

# texcoords
vt 0.958984 0.5
vt 0.962891 0.5

# verts
v -0.4 0 0
v -0.4 0 -0.1
v -0.4 0.1 0
v -0.4 0.1 -0.1
v -0.2 0 0.2
v -0.2 0 0
v -0.2 0 -0.1
v -0.2 0 -0.3
v -0.2 0.1 0.3
v -0.2 0.1 0.2
v -0.2 0.1 0
v -0.2 0.1 -0.1
v -0.2 0.1 -0.3
v -0.2 0.1 -0.4
v -0.2 0.3 0.3
v -0.2 0.3 0.2
v -0.2 0.3 0
v -0.2 0.3 -0.3
v -0.2 0.3 -0.4
v -0.2 0.4 0.2
v -0.2 0.4 0
v -0.2 0.4 -0.3
v 0 0 0.3
v 0 0 0
v 0 0 -0.1
v 0 0 -0.4
v 0 0.1 0.4
v 0 0.1 0.3
v 0 0.1 0
v 0 0.1 -0.1
v 0 0.1 -0.4
v 0 0.1 -0.5
v 0 0.2 -0.4
v 0 0.2 -0.5
v 0 0.3 0.4
v 0 0.3 0.3
v 0 0.3 0.2
v 0 0.3 -0.2
v 0 0.3 -0.4
v 0 0.3 -0.5
v 0 0.4 0.3
v 0 0.4 0.2
v 0 0.4 -0.2
v 0 0.4 -0.4
v 0.2 0 0.2
v 0.2 0 0
v 0.2 0 -0.1
v 0.2 0 -0.3
v 0.2 0.1 0.3
v 0.2 0.1 0.2
v 0.2 0.1 0
v 0.2 0.1 -0.1
v 0.2 0.1 -0.3
v 0.2 0.1 -0.4
v 0.2 0.3 0.3
v 0.2 0.3 0.2
v 0.2 0.3 -0.2
v 0.2 0.3 -0.3
v 0.2 0.3 -0.4
v 0.2 0.4 0.2
v 0.2 0.4 -0.2
v 0.2 0.4 -0.3
v -0.1 0 0.2
v -0.1 0 0
v -0.1 0 -0.1
v -0.1 0 -0.3
v -0.1 0.1 0.3
v -0.1 0.1 0.2
v -0.1 0.1 0
v -0.1 0.1 -0.1
v -0.1 0.1 -0.3
v -0.1 0.1 -0.4
v -0.1 0.3 0.3
v -0.1 0.3 0.2
v -0.1 0.3 0
v -0.1 0.3 -0.3
v -0.1 0.3 -0.4
v -0.1 0.4 0.2
v -0.1 0.4 0
v -0.1 0.4 -0.3
v 0.1 0 0.3
v 0.1 0 0
v 0.1 0 -0.1
v 0.1 0 -0.4
v 0.1 0.1 0.4
v 0.1 0.1 0.3
v 0.1 0.1 0
v 0.1 0.1 -0.1
v 0.1 0.1 -0.4
v 0.1 0.1 -0.5
v 0.1 0.2 -0.4
v 0.1 0.2 -0.5
v 0.1 0.3 0.4
v 0.1 0.3 0.3
v 0.1 0.3 0.2
v 0.1 0.3 -0.2
v 0.1 0.3 -0.4
v 0.1 0.3 -0.5
v 0.1 0.4 0.3
v 0.1 0.4 0.2
v 0.1 0.4 -0.2
v 0.1 0.4 -0.4
v 0.3 0 0.2
v 0.3 0 0
v 0.3 0 -0.1
v 0.3 0 -0.3
v 0.3 0.1 0.3
v 0.3 0.1 0.2
v 0.3 0.1 0
v 0.3 0.1 -0.1
v 0.3 0.1 -0.3
v 0.3 0.1 -0.4
v 0.3 0.3 0.3
v 0.3 0.3 0.2
v 0.3 0.3 -0.2
v 0.3 0.3 -0.3
v 0.3 0.3 -0.4
v 0.3 0.4 0.2
v 0.3 0.4 -0.2
v 0.3 0.4 -0.3
v 0.4 0 0
v 0.4 0 -0.1
v 0.4 0.1 0
v 0.4 0.1 -0.1
v 0 0.1 0.4
v 0 0.3 0.4
v 0.1 0.1 0.4
v 0.1 0.3 0.4
v -0.2 0.1 0.3
v -0.2 0.3 0.3
v -0.1 0.1 0.3
v -0.1 0.3 0.3
v 0 0 0.3
v 0 0.1 0.3
v 0 0.3 0.3
v 0 0.4 0.3
v 0.1 0 0.3
v 0.1 0.1 0.3
v 0.1 0.3 0.3
v 0.1 0.4 0.3
v 0.2 0.1 0.3
v 0.2 0.3 0.3
v 0.3 0.1 0.3
v 0.3 0.3 0.3
v -0.2 0 0.2
v -0.2 0.1 0.2
v -0.2 0.3 0.2
v -0.2 0.4 0.2
v -0.1 0 0.2
v -0.1 0.1 0.2
v -0.1 0.3 0.2
v -0.1 0.4 0.2
v 0.2 0 0.2
v 0.2 0.1 0.2
v 0.2 0.3 0.2
v 0.2 0.4 0.2
v 0.3 0 0.2
v 0.3 0.1 0.2
v 0.3 0.3 0.2
v 0.3 0.4 0.2
v -0.4 0 0
v -0.4 0.1 0
v -0.2 0 0
v -0.2 0.1 0
v -0.1 0 0
v -0.1 0.1 0
v 0 0 0
v 0 0.1 0
v 0.1 0 0
v 0.1 0.1 0
v 0.2 0 0
v 0.2 0.1 0
v 0.3 0 0
v 0.3 0.1 0
v 0.4 0 0
v 0.4 0.1 0
v -0.2 0.1 -0.3
v -0.2 0.3 -0.3
v -0.1 0.1 -0.3
v -0.1 0.3 -0.3
v 0.2 0.1 -0.3
v 0.2 0.3 -0.3
v 0.3 0.1 -0.3
v 0.3 0.3 -0.3
v 0 0.1 -0.4
v 0 0.2 -0.4
v 0 0.3 -0.4
v 0.1 0.1 -0.4
v 0.1 0.2 -0.4
v 0.1 0.3 -0.4
v 0 0.1 0.3
v 0 0.3 0.3
v 0.1 0.1 0.3
v 0.1 0.3 0.3
v -0.2 0.1 0.2
v -0.2 0.3 0.2
v -0.1 0.1 0.2
v -0.1 0.3 0.2
v 0.2 0.1 0.2
v 0.2 0.3 0.2
v 0.3 0.1 0.2
v 0.3 0.3 0.2
v -0.4 0 -0.1
v -0.4 0.1 -0.1
v -0.2 0 -0.1
v -0.2 0.1 -0.1
v -0.1 0 -0.1
v -0.1 0.1 -0.1
v 0 0 -0.1
v 0 0.1 -0.1
v 0.1 0 -0.1
v 0.1 0.1 -0.1
v 0.2 0 -0.1
v 0.2 0.1 -0.1
v 0.3 0 -0.1
v 0.3 0.1 -0.1
v 0.4 0 -0.1
v 0.4 0.1 -0.1
v -0.2 0 -0.3
v -0.2 0.1 -0.3
v -0.2 0.3 -0.3
v -0.2 0.4 -0.3
v -0.1 0 -0.3
v -0.1 0.1 -0.3
v -0.1 0.3 -0.3
v -0.1 0.4 -0.3
v 0.2 0 -0.3
v 0.2 0.1 -0.3
v 0.2 0.3 -0.3
v 0.2 0.4 -0.3
v 0.3 0 -0.3
v 0.3 0.1 -0.3
v 0.3 0.3 -0.3
v 0.3 0.4 -0.3
v -0.2 0.1 -0.4
v -0.2 0.3 -0.4
v -0.1 0.1 -0.4
v -0.1 0.3 -0.4
v 0 0 -0.4
v 0 0.1 -0.4
v 0 0.3 -0.4
v 0 0.4 -0.4
v 0.1 0 -0.4
v 0.1 0.1 -0.4
v 0.1 0.3 -0.4
v 0.1 0.4 -0.4
v 0.2 0.1 -0.4
v 0.2 0.3 -0.4
v 0.3 0.1 -0.4
v 0.3 0.3 -0.4
v 0 0.1 -0.5
v 0 0.2 -0.5
v 0 0.3 -0.5
v 0.1 0.1 -0.5
v 0.1 0.2 -0.5
v 0.1 0.3 -0.5
v 0 0 0.3
v 0.1 0 0.3
v -0.2 0 0.2
v -0.1 0 0.2
v 0.2 0 0.2
v 0.3 0 0.2
v -0.4 0 0
v -0.2 0 0
v -0.1 0 0
v 0 0 0
v 0.1 0 0
v 0.2 0 0
v 0.3 0 0
v 0.4 0 0
v -0.4 0 -0.1
v -0.2 0 -0.1
v -0.1 0 -0.1
v 0 0 -0.1
v 0.1 0 -0.1
v 0.2 0 -0.1
v 0.3 0 -0.1
v 0.4 0 -0.1
v -0.2 0 -0.3
v -0.1 0 -0.3
v 0.2 0 -0.3
v 0.3 0 -0.3
v 0 0 -0.4
v 0.1 0 -0.4
v 0 0.1 0.4
v 0.1 0.1 0.4
v -0.2 0.1 0.3
v -0.1 0.1 0.3
v 0 0.1 0.3
v 0.1 0.1 0.3
v 0.2 0.1 0.3
v 0.3 0.1 0.3
v -0.2 0.1 0.2
v -0.1 0.1 0.2
v 0.2 0.1 0.2
v 0.3 0.1 0.2
v -0.2 0.1 -0.3
v -0.1 0.1 -0.3
v 0.2 0.1 -0.3
v 0.3 0.1 -0.3
v -0.2 0.1 -0.4
v -0.1 0.1 -0.4
v 0 0.1 -0.4
v 0.1 0.1 -0.4
v 0.2 0.1 -0.4
v 0.3 0.1 -0.4
v 0 0.1 -0.5
v 0.1 0.1 -0.5
v 0 0.3 0.3
v 0.1 0.3 0.3
v -0.2 0.3 0.2
v -0.1 0.3 0.2
v 0 0.3 0.2
v 0.1 0.3 0.2
v 0.2 0.3 0.2
v 0.3 0.3 0.2
v -0.2 0.3 0
v -0.1 0.3 0
v 0 0.3 -0.2
v 0.1 0.3 -0.2
v 0.2 0.3 -0.2
v 0.3 0.3 -0.2
v -0.2 0.3 -0.3
v -0.1 0.3 -0.3
v 0.2 0.3 -0.3
v 0.3 0.3 -0.3
v 0 0.3 -0.4
v 0.1 0.3 -0.4
v 0 0.1 0.3
v 0.1 0.1 0.3
v -0.2 0.1 0.2
v -0.1 0.1 0.2
v 0.2 0.1 0.2
v 0.3 0.1 0.2
v -0.4 0.1 0
v -0.2 0.1 0
v -0.1 0.1 0
v 0 0.1 0
v 0.1 0.1 0
v 0.2 0.1 0
v 0.3 0.1 0
v 0.4 0.1 0
v -0.4 0.1 -0.1
v -0.2 0.1 -0.1
v -0.1 0.1 -0.1
v 0 0.1 -0.1
v 0.1 0.1 -0.1
v 0.2 0.1 -0.1
v 0.3 0.1 -0.1
v 0.4 0.1 -0.1
v -0.2 0.1 -0.3
v -0.1 0.1 -0.3
v 0.2 0.1 -0.3
v 0.3 0.1 -0.3
v 0 0.1 -0.4
v 0.1 0.1 -0.4
v 0 0.3 0.4
v 0.1 0.3 0.4
v -0.2 0.3 0.3
v -0.1 0.3 0.3
v 0 0.3 0.3
v 0.1 0.3 0.3
v 0.2 0.3 0.3
v 0.3 0.3 0.3
v -0.2 0.3 0.2
v -0.1 0.3 0.2
v 0.2 0.3 0.2
v 0.3 0.3 0.2
v -0.2 0.3 -0.3
v -0.1 0.3 -0.3
v 0.2 0.3 -0.3
v 0.3 0.3 -0.3
v -0.2 0.3 -0.4
v -0.1 0.3 -0.4
v 0 0.3 -0.4
v 0.1 0.3 -0.4
v 0.2 0.3 -0.4
v 0.3 0.3 -0.4
v 0 0.3 -0.5
v 0.1 0.3 -0.5
v 0 0.4 0.3
v 0.1 0.4 0.3
v -0.2 0.4 0.2
v -0.1 0.4 0.2
v 0 0.4 0.2
v 0.1 0.4 0.2
v 0.2 0.4 0.2
v 0.3 0.4 0.2
v -0.2 0.4 0
v -0.1 0.4 0
v 0 0.4 -0.2
v 0.1 0.4 -0.2
v 0.2 0.4 -0.2
v 0.3 0.4 -0.2
v -0.2 0.4 -0.3
v -0.1 0.4 -0.3
v 0.2 0.4 -0.3
v 0.3 0.4 -0.3
v 0 0.4 -0.4
v 0.1 0.4 -0.4

# faces
f 3/2/1 2/2/1 1/2/1
f 4/2/1 2/2/1 3/2/1
f 10/2/1 6/2/1 5/2/1
f 11/2/1 6/2/1 10/2/1
f 12/1/1 8/1/1 7/1/1
f 13/1/1 8/1/1 12/1/1
f 15/1/1 10/1/1 9/1/1
f 16/1/1 10/1/1 15/1/1
f 18/1/1 14/1/1 13/1/1
f 19/1/1 14/1/1 18/1/1
f 20/1/1 17/1/1 16/1/1
f 21/2/1 18/2/1 17/2/1
f 21/1/1 17/1/1 20/1/1
f 22/2/1 18/2/1 21/2/1
f 28/1/1 24/1/1 23/1/1
f 29/1/1 24/1/1 28/1/1
f 30/1/1 26/1/1 25/1/1
f 31/1/1 26/1/1 30/1/1
f 33/1/1 32/1/1 31/1/1
f 34/1/1 32/1/1 33/1/1
f 35/2/1 28/2/1 27/2/1
f 36/2/1 28/2/1 35/2/1
f 39/2/1 34/2/1 33/2/1
f 40/2/1 34/2/1 39/2/1
f 41/2/1 37/2/1 36/2/1
f 42/1/1 38/1/1 37/1/1
f 42/2/1 37/2/1 41/2/1
f 43/2/1 39/2/1 38/2/1
f 43/1/1 38/1/1 42/1/1
f 44/2/1 39/2/1 43/2/1
f 50/1/1 46/1/1 45/1/1
f 51/1/1 46/1/1 50/1/1
f 52/2/1 48/2/1 47/2/1
f 53/2/1 48/2/1 52/2/1
f 55/1/1 50/1/1 49/1/1
f 56/1/1 50/1/1 55/1/1
f 58/2/1 54/2/1 53/2/1
f 59/2/1 54/2/1 58/2/1
f 60/1/1 57/1/1 56/1/1
f 61/2/1 58/2/1 57/2/1
f 61/1/1 57/1/1 60/1/1
f 62/2/1 58/2/1 61/2/1
f 63/2/2 64/2/2 68/2/2
f 68/2/2 64/2/2 69/2/2
f 65/1/2 66/1/2 70/1/2
f 70/1/2 66/1/2 71/1/2
f 67/1/2 68/1/2 73/1/2
f 73/1/2 68/1/2 74/1/2
f 71/1/2 72/1/2 76/1/2
f 76/1/2 72/1/2 77/1/2
f 74/1/2 75/1/2 78/1/2
f 75/2/2 76/2/2 79/2/2
f 78/1/2 75/1/2 79/1/2
f 79/2/2 76/2/2 80/2/2
f 81/1/2 82/1/2 86/1/2
f 86/1/2 82/1/2 87/1/2
f 83/1/2 84/1/2 88/1/2
f 88/1/2 84/1/2 89/1/2
f 89/1/2 90/1/2 91/1/2
f 91/1/2 90/1/2 92/1/2
f 85/2/2 86/2/2 93/2/2
f 93/2/2 86/2/2 94/2/2
f 91/2/2 92/2/2 97/2/2
f 97/2/2 92/2/2 98/2/2
f 94/2/2 95/2/2 99/2/2
f 95/1/2 96/1/2 100/1/2
f 99/2/2 95/2/2 100/2/2
f 96/2/2 97/2/2 101/2/2
f 100/1/2 96/1/2 101/1/2
f 101/2/2 97/2/2 102/2/2
f 103/1/2 104/1/2 108/1/2
f 108/1/2 104/1/2 109/1/2
f 105/2/2 106/2/2 110/2/2
f 110/2/2 106/2/2 111/2/2
f 107/1/2 108/1/2 113/1/2
f 113/1/2 108/1/2 114/1/2
f 111/2/2 112/2/2 116/2/2
f 116/2/2 112/2/2 117/2/2
f 114/1/2 115/1/2 118/1/2
f 115/2/2 116/2/2 119/2/2
f 118/1/2 115/1/2 119/1/2
f 119/2/2 116/2/2 120/2/2
f 121/1/2 122/1/2 123/1/2
f 123/1/2 122/1/2 124/1/2
f 127/2/3 126/2/3 125/2/3
f 128/2/3 126/2/3 127/2/3
f 131/1/3 130/1/3 129/1/3
f 132/1/3 130/1/3 131/1/3
f 137/1/3 134/1/3 133/1/3
f 138/1/3 134/1/3 137/1/3
f 139/2/3 136/2/3 135/2/3
f 140/2/3 136/2/3 139/2/3
f 143/1/3 142/1/3 141/1/3
f 144/1/3 142/1/3 143/1/3
f 149/2/3 146/2/3 145/2/3
f 150/2/3 146/2/3 149/2/3
f 151/1/3 148/1/3 147/1/3
f 152/1/3 148/1/3 151/1/3
f 157/1/3 154/1/3 153/1/3
f 158/1/3 154/1/3 157/1/3
f 159/1/3 156/1/3 155/1/3
f 160/1/3 156/1/3 159/1/3
f 163/2/3 162/2/3 161/2/3
f 164/2/3 162/2/3 163/2/3
f 167/2/3 166/2/3 165/2/3
f 168/2/3 166/2/3 167/2/3
f 171/1/3 170/1/3 169/1/3
f 172/1/3 170/1/3 171/1/3
f 175/1/3 174/1/3 173/1/3
f 176/1/3 174/1/3 175/1/3
f 179/1/3 178/1/3 177/1/3
f 180/1/3 178/1/3 179/1/3
f 183/2/3 182/2/3 181/2/3
f 184/2/3 182/2/3 183/2/3
f 188/1/3 186/1/3 185/1/3
f 189/2/3 187/2/3 186/2/3
f 189/1/3 186/1/3 188/1/3
f 190/2/3 187/2/3 189/2/3
f 191/2/4 192/2/4 193/2/4
f 193/2/4 192/2/4 194/2/4
f 195/1/4 196/1/4 197/1/4
f 197/1/4 196/1/4 198/1/4
f 199/1/4 200/1/4 201/1/4
f 201/1/4 200/1/4 202/1/4
f 203/2/4 204/2/4 205/2/4
f 205/2/4 204/2/4 206/2/4
f 207/2/4 208/2/4 209/2/4
f 209/2/4 208/2/4 210/2/4
f 211/1/4 212/1/4 213/1/4
f 213/1/4 212/1/4 214/1/4
f 215/1/4 216/1/4 217/1/4
f 217/1/4 216/1/4 218/1/4
f 219/1/4 220/1/4 223/1/4
f 223/1/4 220/1/4 224/1/4
f 221/2/4 222/2/4 225/2/4
f 225/2/4 222/2/4 226/2/4
f 227/2/4 228/2/4 231/2/4
f 231/2/4 228/2/4 232/2/4
f 229/2/4 230/2/4 233/2/4
f 233/2/4 230/2/4 234/2/4
f 235/1/4 236/1/4 237/1/4
f 237/1/4 236/1/4 238/1/4
f 239/1/4 240/1/4 243/1/4
f 243/1/4 240/1/4 244/1/4
f 241/2/4 242/2/4 245/2/4
f 245/2/4 242/2/4 246/2/4
f 247/2/4 248/2/4 249/2/4
f 249/2/4 248/2/4 250/2/4
f 251/1/4 252/1/4 254/1/4
f 252/2/4 253/2/4 255/2/4
f 254/1/4 252/1/4 255/1/4
f 255/2/4 253/2/4 256/2/4
f 264/2/5 260/2/5 259/2/5
f 265/2/5 260/2/5 264/2/5
f 266/1/5 258/1/5 257/1/5
f 267/1/5 258/1/5 266/1/5
f 268/1/5 262/1/5 261/1/5
f 269/1/5 262/1/5 268/1/5
f 271/2/5 265/2/5 264/2/5
f 271/2/5 264/2/5 263/2/5
f 271/2/5 266/2/5 265/2/5
f 272/2/5 266/2/5 271/2/5
f 273/2/5 266/2/5 272/2/5
f 274/1/5 270/1/5 269/1/5
f 274/2/5 266/2/5 273/2/5
f 274/1/5 267/1/5 266/1/5
f 274/1/5 269/1/5 268/1/5
f 274/1/5 268/1/5 267/1/5
f 275/1/5 270/1/5 274/1/5
f 276/1/5 270/1/5 275/1/5
f 277/1/5 270/1/5 276/1/5
f 278/1/5 270/1/5 277/1/5
f 279/1/5 273/1/5 272/1/5
f 280/1/5 273/1/5 279/1/5
f 281/2/5 277/2/5 276/2/5
f 282/2/5 277/2/5 281/2/5
f 283/1/5 275/1/5 274/1/5
f 284/1/5 275/1/5 283/1/5
f 289/2/5 286/2/5 285/2/5
f 290/2/5 286/2/5 289/2/5
f 293/1/5 288/1/5 287/1/5
f 294/1/5 288/1/5 293/1/5
f 295/1/5 292/1/5 291/1/5
f 296/1/5 292/1/5 295/1/5
f 301/1/5 298/1/5 297/1/5
f 302/1/5 298/1/5 301/1/5
f 305/2/5 300/2/5 299/2/5
f 306/2/5 300/2/5 305/2/5
f 307/1/5 304/1/5 303/1/5
f 308/1/5 304/1/5 307/1/5
f 313/2/5 310/2/5 309/2/5
f 314/2/5 310/2/5 313/2/5
f 317/1/5 312/1/5 311/1/5
f 318/1/5 312/1/5 317/1/5
f 319/1/5 314/1/5 313/1/5
f 320/1/5 314/1/5 319/1/5
f 321/1/5 316/1/5 315/1/5
f 322/1/5 316/1/5 321/1/5
f 323/2/5 318/2/5 317/2/5
f 324/2/5 318/2/5 323/2/5
f 325/2/5 322/2/5 321/2/5
f 326/2/5 322/2/5 325/2/5
f 327/2/5 320/2/5 319/2/5
f 328/2/5 320/2/5 327/2/5
f 331/2/6 332/2/6 336/2/6
f 336/2/6 332/2/6 337/2/6
f 329/1/6 330/1/6 338/1/6
f 338/1/6 330/1/6 339/1/6
f 333/1/6 334/1/6 340/1/6
f 340/1/6 334/1/6 341/1/6
f 336/2/6 337/2/6 343/2/6
f 335/2/6 336/2/6 343/2/6
f 337/2/6 338/2/6 343/2/6
f 343/2/6 338/2/6 344/2/6
f 344/2/6 338/2/6 345/2/6
f 341/1/6 342/1/6 346/1/6
f 345/2/6 338/2/6 346/2/6
f 338/1/6 339/1/6 346/1/6
f 340/1/6 341/1/6 346/1/6
f 339/1/6 340/1/6 346/1/6
f 346/1/6 342/1/6 347/1/6
f 347/1/6 342/1/6 348/1/6
f 348/1/6 342/1/6 349/1/6
f 349/1/6 342/1/6 350/1/6
f 344/1/6 345/1/6 351/1/6
f 351/1/6 345/1/6 352/1/6
f 348/2/6 349/2/6 353/2/6
f 353/2/6 349/2/6 354/2/6
f 346/1/6 347/1/6 355/1/6
f 355/1/6 347/1/6 356/1/6
f 357/2/6 358/2/6 361/2/6
f 361/2/6 358/2/6 362/2/6
f 359/1/6 360/1/6 365/1/6
f 365/1/6 360/1/6 366/1/6
f 363/1/6 364/1/6 367/1/6
f 367/1/6 364/1/6 368/1/6
f 369/1/6 370/1/6 373/1/6
f 373/1/6 370/1/6 374/1/6
f 371/2/6 372/2/6 377/2/6
f 377/2/6 372/2/6 378/2/6
f 375/2/6 376/2/6 379/2/6
f 379/2/6 376/2/6 380/2/6
f 381/2/6 382/2/6 385/2/6
f 385/2/6 382/2/6 386/2/6
f 383/1/6 384/1/6 389/1/6
f 389/1/6 384/1/6 390/1/6
f 385/1/6 386/1/6 391/1/6
f 391/1/6 386/1/6 392/1/6
f 387/1/6 388/1/6 393/1/6
f 393/1/6 388/1/6 394/1/6
f 389/2/6 390/2/6 395/2/6
f 395/2/6 390/2/6 396/2/6
f 393/2/6 394/2/6 397/2/6
f 397/2/6 394/2/6 398/2/6
f 391/2/6 392/2/6 399/2/6
f 399/2/6 392/2/6 400/2/6
