# MagicaVoxel @ Ephtracy

# group
o 

# material
mtllib Emblem-0.mtl
usemtl palette

# normals
vn 0 0 -1
vn 0 0 1
vn -1 0 0
vn 1 0 0
vn 0 -1 0
vn 0 1 0

# texcoords
vt 0.0214844 0.5
vt 0.541016 0.5
vt 0.861328 0.5
vt 0.865234 0.5

# verts
v 0 2.1 -1
v 0.2 2.1 -1
v 0 2.4 -1
v 0.2 2.4 -1
v -0.1 2 -0.9
v 0.2 2 -0.9
v 0 2.1 -0.9
v 0.2 2.1 -0.9
v 0 2.4 -0.9
v 0.2 2.4 -0.9
v -0.1 2.5 -0.9
v 0.2 2.5 -0.9
v 0 0.9 -0.6
v 0.1 0.9 -0.6
v -0.1 2 -0.6
v 0 2 -0.6
v 0.1 2 -0.6
v 0.2 2 -0.6
v 0 2.1 -0.6
v 0.2 2.1 -0.6
v 0 2.4 -0.6
v 0.2 2.4 -0.6
v -0.1 2.5 -0.6
v 0.2 2.5 -0.6
v 0 0.3 -0.5
v 0.1 0.3 -0.5
v 0 0.9 -0.5
v 0.1 0.9 -0.5
v 0 0.2 -0.4
v 0.1 0.2 -0.4
v 0 0.3 -0.4
v 0.1 0.3 -0.4
v 0 0.1 -0.3
v 0.1 0.1 -0.3
v 0 0.2 -0.3
v 0.1 0.2 -0.3
v 0 0 -0.2
v 0.1 0 -0.2
v 0 0.1 -0.2
v 0.1 0.1 -0.2
v -0.1 2 0.7
v 0.2 2 0.7
v 0 2.1 0.7
v 0.2 2.1 0.7
v 0 2.4 0.7
v 0.2 2.4 0.7
v -0.1 2.5 0.7
v 0.2 2.5 0.7
v -0.1 2 -0.7
v 0.2 2 -0.7
v 0 2.1 -0.7
v 0.2 2.1 -0.7
v 0 2.4 -0.7
v 0.2 2.4 -0.7
v -0.1 2.5 -0.7
v 0.2 2.5 -0.7
v 0 0 0.2
v 0.1 0 0.2
v 0 0.1 0.2
v 0.1 0.1 0.2
v 0 0.1 0.3
v 0.1 0.1 0.3
v 0 0.2 0.3
v 0.1 0.2 0.3
v 0 0.2 0.4
v 0.1 0.2 0.4
v 0 0.3 0.4
v 0.1 0.3 0.4
v 0 0.3 0.5
v 0.1 0.3 0.5
v 0 0.9 0.5
v 0.1 0.9 0.5
v 0 0.9 0.6
v 0.1 0.9 0.6
v -0.1 2 0.6
v 0 2 0.6
v 0.1 2 0.6
v 0.2 2 0.6
v 0 2.1 0.6
v 0.2 2.1 0.6
v 0 2.4 0.6
v 0.2 2.4 0.6
v -0.1 2.5 0.6
v 0.2 2.5 0.6
v -0.1 2 0.9
v 0.2 2 0.9
v 0 2.1 0.9
v 0.2 2.1 0.9
v 0 2.4 0.9
v 0.2 2.4 0.9
v -0.1 2.5 0.9
v 0.2 2.5 0.9
v 0 2.1 1
v 0.2 2.1 1
v 0 2.4 1
v 0.2 2.4 1
v -0.1 2 -0.9
v -0.1 2.5 -0.9
v -0.1 2 -0.7
v -0.1 2.5 -0.7
v -0.1 2 -0.6
v -0.1 2.5 -0.6
v -0.1 2 0.6
v -0.1 2.5 0.6
v -0.1 2 0.7
v -0.1 2.5 0.7
v -0.1 2 0.9
v -0.1 2.5 0.9
v 0 2.1 -1
v 0 2.4 -1
v 0 2.1 -0.9
v 0 2.4 -0.9
v 0 2.1 -0.7
v 0 2.4 -0.7
v 0 0.9 -0.6
v 0 2 -0.6
v 0 2.1 -0.6
v 0 2.4 -0.6
v 0 0.3 -0.5
v 0 0.9 -0.5
v 0 1 -0.5
v 0 1.9 -0.5
v 0 2 -0.5
v 0 0.2 -0.4
v 0 0.3 -0.4
v 0 0.8 -0.4
v 0 1 -0.4
v 0 1.1 -0.4
v 0 1.2 -0.4
v 0 1.6 -0.4
v 0 1.7 -0.4
v 0 0.1 -0.3
v 0 0.2 -0.3
v 0 0.3 -0.3
v 0 0.9 -0.3
v 0 1 -0.3
v 0 1.1 -0.3
v 0 1.2 -0.3
v 0 1.3 -0.3
v 0 1.5 -0.3
v 0 1.6 -0.3
v 0 1.7 -0.3
v 0 1.8 -0.3
v 0 0 -0.2
v 0 0.1 -0.2
v 0 0.2 -0.2
v 0 0.3 -0.2
v 0 0.4 -0.2
v 0 0.6 -0.2
v 0 0.7 -0.2
v 0 1 -0.2
v 0 1.1 -0.2
v 0 1.4 -0.2
v 0 1.5 -0.2
v 0 1.7 -0.2
v 0 1.8 -0.2
v 0 0.3 -0.1
v 0 0.4 -0.1
v 0 0.6 -0.1
v 0 0.7 -0.1
v 0 1.1 -0.1
v 0 1.2 -0.1
v 0 1.6 -0.1
v 0 1.7 -0.1
v 0 0.3 0.1
v 0 0.4 0.1
v 0 0.6 0.1
v 0 0.7 0.1
v 0 1.1 0.1
v 0 1.2 0.1
v 0 1.6 0.1
v 0 1.7 0.1
v 0 0 0.2
v 0 0.1 0.2
v 0 0.2 0.2
v 0 0.3 0.2
v 0 0.4 0.2
v 0 0.6 0.2
v 0 0.7 0.2
v 0 1 0.2
v 0 1.1 0.2
v 0 1.4 0.2
v 0 1.5 0.2
v 0 1.7 0.2
v 0 1.8 0.2
v 0 0.1 0.3
v 0 0.2 0.3
v 0 0.3 0.3
v 0 0.9 0.3
v 0 1 0.3
v 0 1.1 0.3
v 0 1.2 0.3
v 0 1.3 0.3
v 0 1.5 0.3
v 0 1.6 0.3
v 0 1.7 0.3
v 0 1.8 0.3
v 0 0.2 0.4
v 0 0.3 0.4
v 0 0.8 0.4
v 0 1 0.4
v 0 1.1 0.4
v 0 1.2 0.4
v 0 1.6 0.4
v 0 1.7 0.4
v 0 0.3 0.5
v 0 0.9 0.5
v 0 1 0.5
v 0 1.9 0.5
v 0 2 0.5
v 0 0.9 0.6
v 0 2 0.6
v 0 2.1 0.6
v 0 2.4 0.6
v 0 2.1 0.7
v 0 2.4 0.7
v 0 2.1 0.9
v 0 2.4 0.9
v 0 2.1 1
v 0 2.4 1
v 0.1 0.9 -0.6
v 0.1 2 -0.6
v 0.1 0.3 -0.5
v 0.1 0.9 -0.5
v 0.1 1 -0.5
v 0.1 1.9 -0.5
v 0.1 2 -0.5
v 0.1 0.2 -0.4
v 0.1 0.3 -0.4
v 0.1 0.8 -0.4
v 0.1 1 -0.4
v 0.1 1.1 -0.4
v 0.1 1.2 -0.4
v 0.1 1.6 -0.4
v 0.1 1.7 -0.4
v 0.1 0.1 -0.3
v 0.1 0.2 -0.3
v 0.1 0.3 -0.3
v 0.1 0.9 -0.3
v 0.1 1 -0.3
v 0.1 1.1 -0.3
v 0.1 1.2 -0.3
v 0.1 1.3 -0.3
v 0.1 1.5 -0.3
v 0.1 1.6 -0.3
v 0.1 1.7 -0.3
v 0.1 1.8 -0.3
v 0.1 0 -0.2
v 0.1 0.1 -0.2
v 0.1 0.2 -0.2
v 0.1 0.3 -0.2
v 0.1 0.4 -0.2
v 0.1 0.6 -0.2
v 0.1 0.7 -0.2
v 0.1 1 -0.2
v 0.1 1.1 -0.2
v 0.1 1.4 -0.2
v 0.1 1.5 -0.2
v 0.1 1.7 -0.2
v 0.1 1.8 -0.2
v 0.1 0.3 -0.1
v 0.1 0.4 -0.1
v 0.1 0.6 -0.1
v 0.1 0.7 -0.1
v 0.1 1.1 -0.1
v 0.1 1.2 -0.1
v 0.1 1.6 -0.1
v 0.1 1.7 -0.1
v 0.1 0.3 0.1
v 0.1 0.4 0.1
v 0.1 0.6 0.1
v 0.1 0.7 0.1
v 0.1 1.1 0.1
v 0.1 1.2 0.1
v 0.1 1.6 0.1
v 0.1 1.7 0.1
v 0.1 0 0.2
v 0.1 0.1 0.2
v 0.1 0.2 0.2
v 0.1 0.3 0.2
v 0.1 0.4 0.2
v 0.1 0.6 0.2
v 0.1 0.7 0.2
v 0.1 1 0.2
v 0.1 1.1 0.2
v 0.1 1.4 0.2
v 0.1 1.5 0.2
v 0.1 1.7 0.2
v 0.1 1.8 0.2
v 0.1 0.1 0.3
v 0.1 0.2 0.3
v 0.1 0.3 0.3
v 0.1 0.9 0.3
v 0.1 1 0.3
v 0.1 1.1 0.3
v 0.1 1.2 0.3
v 0.1 1.3 0.3
v 0.1 1.5 0.3
v 0.1 1.6 0.3
v 0.1 1.7 0.3
v 0.1 1.8 0.3
v 0.1 0.2 0.4
v 0.1 0.3 0.4
v 0.1 0.8 0.4
v 0.1 1 0.4
v 0.1 1.1 0.4
v 0.1 1.2 0.4
v 0.1 1.6 0.4
v 0.1 1.7 0.4
v 0.1 0.3 0.5
v 0.1 0.9 0.5
v 0.1 1 0.5
v 0.1 1.9 0.5
v 0.1 2 0.5
v 0.1 0.9 0.6
v 0.1 2 0.6
v 0.2 2.1 -1
v 0.2 2.4 -1
v 0.2 2 -0.9
v 0.2 2.1 -0.9
v 0.2 2.4 -0.9
v 0.2 2.5 -0.9
v 0.2 2 -0.7
v 0.2 2.1 -0.7
v 0.2 2.4 -0.7
v 0.2 2.5 -0.7
v 0.2 2 -0.6
v 0.2 2.1 -0.6
v 0.2 2.4 -0.6
v 0.2 2.5 -0.6
v 0.2 2 0.6
v 0.2 2.1 0.6
v 0.2 2.4 0.6
v 0.2 2.5 0.6
v 0.2 2 0.7
v 0.2 2.1 0.7
v 0.2 2.4 0.7
v 0.2 2.5 0.7
v 0.2 2 0.9
v 0.2 2.1 0.9
v 0.2 2.4 0.9
v 0.2 2.5 0.9
v 0.2 2.1 1
v 0.2 2.4 1
v 0 0 -0.2
v 0 0 0.2
v 0.1 0 -0.2
v 0.1 0 0.2
v 0 0.1 -0.3
v 0 0.1 -0.2
v 0 0.1 0.2
v 0 0.1 0.3
v 0.1 0.1 -0.3
v 0.1 0.1 -0.2
v 0.1 0.1 0.2
v 0.1 0.1 0.3
v 0 0.2 -0.4
v 0 0.2 -0.3
v 0 0.2 0.3
v 0 0.2 0.4
v 0.1 0.2 -0.4
v 0.1 0.2 -0.3
v 0.1 0.2 0.3
v 0.1 0.2 0.4
v 0 0.3 -0.5
v 0 0.3 -0.4
v 0 0.3 0.4
v 0 0.3 0.5
v 0.1 0.3 -0.5
v 0.1 0.3 -0.4
v 0.1 0.3 0.4
v 0.1 0.3 0.5
v 0 0.9 -0.6
v 0 0.9 -0.5
v 0 0.9 0.5
v 0 0.9 0.6
v 0.1 0.9 -0.6
v 0.1 0.9 -0.5
v 0.1 0.9 0.5
v 0.1 0.9 0.6
v -0.1 2 -0.9
v -0.1 2 -0.7
v -0.1 2 -0.6
v -0.1 2 0.6
v -0.1 2 0.7
v -0.1 2 0.9
v 0 2 -0.6
v 0 2 -0.5
v 0 2 0.5
v 0 2 0.6
v 0.1 2 -0.6
v 0.1 2 -0.5
v 0.1 2 0.5
v 0.1 2 0.6
v 0.2 2 -0.9
v 0.2 2 -0.7
v 0.2 2 -0.6
v 0.2 2 0.6
v 0.2 2 0.7
v 0.2 2 0.9
v 0 2.1 -1
v 0 2.1 -0.9
v 0 2.1 -0.7
v 0 2.1 -0.6
v 0 2.1 0.6
v 0 2.1 0.7
v 0 2.1 0.9
v 0 2.1 1
v 0.2 2.1 -1
v 0.2 2.1 -0.9
v 0.2 2.1 -0.7
v 0.2 2.1 -0.6
v 0.2 2.1 0.6
v 0.2 2.1 0.7
v 0.2 2.1 0.9
v 0.2 2.1 1
v 0 2.4 -1
v 0 2.4 -0.9
v 0 2.4 -0.7
v 0 2.4 -0.6
v 0 2.4 0.6
v 0 2.4 0.7
v 0 2.4 0.9
v 0 2.4 1
v 0.2 2.4 -1
v 0.2 2.4 -0.9
v 0.2 2.4 -0.7
v 0.2 2.4 -0.6
v 0.2 2.4 0.6
v 0.2 2.4 0.7
v 0.2 2.4 0.9
v 0.2 2.4 1
v -0.1 2.5 -0.9
v -0.1 2.5 -0.7
v -0.1 2.5 -0.6
v -0.1 2.5 0.6
v -0.1 2.5 0.7
v -0.1 2.5 0.9
v 0.2 2.5 -0.9
v 0.2 2.5 -0.7
v 0.2 2.5 -0.6
v 0.2 2.5 0.6
v 0.2 2.5 0.7
v 0.2 2.5 0.9

# faces
f 3/2/1 2/2/1 1/2/1
f 4/2/1 2/2/1 3/2/1
f 7/2/1 6/2/1 5/2/1
f 8/2/1 6/2/1 7/2/1
f 9/2/1 7/2/1 5/2/1
f 11/2/1 9/2/1 5/2/1
f 11/2/1 10/2/1 9/2/1
f 12/2/1 10/2/1 11/2/1
f 16/1/1 14/1/1 13/1/1
f 17/1/1 14/1/1 16/1/1
f 19/3/1 16/3/1 15/3/1
f 19/3/1 18/3/1 17/3/1
f 19/3/1 17/3/1 16/3/1
f 20/3/1 18/3/1 19/3/1
f 21/3/1 19/3/1 15/3/1
f 23/3/1 21/3/1 15/3/1
f 23/3/1 22/3/1 21/3/1
f 24/3/1 22/3/1 23/3/1
f 27/1/1 26/1/1 25/1/1
f 28/1/1 26/1/1 27/1/1
f 31/1/1 30/1/1 29/1/1
f 32/1/1 30/1/1 31/1/1
f 35/1/1 34/1/1 33/1/1
f 36/1/1 34/1/1 35/1/1
f 39/1/1 38/1/1 37/1/1
f 40/1/1 38/1/1 39/1/1
f 43/2/1 42/2/1 41/2/1
f 44/2/1 42/2/1 43/2/1
f 45/2/1 43/2/1 41/2/1
f 47/2/1 45/2/1 41/2/1
f 47/2/1 46/2/1 45/2/1
f 48/2/1 46/2/1 47/2/1
f 49/2/2 50/2/2 51/2/2
f 51/2/2 50/2/2 52/2/2
f 49/2/2 51/2/2 53/2/2
f 49/2/2 53/2/2 55/2/2
f 53/2/2 54/2/2 55/2/2
f 55/2/2 54/2/2 56/2/2
f 57/1/2 58/1/2 59/1/2
f 59/1/2 58/1/2 60/1/2
f 61/1/2 62/1/2 63/1/2
f 63/1/2 62/1/2 64/1/2
f 65/1/2 66/1/2 67/1/2
f 67/1/2 66/1/2 68/1/2
f 69/1/2 70/1/2 71/1/2
f 71/1/2 70/1/2 72/1/2
f 73/1/2 74/1/2 76/1/2
f 76/1/2 74/1/2 77/1/2
f 75/3/2 76/3/2 79/3/2
f 77/3/2 78/3/2 79/3/2
f 76/3/2 77/3/2 79/3/2
f 79/3/2 78/3/2 80/3/2
f 75/3/2 79/3/2 81/3/2
f 75/3/2 81/3/2 83/3/2
f 81/3/2 82/3/2 83/3/2
f 83/3/2 82/3/2 84/3/2
f 85/2/2 86/2/2 87/2/2
f 87/2/2 86/2/2 88/2/2
f 85/2/2 87/2/2 89/2/2
f 85/2/2 89/2/2 91/2/2
f 89/2/2 90/2/2 91/2/2
f 91/2/2 90/2/2 92/2/2
f 93/2/2 94/2/2 95/2/2
f 95/2/2 94/2/2 96/2/2
f 99/2/3 98/2/3 97/2/3
f 100/2/3 98/2/3 99/2/3
f 103/3/3 102/3/3 101/3/3
f 104/3/3 102/3/3 103/3/3
f 107/2/3 106/2/3 105/2/3
f 108/2/3 106/2/3 107/2/3
f 111/2/3 110/2/3 109/2/3
f 112/2/3 110/2/3 111/2/3
f 117/2/3 114/2/3 113/2/3
f 118/2/3 114/2/3 117/2/3
f 120/1/3 116/1/3 115/1/3
f 121/1/3 116/1/3 120/1/3
f 122/1/3 116/1/3 121/1/3
f 123/1/3 116/1/3 122/1/3
f 125/1/3 120/1/3 119/1/3
f 125/1/3 121/1/3 120/1/3
f 126/1/3 121/1/3 125/1/3
f 127/3/3 122/3/3 121/3/3
f 127/1/3 121/1/3 126/1/3
f 128/3/3 122/3/3 127/3/3
f 129/3/3 122/3/3 128/3/3
f 130/3/3 122/3/3 129/3/3
f 131/3/3 122/3/3 130/3/3
f 133/1/3 125/1/3 124/1/3
f 134/3/3 126/3/3 125/3/3
f 134/1/3 125/1/3 133/1/3
f 135/4/3 127/4/3 126/4/3
f 136/3/3 128/3/3 127/3/3
f 136/4/3 127/4/3 135/4/3
f 137/1/3 129/1/3 128/1/3
f 137/3/3 128/3/3 136/3/3
f 138/3/3 130/3/3 129/3/3
f 138/1/3 129/1/3 137/1/3
f 139/3/3 130/3/3 138/3/3
f 140/3/3 130/3/3 139/3/3
f 141/1/3 131/1/3 130/1/3
f 141/3/3 130/3/3 140/3/3
f 142/3/3 122/3/3 131/3/3
f 142/1/3 131/1/3 141/1/3
f 143/3/3 122/3/3 142/3/3
f 145/1/3 133/1/3 132/1/3
f 146/3/3 134/3/3 133/3/3
f 146/1/3 133/1/3 145/1/3
f 147/3/3 126/3/3 134/3/3
f 147/3/3 134/3/3 146/3/3
f 148/3/3 126/3/3 147/3/3
f 149/3/3 126/3/3 148/3/3
f 150/3/3 126/3/3 149/3/3
f 151/3/3 136/3/3 135/3/3
f 151/1/3 137/1/3 136/1/3
f 152/3/3 138/3/3 137/3/3
f 152/1/3 137/1/3 151/1/3
f 152/3/3 139/3/3 138/3/3
f 153/1/3 140/1/3 139/1/3
f 154/3/3 141/3/3 140/3/3
f 154/1/3 140/1/3 153/1/3
f 154/3/3 142/3/3 141/3/3
f 155/1/3 143/1/3 142/1/3
f 155/3/3 142/3/3 154/3/3
f 156/3/3 122/3/3 143/3/3
f 156/1/3 143/1/3 155/1/3
f 157/3/3 146/3/3 145/3/3
f 157/3/3 147/3/3 146/3/3
f 157/1/3 148/1/3 147/1/3
f 158/3/3 149/3/3 148/3/3
f 158/1/3 148/1/3 157/1/3
f 159/1/3 150/1/3 149/1/3
f 159/3/3 149/3/3 158/3/3
f 160/3/3 126/3/3 150/3/3
f 160/1/3 150/1/3 159/1/3
f 161/3/3 139/3/3 152/3/3
f 161/3/3 152/3/3 151/3/3
f 162/3/3 139/3/3 161/3/3
f 163/3/3 155/3/3 154/3/3
f 163/3/3 154/3/3 153/3/3
f 163/3/3 156/3/3 155/3/3
f 164/3/3 156/3/3 163/3/3
f 165/3/3 158/3/3 157/3/3
f 165/3/3 157/3/3 145/3/3
f 166/1/3 159/1/3 158/1/3
f 166/3/3 158/3/3 165/3/3
f 167/3/3 160/3/3 159/3/3
f 167/1/3 159/1/3 166/1/3
f 168/3/3 126/3/3 160/3/3
f 168/3/3 160/3/3 167/3/3
f 169/1/3 162/1/3 161/1/3
f 169/3/3 161/3/3 151/3/3
f 170/3/3 139/3/3 162/3/3
f 170/1/3 162/1/3 169/1/3
f 171/1/3 164/1/3 163/1/3
f 171/3/3 163/3/3 153/3/3
f 172/3/3 156/3/3 164/3/3
f 172/1/3 164/1/3 171/1/3
f 173/1/3 145/1/3 144/1/3
f 174/3/3 165/3/3 145/3/3
f 174/1/3 145/1/3 173/1/3
f 175/3/3 165/3/3 174/3/3
f 176/1/3 166/1/3 165/1/3
f 176/3/3 165/3/3 175/3/3
f 177/3/3 167/3/3 166/3/3
f 177/1/3 166/1/3 176/1/3
f 178/1/3 168/1/3 167/1/3
f 178/3/3 167/3/3 177/3/3
f 179/3/3 126/3/3 168/3/3
f 179/1/3 168/1/3 178/1/3
f 180/3/3 169/3/3 151/3/3
f 180/3/3 151/3/3 135/3/3
f 180/3/3 170/3/3 169/3/3
f 181/3/3 170/3/3 180/3/3
f 182/1/3 153/1/3 139/1/3
f 182/3/3 171/3/3 153/3/3
f 182/3/3 172/3/3 171/3/3
f 183/3/3 172/3/3 182/3/3
f 184/3/3 156/3/3 172/3/3
f 184/3/3 172/3/3 183/3/3
f 185/3/3 122/3/3 156/3/3
f 185/3/3 156/3/3 184/3/3
f 186/1/3 175/1/3 174/1/3
f 187/3/3 176/3/3 175/3/3
f 187/1/3 175/1/3 186/1/3
f 187/3/3 179/3/3 178/3/3
f 187/3/3 178/3/3 177/3/3
f 187/3/3 177/3/3 176/3/3
f 188/3/3 179/3/3 187/3/3
f 189/4/3 135/4/3 126/4/3
f 189/3/3 180/3/3 135/3/3
f 190/1/3 181/1/3 180/1/3
f 190/3/3 180/3/3 189/3/3
f 191/3/3 170/3/3 181/3/3
f 191/1/3 181/1/3 190/1/3
f 192/3/3 139/3/3 170/3/3
f 192/3/3 170/3/3 191/3/3
f 193/1/3 183/1/3 182/1/3
f 193/3/3 139/3/3 192/3/3
f 193/1/3 182/1/3 139/1/3
f 194/3/3 184/3/3 183/3/3
f 194/1/3 183/1/3 193/1/3
f 195/3/3 184/3/3 194/3/3
f 196/1/3 185/1/3 184/1/3
f 196/3/3 184/3/3 195/3/3
f 197/3/3 122/3/3 185/3/3
f 197/1/3 185/1/3 196/1/3
f 198/1/3 188/1/3 187/1/3
f 199/3/3 179/3/3 188/3/3
f 199/1/3 188/1/3 198/1/3
f 200/3/3 126/3/3 179/3/3
f 200/3/3 179/3/3 199/3/3
f 200/4/3 190/4/3 189/4/3
f 200/4/3 189/4/3 126/4/3
f 201/3/3 191/3/3 190/3/3
f 201/4/3 190/4/3 200/4/3
f 202/1/3 192/1/3 191/1/3
f 202/3/3 191/3/3 201/3/3
f 203/3/3 194/3/3 193/3/3
f 203/1/3 192/1/3 202/1/3
f 203/3/3 193/3/3 192/3/3
f 203/3/3 195/3/3 194/3/3
f 204/1/3 196/1/3 195/1/3
f 204/3/3 195/3/3 203/3/3
f 205/3/3 197/3/3 196/3/3
f 205/1/3 196/1/3 204/1/3
f 206/1/3 201/1/3 200/1/3
f 206/1/3 200/1/3 199/1/3
f 207/1/3 201/1/3 206/1/3
f 208/3/3 202/3/3 201/3/3
f 208/1/3 201/1/3 207/1/3
f 208/3/3 204/3/3 203/3/3
f 208/3/3 205/3/3 204/3/3
f 208/3/3 203/3/3 202/3/3
f 209/4/3 123/4/3 122/4/3
f 209/3/3 205/3/3 208/3/3
f 209/3/3 197/3/3 205/3/3
f 209/3/3 122/3/3 197/3/3
f 210/4/3 123/4/3 209/4/3
f 211/1/3 208/1/3 207/1/3
f 211/1/3 210/1/3 209/1/3
f 211/1/3 209/1/3 208/1/3
f 212/1/3 210/1/3 211/1/3
f 215/2/3 214/2/3 213/2/3
f 216/2/3 214/2/3 215/2/3
f 219/2/3 218/2/3 217/2/3
f 220/2/3 218/2/3 219/2/3
f 221/1/4 222/1/4 224/1/4
f 224/1/4 222/1/4 225/1/4
f 225/1/4 222/1/4 226/1/4
f 226/1/4 222/1/4 227/1/4
f 223/1/4 224/1/4 229/1/4
f 224/1/4 225/1/4 229/1/4
f 229/1/4 225/1/4 230/1/4
f 225/3/4 226/3/4 231/3/4
f 230/1/4 225/1/4 231/1/4
f 231/3/4 226/3/4 232/3/4
f 232/3/4 226/3/4 233/3/4
f 233/3/4 226/3/4 234/3/4
f 234/3/4 226/3/4 235/3/4
f 228/1/4 229/1/4 237/1/4
f 229/3/4 230/3/4 238/3/4
f 237/1/4 229/1/4 238/1/4
f 230/4/4 231/4/4 239/4/4
f 231/3/4 232/3/4 240/3/4
f 239/4/4 231/4/4 240/4/4
f 232/1/4 233/1/4 241/1/4
f 240/3/4 232/3/4 241/3/4
f 233/3/4 234/3/4 242/3/4
f 241/1/4 233/1/4 242/1/4
f 242/3/4 234/3/4 243/3/4
f 243/3/4 234/3/4 244/3/4
f 234/1/4 235/1/4 245/1/4
f 244/3/4 234/3/4 245/3/4
f 235/3/4 226/3/4 246/3/4
f 245/1/4 235/1/4 246/1/4
f 246/3/4 226/3/4 247/3/4
f 236/1/4 237/1/4 249/1/4
f 237/3/4 238/3/4 250/3/4
f 249/1/4 237/1/4 250/1/4
f 238/3/4 230/3/4 251/3/4
f 250/3/4 238/3/4 251/3/4
f 251/3/4 230/3/4 252/3/4
f 252/3/4 230/3/4 253/3/4
f 253/3/4 230/3/4 254/3/4
f 239/3/4 240/3/4 255/3/4
f 240/1/4 241/1/4 255/1/4
f 241/3/4 242/3/4 256/3/4
f 255/1/4 241/1/4 256/1/4
f 242/3/4 243/3/4 256/3/4
f 243/1/4 244/1/4 257/1/4
f 244/3/4 245/3/4 258/3/4
f 257/1/4 244/1/4 258/1/4
f 245/3/4 246/3/4 258/3/4
f 246/1/4 247/1/4 259/1/4
f 258/3/4 246/3/4 259/3/4
f 247/3/4 226/3/4 260/3/4
f 259/1/4 247/1/4 260/1/4
f 249/3/4 250/3/4 261/3/4
f 250/3/4 251/3/4 261/3/4
f 251/1/4 252/1/4 261/1/4
f 252/3/4 253/3/4 262/3/4
f 261/1/4 252/1/4 262/1/4
f 253/1/4 254/1/4 263/1/4
f 262/3/4 253/3/4 263/3/4
f 254/3/4 230/3/4 264/3/4
f 263/1/4 254/1/4 264/1/4
f 256/3/4 243/3/4 265/3/4
f 255/3/4 256/3/4 265/3/4
f 265/3/4 243/3/4 266/3/4
f 258/3/4 259/3/4 267/3/4
f 257/3/4 258/3/4 267/3/4
f 259/3/4 260/3/4 267/3/4
f 267/3/4 260/3/4 268/3/4
f 261/3/4 262/3/4 269/3/4
f 249/3/4 261/3/4 269/3/4
f 262/1/4 263/1/4 270/1/4
f 269/3/4 262/3/4 270/3/4
f 263/3/4 264/3/4 271/3/4
f 270/1/4 263/1/4 271/1/4
f 264/3/4 230/3/4 272/3/4
f 271/3/4 264/3/4 272/3/4
f 265/1/4 266/1/4 273/1/4
f 255/3/4 265/3/4 273/3/4
f 266/3/4 243/3/4 274/3/4
f 273/1/4 266/1/4 274/1/4
f 267/1/4 268/1/4 275/1/4
f 257/3/4 267/3/4 275/3/4
f 268/3/4 260/3/4 276/3/4
f 275/1/4 268/1/4 276/1/4
f 248/1/4 249/1/4 277/1/4
f 249/3/4 269/3/4 278/3/4
f 277/1/4 249/1/4 278/1/4
f 278/3/4 269/3/4 279/3/4
f 269/1/4 270/1/4 280/1/4
f 279/3/4 269/3/4 280/3/4
f 270/3/4 271/3/4 281/3/4
f 280/1/4 270/1/4 281/1/4
f 271/1/4 272/1/4 282/1/4
f 281/3/4 271/3/4 282/3/4
f 272/3/4 230/3/4 283/3/4
f 282/1/4 272/1/4 283/1/4
f 255/3/4 273/3/4 284/3/4
f 239/3/4 255/3/4 284/3/4
f 273/3/4 274/3/4 284/3/4
f 284/3/4 274/3/4 285/3/4
f 243/1/4 257/1/4 286/1/4
f 257/3/4 275/3/4 286/3/4
f 275/3/4 276/3/4 286/3/4
f 286/3/4 276/3/4 287/3/4
f 276/3/4 260/3/4 288/3/4
f 287/3/4 276/3/4 288/3/4
f 260/3/4 226/3/4 289/3/4
f 288/3/4 260/3/4 289/3/4
f 278/1/4 279/1/4 290/1/4
f 279/3/4 280/3/4 291/3/4
f 290/1/4 279/1/4 291/1/4
f 282/3/4 283/3/4 291/3/4
f 281/3/4 282/3/4 291/3/4
f 280/3/4 281/3/4 291/3/4
f 291/3/4 283/3/4 292/3/4
f 230/4/4 239/4/4 293/4/4
f 239/3/4 284/3/4 293/3/4
f 284/1/4 285/1/4 294/1/4
f 293/3/4 284/3/4 294/3/4
f 285/3/4 274/3/4 295/3/4
f 294/1/4 285/1/4 295/1/4
f 274/3/4 243/3/4 296/3/4
f 295/3/4 274/3/4 296/3/4
f 286/1/4 287/1/4 297/1/4
f 296/3/4 243/3/4 297/3/4
f 243/1/4 286/1/4 297/1/4
f 287/3/4 288/3/4 298/3/4
f 297/1/4 287/1/4 298/1/4
f 298/3/4 288/3/4 299/3/4
f 288/1/4 289/1/4 300/1/4
f 299/3/4 288/3/4 300/3/4
f 289/3/4 226/3/4 301/3/4
f 300/1/4 289/1/4 301/1/4
f 291/1/4 292/1/4 302/1/4
f 292/3/4 283/3/4 303/3/4
f 302/1/4 292/1/4 303/1/4
f 283/3/4 230/3/4 304/3/4
f 303/3/4 283/3/4 304/3/4
f 293/4/4 294/4/4 304/4/4
f 230/4/4 293/4/4 304/4/4
f 294/3/4 295/3/4 305/3/4
f 304/4/4 294/4/4 305/4/4
f 295/1/4 296/1/4 306/1/4
f 305/3/4 295/3/4 306/3/4
f 297/3/4 298/3/4 307/3/4
f 306/1/4 296/1/4 307/1/4
f 296/3/4 297/3/4 307/3/4
f 298/3/4 299/3/4 307/3/4
f 299/1/4 300/1/4 308/1/4
f 307/3/4 299/3/4 308/3/4
f 300/3/4 301/3/4 309/3/4
f 308/1/4 300/1/4 309/1/4
f 304/1/4 305/1/4 310/1/4
f 303/1/4 304/1/4 310/1/4
f 310/1/4 305/1/4 311/1/4
f 305/3/4 306/3/4 312/3/4
f 311/1/4 305/1/4 312/1/4
f 307/3/4 308/3/4 312/3/4
f 308/3/4 309/3/4 312/3/4
f 306/3/4 307/3/4 312/3/4
f 226/4/4 227/4/4 313/4/4
f 312/3/4 309/3/4 313/3/4
f 309/3/4 301/3/4 313/3/4
f 301/3/4 226/3/4 313/3/4
f 313/4/4 227/4/4 314/4/4
f 311/1/4 312/1/4 315/1/4
f 313/1/4 314/1/4 315/1/4
f 312/1/4 313/1/4 315/1/4
f 315/1/4 314/1/4 316/1/4
f 317/2/4 318/2/4 320/2/4
f 320/2/4 318/2/4 321/2/4
f 319/2/4 320/2/4 323/2/4
f 321/2/4 322/2/4 323/2/4
f 320/2/4 321/2/4 323/2/4
f 323/2/4 322/2/4 324/2/4
f 324/2/4 322/2/4 325/2/4
f 325/2/4 322/2/4 326/2/4
f 324/2/4 325/2/4 328/2/4
f 328/2/4 325/2/4 329/2/4
f 327/3/4 328/3/4 331/3/4
f 329/3/4 330/3/4 331/3/4
f 328/3/4 329/3/4 331/3/4
f 331/3/4 330/3/4 332/3/4
f 332/3/4 330/3/4 333/3/4
f 333/3/4 330/3/4 334/3/4
f 332/2/4 333/2/4 336/2/4
f 336/2/4 333/2/4 337/2/4
f 335/2/4 336/2/4 339/2/4
f 337/2/4 338/2/4 339/2/4
f 336/2/4 337/2/4 339/2/4
f 339/2/4 338/2/4 340/2/4
f 340/2/4 338/2/4 341/2/4
f 341/2/4 338/2/4 342/2/4
f 340/2/4 341/2/4 343/2/4
f 343/2/4 341/2/4 344/2/4
f 347/1/5 346/1/5 345/1/5
f 348/1/5 346/1/5 347/1/5
f 353/1/5 350/1/5 349/1/5
f 354/1/5 350/1/5 353/1/5
f 355/1/5 352/1/5 351/1/5
f 356/1/5 352/1/5 355/1/5
f 361/1/5 358/1/5 357/1/5
f 362/1/5 358/1/5 361/1/5
f 363/1/5 360/1/5 359/1/5
f 364/1/5 360/1/5 363/1/5
f 369/1/5 366/1/5 365/1/5
f 370/1/5 366/1/5 369/1/5
f 371/1/5 368/1/5 367/1/5
f 372/1/5 368/1/5 371/1/5
f 377/1/5 374/1/5 373/1/5
f 378/1/5 374/1/5 377/1/5
f 379/1/5 376/1/5 375/1/5
f 380/1/5 376/1/5 379/1/5
f 387/3/5 384/3/5 383/3/5
f 388/3/5 384/3/5 387/3/5
f 389/3/5 384/3/5 388/3/5
f 390/3/5 384/3/5 389/3/5
f 395/2/5 382/2/5 381/2/5
f 396/2/5 382/2/5 395/2/5
f 397/3/5 394/3/5 393/3/5
f 397/3/5 392/3/5 391/3/5
f 397/3/5 393/3/5 392/3/5
f 398/3/5 394/3/5 397/3/5
f 399/2/5 386/2/5 385/2/5
f 400/2/5 386/2/5 399/2/5
f 409/2/5 402/2/5 401/2/5
f 410/2/5 402/2/5 409/2/5
f 411/2/5 404/2/5 403/2/5
f 412/2/5 404/2/5 411/2/5
f 413/2/5 406/2/5 405/2/5
f 414/2/5 406/2/5 413/2/5
f 415/2/5 408/2/5 407/2/5
f 416/2/5 408/2/5 415/2/5
f 417/2/6 418/2/6 425/2/6
f 425/2/6 418/2/6 426/2/6
f 419/2/6 420/2/6 427/2/6
f 427/2/6 420/2/6 428/2/6
f 421/2/6 422/2/6 429/2/6
f 429/2/6 422/2/6 430/2/6
f 423/2/6 424/2/6 431/2/6
f 431/2/6 424/2/6 432/2/6
f 433/2/6 434/2/6 439/2/6
f 439/2/6 434/2/6 440/2/6
f 435/3/6 436/3/6 441/3/6
f 441/3/6 436/3/6 442/3/6
f 437/2/6 438/2/6 443/2/6
f 443/2/6 438/2/6 444/2/6
